solid OpenSCAD_Model
  facet normal -1 0 0
    outer loop
      vertex 0 60 0
      vertex 0 60 20
      vertex 0 70 0
    endloop
  endfacet
  facet normal -1 0 0
    outer loop
      vertex 0 70 0
      vertex 0 60 20
      vertex 0 65 30
    endloop
  endfacet
  facet normal -1 0 0
    outer loop
      vertex 0 70 0
      vertex 0 65 30
      vertex 0 70 20
    endloop
  endfacet
  facet normal 0 -1 0
    outer loop
      vertex 0 60 20
      vertex 0 60 0
      vertex 10 60 0
    endloop
  endfacet
  facet normal 0 -1 0
    outer loop
      vertex 10 60 20
      vertex 0 60 20
      vertex 10 60 0
    endloop
  endfacet
  facet normal 0 0 -1
    outer loop
      vertex 0 60 0
      vertex 0 70 0
      vertex 10 60 0
    endloop
  endfacet
  facet normal 0 0 -1
    outer loop
      vertex 10 60 0
      vertex 0 70 0
      vertex 10 70 0
    endloop
  endfacet
  facet normal 0 1 0
    outer loop
      vertex 0 70 0
      vertex 0 70 20
      vertex 10 70 0
    endloop
  endfacet
  facet normal 0 1 0
    outer loop
      vertex 10 70 0
      vertex 0 70 20
      vertex 10 70 20
    endloop
  endfacet
  facet normal 0 0.894427 0.447214
    outer loop
      vertex 10 70 20
      vertex 0 70 20
      vertex 10 65 30
    endloop
  endfacet
  facet normal 0 0.894427 0.447214
    outer loop
      vertex 10 65 30
      vertex 0 70 20
      vertex 0 65 30
    endloop
  endfacet
  facet normal 0 -0.894427 0.447214
    outer loop
      vertex 0 65 30
      vertex 0 60 20
      vertex 10 60 20
    endloop
  endfacet
  facet normal 0 -0.894427 0.447214
    outer loop
      vertex 10 65 30
      vertex 0 65 30
      vertex 10 60 20
    endloop
  endfacet
  facet normal 1 0 0
    outer loop
      vertex 10 60 20
      vertex 10 60 0
      vertex 10 70 0
    endloop
  endfacet
  facet normal 1 0 0
    outer loop
      vertex 10 65 30
      vertex 10 60 20
      vertex 10 70 20
    endloop
  endfacet
  facet normal 1 0 0
    outer loop
      vertex 10 70 20
      vertex 10 60 20
      vertex 10 70 0
    endloop
  endfacet
endsolid OpenSCAD_Model
