solid OpenSCAD_Model
  facet normal -1 0 0
    outer loop
      vertex 15 0 0
      vertex 15 0 10
      vertex 15 10 0
    endloop
  endfacet
  facet normal -1 0 0
    outer loop
      vertex 15 10 0
      vertex 15 0 10
      vertex 15 10 10
    endloop
  endfacet
  facet normal 0 -1 0
    outer loop
      vertex 15 0 10
      vertex 15 0 0
      vertex 25 0 0
    endloop
  endfacet
  facet normal 0 -1 0
    outer loop
      vertex 25 0 10
      vertex 15 0 10
      vertex 25 0 0
    endloop
  endfacet
  facet normal 0 0 -1
    outer loop
      vertex 15 0 0
      vertex 15 10 0
      vertex 25 0 0
    endloop
  endfacet
  facet normal 0 0 -1
    outer loop
      vertex 25 0 0
      vertex 15 10 0
      vertex 25 10 0
    endloop
  endfacet
  facet normal 0 1 0
    outer loop
      vertex 15 10 0
      vertex 15 10 10
      vertex 25 10 0
    endloop
  endfacet
  facet normal 0 1 0
    outer loop
      vertex 25 10 0
      vertex 15 10 10
      vertex 25 10 10
    endloop
  endfacet
  facet normal 0 0 1
    outer loop
      vertex 15 10 10
      vertex 15 0 10
      vertex 25 0 10
    endloop
  endfacet
  facet normal 0 0 1
    outer loop
      vertex 25 10 10
      vertex 15 10 10
      vertex 25 0 10
    endloop
  endfacet
  facet normal 1 0 0
    outer loop
      vertex 25 0 10
      vertex 25 0 0
      vertex 25 10 0
    endloop
  endfacet
  facet normal 1 0 0
    outer loop
      vertex 25 10 10
      vertex 25 0 10
      vertex 25 10 0
    endloop
  endfacet
  facet normal -1 0 0
    outer loop
      vertex 15 15 0
      vertex 15 15 10
      vertex 15 25 0
    endloop
  endfacet
  facet normal -1 0 0
    outer loop
      vertex 15 25 0
      vertex 15 15 10
      vertex 15 25 10
    endloop
  endfacet
  facet normal 0 -1 0
    outer loop
      vertex 15 15 10
      vertex 15 15 0
      vertex 25 15 0
    endloop
  endfacet
  facet normal 0 -1 0
    outer loop
      vertex 25 15 10
      vertex 15 15 10
      vertex 25 15 0
    endloop
  endfacet
  facet normal 0 0 -1
    outer loop
      vertex 15 15 0
      vertex 15 25 0
      vertex 25 15 0
    endloop
  endfacet
  facet normal 0 0 -1
    outer loop
      vertex 25 15 0
      vertex 15 25 0
      vertex 25 25 0
    endloop
  endfacet
  facet normal 0 1 0
    outer loop
      vertex 15 25 0
      vertex 15 25 10
      vertex 25 25 0
    endloop
  endfacet
  facet normal 0 1 0
    outer loop
      vertex 25 25 0
      vertex 15 25 10
      vertex 25 25 10
    endloop
  endfacet
  facet normal 0 0 1
    outer loop
      vertex 15 25 10
      vertex 15 15 10
      vertex 25 15 10
    endloop
  endfacet
  facet normal 0 0 1
    outer loop
      vertex 25 25 10
      vertex 15 25 10
      vertex 25 15 10
    endloop
  endfacet
  facet normal 1 0 0
    outer loop
      vertex 25 15 10
      vertex 25 15 0
      vertex 25 25 0
    endloop
  endfacet
  facet normal 1 0 0
    outer loop
      vertex 25 25 10
      vertex 25 15 10
      vertex 25 25 0
    endloop
  endfacet
  facet normal -1 0 0
    outer loop
      vertex 15 30 0
      vertex 15 30 10
      vertex 15 40 0
    endloop
  endfacet
  facet normal -1 0 0
    outer loop
      vertex 15 40 0
      vertex 15 30 10
      vertex 15 40 10
    endloop
  endfacet
  facet normal 0 -1 0
    outer loop
      vertex 15 30 10
      vertex 15 30 0
      vertex 25 30 0
    endloop
  endfacet
  facet normal 0 -1 0
    outer loop
      vertex 25 30 10
      vertex 15 30 10
      vertex 25 30 0
    endloop
  endfacet
  facet normal 0 0 -1
    outer loop
      vertex 15 30 0
      vertex 15 40 0
      vertex 25 30 0
    endloop
  endfacet
  facet normal 0 0 -1
    outer loop
      vertex 25 30 0
      vertex 15 40 0
      vertex 25 40 0
    endloop
  endfacet
  facet normal 0 1 0
    outer loop
      vertex 15 40 0
      vertex 15 40 10
      vertex 25 40 0
    endloop
  endfacet
  facet normal 0 1 0
    outer loop
      vertex 25 40 0
      vertex 15 40 10
      vertex 25 40 10
    endloop
  endfacet
  facet normal 0 0 1
    outer loop
      vertex 15 40 10
      vertex 15 30 10
      vertex 25 30 10
    endloop
  endfacet
  facet normal 0 0 1
    outer loop
      vertex 25 40 10
      vertex 15 40 10
      vertex 25 30 10
    endloop
  endfacet
  facet normal 1 0 0
    outer loop
      vertex 25 30 10
      vertex 25 30 0
      vertex 25 40 0
    endloop
  endfacet
  facet normal 1 0 0
    outer loop
      vertex 25 40 10
      vertex 25 30 10
      vertex 25 40 0
    endloop
  endfacet
  facet normal -1 0 0
    outer loop
      vertex 15 45 0
      vertex 15 45 10
      vertex 15 55 0
    endloop
  endfacet
  facet normal -1 0 0
    outer loop
      vertex 15 55 0
      vertex 15 45 10
      vertex 15 55 10
    endloop
  endfacet
  facet normal 0 -1 0
    outer loop
      vertex 15 45 10
      vertex 15 45 0
      vertex 25 45 0
    endloop
  endfacet
  facet normal 0 -1 0
    outer loop
      vertex 25 45 10
      vertex 15 45 10
      vertex 25 45 0
    endloop
  endfacet
  facet normal 0 0 -1
    outer loop
      vertex 15 45 0
      vertex 15 55 0
      vertex 25 45 0
    endloop
  endfacet
  facet normal 0 0 -1
    outer loop
      vertex 25 45 0
      vertex 15 55 0
      vertex 25 55 0
    endloop
  endfacet
  facet normal 0 1 0
    outer loop
      vertex 15 55 0
      vertex 15 55 10
      vertex 25 55 0
    endloop
  endfacet
  facet normal 0 1 0
    outer loop
      vertex 25 55 0
      vertex 15 55 10
      vertex 25 55 10
    endloop
  endfacet
  facet normal 0 0 1
    outer loop
      vertex 15 55 10
      vertex 15 45 10
      vertex 25 45 10
    endloop
  endfacet
  facet normal 0 0 1
    outer loop
      vertex 25 55 10
      vertex 15 55 10
      vertex 25 45 10
    endloop
  endfacet
  facet normal 1 0 0
    outer loop
      vertex 25 45 10
      vertex 25 45 0
      vertex 25 55 0
    endloop
  endfacet
  facet normal 1 0 0
    outer loop
      vertex 25 55 10
      vertex 25 45 10
      vertex 25 55 0
    endloop
  endfacet
  facet normal -1 0 0
    outer loop
      vertex 15 60 0
      vertex 15 60 10
      vertex 15 70 0
    endloop
  endfacet
  facet normal -1 0 0
    outer loop
      vertex 15 70 0
      vertex 15 60 10
      vertex 15 70 10
    endloop
  endfacet
  facet normal 0 -1 0
    outer loop
      vertex 15 60 10
      vertex 15 60 0
      vertex 25 60 0
    endloop
  endfacet
  facet normal 0 -1 0
    outer loop
      vertex 25 60 10
      vertex 15 60 10
      vertex 25 60 0
    endloop
  endfacet
  facet normal 0 0 -1
    outer loop
      vertex 15 60 0
      vertex 15 70 0
      vertex 25 60 0
    endloop
  endfacet
  facet normal 0 0 -1
    outer loop
      vertex 25 60 0
      vertex 15 70 0
      vertex 25 70 0
    endloop
  endfacet
  facet normal 0 1 0
    outer loop
      vertex 15 70 0
      vertex 15 70 10
      vertex 25 70 0
    endloop
  endfacet
  facet normal 0 1 0
    outer loop
      vertex 25 70 0
      vertex 15 70 10
      vertex 25 70 10
    endloop
  endfacet
  facet normal 0 0 1
    outer loop
      vertex 15 70 10
      vertex 15 60 10
      vertex 25 60 10
    endloop
  endfacet
  facet normal 0 0 1
    outer loop
      vertex 25 70 10
      vertex 15 70 10
      vertex 25 60 10
    endloop
  endfacet
  facet normal 1 0 0
    outer loop
      vertex 25 60 10
      vertex 25 60 0
      vertex 25 70 0
    endloop
  endfacet
  facet normal 1 0 0
    outer loop
      vertex 25 70 10
      vertex 25 60 10
      vertex 25 70 0
    endloop
  endfacet
  facet normal -1 0 0
    outer loop
      vertex 15 75 0
      vertex 15 75 10
      vertex 15 85 0
    endloop
  endfacet
  facet normal -1 0 0
    outer loop
      vertex 15 85 0
      vertex 15 75 10
      vertex 15 85 10
    endloop
  endfacet
  facet normal 0 -1 0
    outer loop
      vertex 15 75 10
      vertex 15 75 0
      vertex 25 75 0
    endloop
  endfacet
  facet normal 0 -1 0
    outer loop
      vertex 25 75 10
      vertex 15 75 10
      vertex 25 75 0
    endloop
  endfacet
  facet normal 0 0 -1
    outer loop
      vertex 15 75 0
      vertex 15 85 0
      vertex 25 75 0
    endloop
  endfacet
  facet normal 0 0 -1
    outer loop
      vertex 25 75 0
      vertex 15 85 0
      vertex 25 85 0
    endloop
  endfacet
  facet normal 0 1 0
    outer loop
      vertex 15 85 0
      vertex 15 85 10
      vertex 25 85 0
    endloop
  endfacet
  facet normal 0 1 0
    outer loop
      vertex 25 85 0
      vertex 15 85 10
      vertex 25 85 10
    endloop
  endfacet
  facet normal 0 0 1
    outer loop
      vertex 15 85 10
      vertex 15 75 10
      vertex 25 75 10
    endloop
  endfacet
  facet normal 0 0 1
    outer loop
      vertex 25 85 10
      vertex 15 85 10
      vertex 25 75 10
    endloop
  endfacet
  facet normal 1 0 0
    outer loop
      vertex 25 75 10
      vertex 25 75 0
      vertex 25 85 0
    endloop
  endfacet
  facet normal 1 0 0
    outer loop
      vertex 25 85 10
      vertex 25 75 10
      vertex 25 85 0
    endloop
  endfacet
  facet normal -1 0 0
    outer loop
      vertex 15 90 0
      vertex 15 90 10
      vertex 15 100 0
    endloop
  endfacet
  facet normal -1 0 0
    outer loop
      vertex 15 100 0
      vertex 15 90 10
      vertex 15 100 10
    endloop
  endfacet
  facet normal 0 -1 0
    outer loop
      vertex 15 90 10
      vertex 15 90 0
      vertex 25 90 0
    endloop
  endfacet
  facet normal 0 -1 0
    outer loop
      vertex 25 90 10
      vertex 15 90 10
      vertex 25 90 0
    endloop
  endfacet
  facet normal 0 0 -1
    outer loop
      vertex 15 90 0
      vertex 15 100 0
      vertex 25 90 0
    endloop
  endfacet
  facet normal 0 0 -1
    outer loop
      vertex 25 90 0
      vertex 15 100 0
      vertex 25 100 0
    endloop
  endfacet
  facet normal 0 1 0
    outer loop
      vertex 15 100 0
      vertex 15 100 10
      vertex 25 100 0
    endloop
  endfacet
  facet normal 0 1 0
    outer loop
      vertex 25 100 0
      vertex 15 100 10
      vertex 25 100 10
    endloop
  endfacet
  facet normal 0 0 1
    outer loop
      vertex 15 100 10
      vertex 15 90 10
      vertex 25 90 10
    endloop
  endfacet
  facet normal 0 0 1
    outer loop
      vertex 25 100 10
      vertex 15 100 10
      vertex 25 90 10
    endloop
  endfacet
  facet normal 1 0 0
    outer loop
      vertex 25 90 10
      vertex 25 90 0
      vertex 25 100 0
    endloop
  endfacet
  facet normal 1 0 0
    outer loop
      vertex 25 100 10
      vertex 25 90 10
      vertex 25 100 0
    endloop
  endfacet
  facet normal -1 0 0
    outer loop
      vertex 15 105 0
      vertex 15 105 10
      vertex 15 115 0
    endloop
  endfacet
  facet normal -1 0 0
    outer loop
      vertex 15 115 0
      vertex 15 105 10
      vertex 15 115 10
    endloop
  endfacet
  facet normal 0 -1 0
    outer loop
      vertex 15 105 10
      vertex 15 105 0
      vertex 25 105 0
    endloop
  endfacet
  facet normal 0 -1 0
    outer loop
      vertex 25 105 10
      vertex 15 105 10
      vertex 25 105 0
    endloop
  endfacet
  facet normal 0 0 -1
    outer loop
      vertex 15 105 0
      vertex 15 115 0
      vertex 25 105 0
    endloop
  endfacet
  facet normal 0 0 -1
    outer loop
      vertex 25 105 0
      vertex 15 115 0
      vertex 25 115 0
    endloop
  endfacet
  facet normal 0 1 0
    outer loop
      vertex 15 115 0
      vertex 15 115 10
      vertex 25 115 0
    endloop
  endfacet
  facet normal 0 1 0
    outer loop
      vertex 25 115 0
      vertex 15 115 10
      vertex 25 115 10
    endloop
  endfacet
  facet normal 0 0 1
    outer loop
      vertex 15 115 10
      vertex 15 105 10
      vertex 25 105 10
    endloop
  endfacet
  facet normal 0 0 1
    outer loop
      vertex 25 115 10
      vertex 15 115 10
      vertex 25 105 10
    endloop
  endfacet
  facet normal 1 0 0
    outer loop
      vertex 25 105 10
      vertex 25 105 0
      vertex 25 115 0
    endloop
  endfacet
  facet normal 1 0 0
    outer loop
      vertex 25 115 10
      vertex 25 105 10
      vertex 25 115 0
    endloop
  endfacet
endsolid OpenSCAD_Model
