solid OpenSCAD_Model
  facet normal -1 1.22465e-16 0
    outer loop
      vertex 0 50 20
      vertex -6.12323e-16 45 20
      vertex -6.12323e-16 45 30
    endloop
  endfacet
  facet normal -1.22465e-16 -1 0
    outer loop
      vertex -6.12323e-16 45 30
      vertex -6.12323e-16 45 20
      vertex 0 45 20
    endloop
  endfacet
  facet normal -1.22465e-16 -1 0
    outer loop
      vertex 10 45 30
      vertex -6.12323e-16 45 30
      vertex 10 45 20
    endloop
  endfacet
  facet normal -1.22465e-16 -1 0
    outer loop
      vertex 10 45 20
      vertex -6.12323e-16 45 30
      vertex 0 45 20
    endloop
  endfacet
  facet normal 0 0 -1
    outer loop
      vertex 0 50 20
      vertex 0 45 20
      vertex -6.12323e-16 45 20
    endloop
  endfacet
  facet normal -1 0 0
    outer loop
      vertex 0 45 0
      vertex 0 45 20
      vertex 0 55 0
    endloop
  endfacet
  facet normal -1 0 0
    outer loop
      vertex 0 55 0
      vertex 0 45 20
      vertex 0 50 20
    endloop
  endfacet
  facet normal -1 0 0
    outer loop
      vertex 0 50 20
      vertex 0 55 30
      vertex 0 55 0
    endloop
  endfacet
  facet normal 1.09536e-16 0.894427 0.447214
    outer loop
      vertex -6.12323e-16 45 30
      vertex 10 45 30
      vertex 0 50 20
    endloop
  endfacet
  facet normal 1.09536e-16 0.894427 0.447214
    outer loop
      vertex 0 50 20
      vertex 10 45 30
      vertex 10 50 20
    endloop
  endfacet
  facet normal 1 -1.22465e-16 0
    outer loop
      vertex 10 45 30
      vertex 10 45 20
      vertex 10 50 20
    endloop
  endfacet
  facet normal 0 -1 0
    outer loop
      vertex 0 45 20
      vertex 0 45 0
      vertex 10 45 0
    endloop
  endfacet
  facet normal 0 -1 0
    outer loop
      vertex 10 45 20
      vertex 0 45 20
      vertex 10 45 0
    endloop
  endfacet
  facet normal 0 0 -1
    outer loop
      vertex 0 45 0
      vertex 0 55 0
      vertex 10 45 0
    endloop
  endfacet
  facet normal 0 0 -1
    outer loop
      vertex 10 45 0
      vertex 0 55 0
      vertex 10 55 0
    endloop
  endfacet
  facet normal 0 1 0
    outer loop
      vertex 0 55 0
      vertex 0 55 30
      vertex 10 55 0
    endloop
  endfacet
  facet normal 0 1 0
    outer loop
      vertex 10 55 0
      vertex 0 55 30
      vertex 10 55 30
    endloop
  endfacet
  facet normal 0 -0.894427 0.447214
    outer loop
      vertex 0 55 30
      vertex 0 50 20
      vertex 10 50 20
    endloop
  endfacet
  facet normal 0 -0.894427 0.447214
    outer loop
      vertex 10 55 30
      vertex 0 55 30
      vertex 10 50 20
    endloop
  endfacet
  facet normal 1 0 0
    outer loop
      vertex 10 45 20
      vertex 10 45 0
      vertex 10 55 0
    endloop
  endfacet
  facet normal 1 0 0
    outer loop
      vertex 10 50 20
      vertex 10 45 20
      vertex 10 55 0
    endloop
  endfacet
  facet normal 1 0 0
    outer loop
      vertex 10 55 30
      vertex 10 50 20
      vertex 10 55 0
    endloop
  endfacet
endsolid OpenSCAD_Model
