solid OpenSCAD_Model
  facet normal -0.995185 -0.0980172 0
    outer loop
      vertex 9 0 1
      vertex 8.82707 1.75581 2
      vertex 8.82707 1.75581 1
    endloop
  endfacet
  facet normal -0.995185 -0.0980172 0
    outer loop
      vertex 8.82707 1.75581 2
      vertex 9 0 1
      vertex 9 0 2
    endloop
  endfacet
  facet normal 0.995185 -0.0980172 0
    outer loop
      vertex -9 0 2
      vertex -8.82707 1.75581 1
      vertex -8.82707 1.75581 2
    endloop
  endfacet
  facet normal 0.995185 -0.0980172 0
    outer loop
      vertex -8.82707 1.75581 1
      vertex -9 0 2
      vertex -9 0 1
    endloop
  endfacet
  facet normal -0.0980172 -0.995185 0
    outer loop
      vertex 0 9 1
      vertex 1.75581 8.82707 2
      vertex 0 9 2
    endloop
  endfacet
  facet normal -0.0980172 -0.995185 -0
    outer loop
      vertex 1.75581 8.82707 2
      vertex 0 9 1
      vertex 1.75581 8.82707 1
    endloop
  endfacet
  facet normal 0.0980172 0.995185 -0
    outer loop
      vertex 0 -9 1
      vertex -1.75581 -8.82707 2
      vertex 0 -9 2
    endloop
  endfacet
  facet normal 0.0980172 0.995185 0
    outer loop
      vertex -1.75581 -8.82707 2
      vertex 0 -9 1
      vertex -1.75581 -8.82707 1
    endloop
  endfacet
  facet normal -0.634393 -0.77301 0
    outer loop
      vertex 5.00013 7.48323 1
      vertex 6.36396 6.36396 2
      vertex 5.00013 7.48323 2
    endloop
  endfacet
  facet normal -0.634393 -0.77301 -0
    outer loop
      vertex 6.36396 6.36396 2
      vertex 5.00013 7.48323 1
      vertex 6.36396 6.36396 1
    endloop
  endfacet
  facet normal -0.471397 -0.881921 0
    outer loop
      vertex 3.44415 8.31492 1
      vertex 5.00013 7.48323 2
      vertex 3.44415 8.31492 2
    endloop
  endfacet
  facet normal -0.471397 -0.881921 -0
    outer loop
      vertex 5.00013 7.48323 2
      vertex 3.44415 8.31492 1
      vertex 5.00013 7.48323 1
    endloop
  endfacet
  facet normal 0.634393 -0.77301 0
    outer loop
      vertex -6.36396 6.36396 1
      vertex -5.00013 7.48323 2
      vertex -6.36396 6.36396 2
    endloop
  endfacet
  facet normal 0.634393 -0.77301 0
    outer loop
      vertex -5.00013 7.48323 2
      vertex -6.36396 6.36396 1
      vertex -5.00013 7.48323 1
    endloop
  endfacet
  facet normal 0.290285 -0.95694 0
    outer loop
      vertex -3.44415 8.31492 1
      vertex -1.75581 8.82707 2
      vertex -3.44415 8.31492 2
    endloop
  endfacet
  facet normal 0.290285 -0.95694 0
    outer loop
      vertex -1.75581 8.82707 2
      vertex -3.44415 8.31492 1
      vertex -1.75581 8.82707 1
    endloop
  endfacet
  facet normal -0.881921 0.471397 0
    outer loop
      vertex 7.48323 -5.00013 1
      vertex 8.31492 -3.44415 2
      vertex 8.31492 -3.44415 1
    endloop
  endfacet
  facet normal -0.881921 0.471397 0
    outer loop
      vertex 8.31492 -3.44415 2
      vertex 7.48323 -5.00013 1
      vertex 7.48323 -5.00013 2
    endloop
  endfacet
  facet normal 0 0 1
    outer loop
      vertex 8 0 1
      vertex 9 0 1
      vertex 8.82707 1.75581 1
    endloop
  endfacet
  facet normal 0 0 1
    outer loop
      vertex 7.84628 1.56072 1
      vertex 8.82707 1.75581 1
      vertex 8.31492 3.44415 1
    endloop
  endfacet
  facet normal 0 0 1
    outer loop
      vertex 9 0 1
      vertex 8 0 1
      vertex 8.82707 -1.75581 1
    endloop
  endfacet
  facet normal -0 0 1
    outer loop
      vertex 7.84628 -1.56072 1
      vertex 8.82707 -1.75581 1
      vertex 8 0 1
    endloop
  endfacet
  facet normal 0 0 1
    outer loop
      vertex 8.82707 1.75581 1
      vertex 7.84628 1.56072 1
      vertex 8 0 1
    endloop
  endfacet
  facet normal 0 0 1
    outer loop
      vertex 7.39104 3.06147 1
      vertex 8.31492 3.44415 1
      vertex 7.48323 5.00013 1
    endloop
  endfacet
  facet normal 0 0 1
    outer loop
      vertex 8.31492 3.44415 1
      vertex 7.39104 3.06147 1
      vertex 7.84628 1.56072 1
    endloop
  endfacet
  facet normal 0 0 1
    outer loop
      vertex 7.48323 5.00013 1
      vertex 6.65176 4.44456 1
      vertex 7.39104 3.06147 1
    endloop
  endfacet
  facet normal 0 0 1
    outer loop
      vertex 6.36396 6.36396 1
      vertex 6.65176 4.44456 1
      vertex 7.48323 5.00013 1
    endloop
  endfacet
  facet normal 0 0 1
    outer loop
      vertex 6.36396 6.36396 1
      vertex 5.65685 5.65685 1
      vertex 6.65176 4.44456 1
    endloop
  endfacet
  facet normal 0 0 1
    outer loop
      vertex 5.00013 7.48323 1
      vertex 5.65685 5.65685 1
      vertex 6.36396 6.36396 1
    endloop
  endfacet
  facet normal 0 0 1
    outer loop
      vertex 5.00013 7.48323 1
      vertex 4.44456 6.65176 1
      vertex 5.65685 5.65685 1
    endloop
  endfacet
  facet normal 0 0 1
    outer loop
      vertex 3.44415 8.31492 1
      vertex 4.44456 6.65176 1
      vertex 5.00013 7.48323 1
    endloop
  endfacet
  facet normal 0 0 1
    outer loop
      vertex 3.44415 8.31492 1
      vertex 3.06147 7.39104 1
      vertex 4.44456 6.65176 1
    endloop
  endfacet
  facet normal 0 0 1
    outer loop
      vertex 1.75581 8.82707 1
      vertex 3.06147 7.39104 1
      vertex 3.44415 8.31492 1
    endloop
  endfacet
  facet normal 0 0 1
    outer loop
      vertex 1.75581 8.82707 1
      vertex 1.56072 7.84628 1
      vertex 3.06147 7.39104 1
    endloop
  endfacet
  facet normal 0 0 1
    outer loop
      vertex 0 9 1
      vertex 1.56072 7.84628 1
      vertex 1.75581 8.82707 1
    endloop
  endfacet
  facet normal 0 0 1
    outer loop
      vertex 0 9 1
      vertex 0 8 1
      vertex 1.56072 7.84628 1
    endloop
  endfacet
  facet normal 0 0 1
    outer loop
      vertex 0 9 1
      vertex -1.56072 7.84628 1
      vertex 0 8 1
    endloop
  endfacet
  facet normal -0 0 1
    outer loop
      vertex -1.75581 8.82707 1
      vertex -1.56072 7.84628 1
      vertex 0 9 1
    endloop
  endfacet
  facet normal 0 0 1
    outer loop
      vertex -1.75581 8.82707 1
      vertex -3.06147 7.39104 1
      vertex -1.56072 7.84628 1
    endloop
  endfacet
  facet normal -0 0 1
    outer loop
      vertex -3.44415 8.31492 1
      vertex -3.06147 7.39104 1
      vertex -1.75581 8.82707 1
    endloop
  endfacet
  facet normal 0 0 1
    outer loop
      vertex -3.44415 8.31492 1
      vertex -4.44456 6.65176 1
      vertex -3.06147 7.39104 1
    endloop
  endfacet
  facet normal -0 0 1
    outer loop
      vertex -5.00013 7.48323 1
      vertex -4.44456 6.65176 1
      vertex -3.44415 8.31492 1
    endloop
  endfacet
  facet normal 0 0 1
    outer loop
      vertex -5.00013 7.48323 1
      vertex -5.65685 5.65685 1
      vertex -4.44456 6.65176 1
    endloop
  endfacet
  facet normal -0 0 1
    outer loop
      vertex -6.36396 6.36396 1
      vertex -5.65685 5.65685 1
      vertex -5.00013 7.48323 1
    endloop
  endfacet
  facet normal 0 0 1
    outer loop
      vertex -6.36396 6.36396 1
      vertex -6.65176 4.44456 1
      vertex -5.65685 5.65685 1
    endloop
  endfacet
  facet normal -0 0 1
    outer loop
      vertex -7.48323 5.00013 1
      vertex -6.65176 4.44456 1
      vertex -6.36396 6.36396 1
    endloop
  endfacet
  facet normal 0 0 1
    outer loop
      vertex -6.65176 4.44456 1
      vertex -7.48323 5.00013 1
      vertex -7.39104 3.06147 1
    endloop
  endfacet
  facet normal -0 0 1
    outer loop
      vertex -8.31492 3.44415 1
      vertex -7.39104 3.06147 1
      vertex -7.48323 5.00013 1
    endloop
  endfacet
  facet normal -0 0 1
    outer loop
      vertex -8.82707 1.75581 1
      vertex -7.84628 1.56072 1
      vertex -8.31492 3.44415 1
    endloop
  endfacet
  facet normal 0 0 1
    outer loop
      vertex -7.39104 3.06147 1
      vertex -8.31492 3.44415 1
      vertex -7.84628 1.56072 1
    endloop
  endfacet
  facet normal 0 0 1
    outer loop
      vertex 8.82707 -1.75581 1
      vertex 7.84628 -1.56072 1
      vertex 8.31492 -3.44415 1
    endloop
  endfacet
  facet normal -0 0 1
    outer loop
      vertex 7.39104 -3.06147 1
      vertex 8.31492 -3.44415 1
      vertex 7.84628 -1.56072 1
    endloop
  endfacet
  facet normal 0 0 1
    outer loop
      vertex 8.31492 -3.44415 1
      vertex 7.39104 -3.06147 1
      vertex 7.48323 -5.00013 1
    endloop
  endfacet
  facet normal -0 0 1
    outer loop
      vertex 6.65176 -4.44456 1
      vertex 7.48323 -5.00013 1
      vertex 7.39104 -3.06147 1
    endloop
  endfacet
  facet normal 0 0 1
    outer loop
      vertex 6.65176 -4.44456 1
      vertex 6.36396 -6.36396 1
      vertex 7.48323 -5.00013 1
    endloop
  endfacet
  facet normal -0 0 1
    outer loop
      vertex 5.65685 -5.65685 1
      vertex 6.36396 -6.36396 1
      vertex 6.65176 -4.44456 1
    endloop
  endfacet
  facet normal 0 0 1
    outer loop
      vertex 5.65685 -5.65685 1
      vertex 5.00013 -7.48323 1
      vertex 6.36396 -6.36396 1
    endloop
  endfacet
  facet normal -0 0 1
    outer loop
      vertex 4.44456 -6.65176 1
      vertex 5.00013 -7.48323 1
      vertex 5.65685 -5.65685 1
    endloop
  endfacet
  facet normal 0 0 1
    outer loop
      vertex 4.44456 -6.65176 1
      vertex 3.44415 -8.31492 1
      vertex 5.00013 -7.48323 1
    endloop
  endfacet
  facet normal -0 0 1
    outer loop
      vertex 3.06147 -7.39104 1
      vertex 3.44415 -8.31492 1
      vertex 4.44456 -6.65176 1
    endloop
  endfacet
  facet normal 0 0 1
    outer loop
      vertex 3.06147 -7.39104 1
      vertex 1.75581 -8.82707 1
      vertex 3.44415 -8.31492 1
    endloop
  endfacet
  facet normal -0 0 1
    outer loop
      vertex 1.56072 -7.84628 1
      vertex 1.75581 -8.82707 1
      vertex 3.06147 -7.39104 1
    endloop
  endfacet
  facet normal -0 0 1
    outer loop
      vertex 0 -8 1
      vertex 1.75581 -8.82707 1
      vertex 1.56072 -7.84628 1
    endloop
  endfacet
  facet normal 0 0 1
    outer loop
      vertex 0 -8 1
      vertex 0 -9 1
      vertex 1.75581 -8.82707 1
    endloop
  endfacet
  facet normal 0 0 1
    outer loop
      vertex -1.56072 -7.84628 1
      vertex 0 -9 1
      vertex 0 -8 1
    endloop
  endfacet
  facet normal 0 0 1
    outer loop
      vertex -1.56072 -7.84628 1
      vertex -1.75581 -8.82707 1
      vertex 0 -9 1
    endloop
  endfacet
  facet normal 0 0 1
    outer loop
      vertex -3.06147 -7.39104 1
      vertex -1.75581 -8.82707 1
      vertex -1.56072 -7.84628 1
    endloop
  endfacet
  facet normal 0 0 1
    outer loop
      vertex -3.06147 -7.39104 1
      vertex -3.44415 -8.31492 1
      vertex -1.75581 -8.82707 1
    endloop
  endfacet
  facet normal 0 0 1
    outer loop
      vertex -4.44456 -6.65176 1
      vertex -3.44415 -8.31492 1
      vertex -3.06147 -7.39104 1
    endloop
  endfacet
  facet normal 0 0 1
    outer loop
      vertex -4.44456 -6.65176 1
      vertex -5.00013 -7.48323 1
      vertex -3.44415 -8.31492 1
    endloop
  endfacet
  facet normal 0 0 1
    outer loop
      vertex -5.65685 -5.65685 1
      vertex -5.00013 -7.48323 1
      vertex -4.44456 -6.65176 1
    endloop
  endfacet
  facet normal 0 0 1
    outer loop
      vertex -5.65685 -5.65685 1
      vertex -6.36396 -6.36396 1
      vertex -5.00013 -7.48323 1
    endloop
  endfacet
  facet normal 0 0 1
    outer loop
      vertex -6.65176 -4.44456 1
      vertex -6.36396 -6.36396 1
      vertex -5.65685 -5.65685 1
    endloop
  endfacet
  facet normal 0 0 1
    outer loop
      vertex -7.48323 -5.00013 1
      vertex -6.65176 -4.44456 1
      vertex -7.39104 -3.06147 1
    endloop
  endfacet
  facet normal 0 0 1
    outer loop
      vertex -6.65176 -4.44456 1
      vertex -7.48323 -5.00013 1
      vertex -6.36396 -6.36396 1
    endloop
  endfacet
  facet normal 0 0 1
    outer loop
      vertex -8.31492 -3.44415 1
      vertex -7.39104 -3.06147 1
      vertex -7.84628 -1.56072 1
    endloop
  endfacet
  facet normal 0 0 1
    outer loop
      vertex -7.39104 -3.06147 1
      vertex -8.31492 -3.44415 1
      vertex -7.48323 -5.00013 1
    endloop
  endfacet
  facet normal 0 0 1
    outer loop
      vertex -8.82707 -1.75581 1
      vertex -7.84628 -1.56072 1
      vertex -8 0 1
    endloop
  endfacet
  facet normal 0 0 1
    outer loop
      vertex -7.84628 1.56072 1
      vertex -8.82707 1.75581 1
      vertex -8 0 1
    endloop
  endfacet
  facet normal 0 0 1
    outer loop
      vertex -9 0 1
      vertex -8 0 1
      vertex -8.82707 1.75581 1
    endloop
  endfacet
  facet normal 0 0 1
    outer loop
      vertex -7.84628 -1.56072 1
      vertex -8.82707 -1.75581 1
      vertex -8.31492 -3.44415 1
    endloop
  endfacet
  facet normal 0 0 1
    outer loop
      vertex -8 0 1
      vertex -9 0 1
      vertex -8.82707 -1.75581 1
    endloop
  endfacet
  facet normal -0.881921 -0.471397 0
    outer loop
      vertex 8.31492 3.44415 1
      vertex 7.48323 5.00013 2
      vertex 7.48323 5.00013 1
    endloop
  endfacet
  facet normal -0.881921 -0.471397 0
    outer loop
      vertex 7.48323 5.00013 2
      vertex 8.31492 3.44415 1
      vertex 8.31492 3.44415 2
    endloop
  endfacet
  facet normal -0.95694 -0.290285 0
    outer loop
      vertex 8.82707 1.75581 1
      vertex 8.31492 3.44415 2
      vertex 8.31492 3.44415 1
    endloop
  endfacet
  facet normal -0.95694 -0.290285 0
    outer loop
      vertex 8.31492 3.44415 2
      vertex 8.82707 1.75581 1
      vertex 8.82707 1.75581 2
    endloop
  endfacet
  facet normal -0.77301 -0.634393 0
    outer loop
      vertex 7.48323 5.00013 1
      vertex 6.36396 6.36396 2
      vertex 6.36396 6.36396 1
    endloop
  endfacet
  facet normal -0.77301 -0.634393 0
    outer loop
      vertex 6.36396 6.36396 2
      vertex 7.48323 5.00013 1
      vertex 7.48323 5.00013 2
    endloop
  endfacet
  facet normal -0.290285 -0.95694 0
    outer loop
      vertex 1.75581 8.82707 1
      vertex 3.44415 8.31492 2
      vertex 1.75581 8.82707 2
    endloop
  endfacet
  facet normal -0.290285 -0.95694 -0
    outer loop
      vertex 3.44415 8.31492 2
      vertex 1.75581 8.82707 1
      vertex 3.44415 8.31492 1
    endloop
  endfacet
  facet normal 0.881921 -0.471397 0
    outer loop
      vertex -8.31492 3.44415 2
      vertex -7.48323 5.00013 1
      vertex -7.48323 5.00013 2
    endloop
  endfacet
  facet normal 0.881921 -0.471397 0
    outer loop
      vertex -7.48323 5.00013 1
      vertex -8.31492 3.44415 2
      vertex -8.31492 3.44415 1
    endloop
  endfacet
  facet normal 0.77301 -0.634393 0
    outer loop
      vertex -7.48323 5.00013 2
      vertex -6.36396 6.36396 1
      vertex -6.36396 6.36396 2
    endloop
  endfacet
  facet normal 0.77301 -0.634393 0
    outer loop
      vertex -6.36396 6.36396 1
      vertex -7.48323 5.00013 2
      vertex -7.48323 5.00013 1
    endloop
  endfacet
  facet normal 0.95694 -0.290285 0
    outer loop
      vertex -8.82707 1.75581 2
      vertex -8.31492 3.44415 1
      vertex -8.31492 3.44415 2
    endloop
  endfacet
  facet normal 0.95694 -0.290285 0
    outer loop
      vertex -8.31492 3.44415 1
      vertex -8.82707 1.75581 2
      vertex -8.82707 1.75581 1
    endloop
  endfacet
  facet normal 0.471397 -0.881921 0
    outer loop
      vertex -5.00013 7.48323 1
      vertex -3.44415 8.31492 2
      vertex -5.00013 7.48323 2
    endloop
  endfacet
  facet normal 0.471397 -0.881921 0
    outer loop
      vertex -3.44415 8.31492 2
      vertex -5.00013 7.48323 1
      vertex -3.44415 8.31492 1
    endloop
  endfacet
  facet normal 0.0980172 -0.995185 0
    outer loop
      vertex -1.75581 8.82707 1
      vertex 0 9 2
      vertex -1.75581 8.82707 2
    endloop
  endfacet
  facet normal 0.0980172 -0.995185 0
    outer loop
      vertex 0 9 2
      vertex -1.75581 8.82707 1
      vertex 0 9 1
    endloop
  endfacet
  facet normal -0.0980172 0.995185 0
    outer loop
      vertex 1.75581 -8.82707 1
      vertex 0 -9 2
      vertex 1.75581 -8.82707 2
    endloop
  endfacet
  facet normal -0.0980172 0.995185 0
    outer loop
      vertex 0 -9 2
      vertex 1.75581 -8.82707 1
      vertex 0 -9 1
    endloop
  endfacet
  facet normal -0.77301 0.634393 0
    outer loop
      vertex 6.36396 -6.36396 1
      vertex 7.48323 -5.00013 2
      vertex 7.48323 -5.00013 1
    endloop
  endfacet
  facet normal -0.77301 0.634393 0
    outer loop
      vertex 7.48323 -5.00013 2
      vertex 6.36396 -6.36396 1
      vertex 6.36396 -6.36396 2
    endloop
  endfacet
  facet normal -0.471397 0.881921 0
    outer loop
      vertex 5.00013 -7.48323 1
      vertex 3.44415 -8.31492 2
      vertex 5.00013 -7.48323 2
    endloop
  endfacet
  facet normal -0.471397 0.881921 0
    outer loop
      vertex 3.44415 -8.31492 2
      vertex 5.00013 -7.48323 1
      vertex 3.44415 -8.31492 1
    endloop
  endfacet
  facet normal 0.634393 0.77301 -0
    outer loop
      vertex -5.00013 -7.48323 1
      vertex -6.36396 -6.36396 2
      vertex -5.00013 -7.48323 2
    endloop
  endfacet
  facet normal 0.634393 0.77301 0
    outer loop
      vertex -6.36396 -6.36396 2
      vertex -5.00013 -7.48323 1
      vertex -6.36396 -6.36396 1
    endloop
  endfacet
  facet normal 0.290285 0.95694 -0
    outer loop
      vertex -1.75581 -8.82707 1
      vertex -3.44415 -8.31492 2
      vertex -1.75581 -8.82707 2
    endloop
  endfacet
  facet normal 0.290285 0.95694 0
    outer loop
      vertex -3.44415 -8.31492 2
      vertex -1.75581 -8.82707 1
      vertex -3.44415 -8.31492 1
    endloop
  endfacet
  facet normal 0.881921 0.471397 0
    outer loop
      vertex -7.48323 -5.00013 2
      vertex -8.31492 -3.44415 1
      vertex -8.31492 -3.44415 2
    endloop
  endfacet
  facet normal 0.881921 0.471397 0
    outer loop
      vertex -8.31492 -3.44415 1
      vertex -7.48323 -5.00013 2
      vertex -7.48323 -5.00013 1
    endloop
  endfacet
  facet normal 0.77301 0.634393 0
    outer loop
      vertex -6.36396 -6.36396 2
      vertex -7.48323 -5.00013 1
      vertex -7.48323 -5.00013 2
    endloop
  endfacet
  facet normal 0.77301 0.634393 0
    outer loop
      vertex -7.48323 -5.00013 1
      vertex -6.36396 -6.36396 2
      vertex -6.36396 -6.36396 1
    endloop
  endfacet
  facet normal 0.995185 0.0980172 0
    outer loop
      vertex -8.82707 -1.75581 2
      vertex -9 0 1
      vertex -9 0 2
    endloop
  endfacet
  facet normal 0.995185 0.0980172 0
    outer loop
      vertex -9 0 1
      vertex -8.82707 -1.75581 2
      vertex -8.82707 -1.75581 1
    endloop
  endfacet
  facet normal -0.290285 0.95694 0
    outer loop
      vertex 3.44415 -8.31492 1
      vertex 1.75581 -8.82707 2
      vertex 3.44415 -8.31492 2
    endloop
  endfacet
  facet normal -0.290285 0.95694 0
    outer loop
      vertex 1.75581 -8.82707 2
      vertex 3.44415 -8.31492 1
      vertex 1.75581 -8.82707 1
    endloop
  endfacet
  facet normal -0.634393 0.77301 0
    outer loop
      vertex 6.36396 -6.36396 1
      vertex 5.00013 -7.48323 2
      vertex 6.36396 -6.36396 2
    endloop
  endfacet
  facet normal -0.634393 0.77301 0
    outer loop
      vertex 5.00013 -7.48323 2
      vertex 6.36396 -6.36396 1
      vertex 5.00013 -7.48323 1
    endloop
  endfacet
  facet normal -0.95694 0.290285 0
    outer loop
      vertex 8.31492 -3.44415 1
      vertex 8.82707 -1.75581 2
      vertex 8.82707 -1.75581 1
    endloop
  endfacet
  facet normal -0.95694 0.290285 0
    outer loop
      vertex 8.82707 -1.75581 2
      vertex 8.31492 -3.44415 1
      vertex 8.31492 -3.44415 2
    endloop
  endfacet
  facet normal 0.471397 0.881921 -0
    outer loop
      vertex -3.44415 -8.31492 1
      vertex -5.00013 -7.48323 2
      vertex -3.44415 -8.31492 2
    endloop
  endfacet
  facet normal 0.471397 0.881921 0
    outer loop
      vertex -5.00013 -7.48323 2
      vertex -3.44415 -8.31492 1
      vertex -5.00013 -7.48323 1
    endloop
  endfacet
  facet normal 0.95694 0.290285 0
    outer loop
      vertex -8.31492 -3.44415 2
      vertex -8.82707 -1.75581 1
      vertex -8.82707 -1.75581 2
    endloop
  endfacet
  facet normal 0.95694 0.290285 0
    outer loop
      vertex -8.82707 -1.75581 1
      vertex -8.31492 -3.44415 2
      vertex -8.31492 -3.44415 1
    endloop
  endfacet
  facet normal -0.995185 0.0980172 0
    outer loop
      vertex 8.82707 -1.75581 1
      vertex 9 0 2
      vertex 9 0 1
    endloop
  endfacet
  facet normal -0.995185 0.0980172 0
    outer loop
      vertex 9 0 2
      vertex 8.82707 -1.75581 1
      vertex 8.82707 -1.75581 2
    endloop
  endfacet
  facet normal 0.634393 0.773011 -0
    outer loop
      vertex 5.65685 5.65685 1
      vertex 4.44456 6.65176 2
      vertex 5.65685 5.65685 2
    endloop
  endfacet
  facet normal 0.634393 0.773011 0
    outer loop
      vertex 4.44456 6.65176 2
      vertex 5.65685 5.65685 1
      vertex 4.44456 6.65176 1
    endloop
  endfacet
  facet normal -0.290285 -0.95694 0
    outer loop
      vertex -3.06147 -7.39104 1
      vertex -1.56072 -7.84628 2
      vertex -3.06147 -7.39104 2
    endloop
  endfacet
  facet normal -0.290285 -0.95694 -0
    outer loop
      vertex -1.56072 -7.84628 2
      vertex -3.06147 -7.39104 1
      vertex -1.56072 -7.84628 1
    endloop
  endfacet
  facet normal 0.95694 0.290285 0
    outer loop
      vertex 7.84628 1.56072 2
      vertex 7.39104 3.06147 1
      vertex 7.39104 3.06147 2
    endloop
  endfacet
  facet normal 0.95694 0.290285 0
    outer loop
      vertex 7.39104 3.06147 1
      vertex 7.84628 1.56072 2
      vertex 7.84628 1.56072 1
    endloop
  endfacet
  facet normal -0.290285 0.95694 0
    outer loop
      vertex -1.56072 7.84628 1
      vertex -3.06147 7.39104 2
      vertex -1.56072 7.84628 2
    endloop
  endfacet
  facet normal -0.290285 0.95694 0
    outer loop
      vertex -3.06147 7.39104 2
      vertex -1.56072 7.84628 1
      vertex -3.06147 7.39104 1
    endloop
  endfacet
  facet normal -0.881921 0.471397 0
    outer loop
      vertex -7.39104 3.06147 1
      vertex -6.65176 4.44456 2
      vertex -6.65176 4.44456 1
    endloop
  endfacet
  facet normal -0.881921 0.471397 0
    outer loop
      vertex -6.65176 4.44456 2
      vertex -7.39104 3.06147 1
      vertex -7.39104 3.06147 2
    endloop
  endfacet
  facet normal -0.881921 -0.471397 0
    outer loop
      vertex -6.65176 -4.44456 1
      vertex -7.39104 -3.06147 2
      vertex -7.39104 -3.06147 1
    endloop
  endfacet
  facet normal -0.881921 -0.471397 0
    outer loop
      vertex -7.39104 -3.06147 2
      vertex -6.65176 -4.44456 1
      vertex -6.65176 -4.44456 2
    endloop
  endfacet
  facet normal 0.881921 0.471397 0
    outer loop
      vertex 7.39104 3.06147 2
      vertex 6.65176 4.44456 1
      vertex 6.65176 4.44456 2
    endloop
  endfacet
  facet normal 0.881921 0.471397 0
    outer loop
      vertex 6.65176 4.44456 1
      vertex 7.39104 3.06147 2
      vertex 7.39104 3.06147 1
    endloop
  endfacet
  facet normal 0.773011 0.634393 0
    outer loop
      vertex 6.65176 4.44456 2
      vertex 5.65685 5.65685 1
      vertex 5.65685 5.65685 2
    endloop
  endfacet
  facet normal 0.773011 0.634393 0
    outer loop
      vertex 5.65685 5.65685 1
      vertex 6.65176 4.44456 2
      vertex 6.65176 4.44456 1
    endloop
  endfacet
  facet normal 0.471397 0.881921 -0
    outer loop
      vertex 4.44456 6.65176 1
      vertex 3.06147 7.39104 2
      vertex 4.44456 6.65176 2
    endloop
  endfacet
  facet normal 0.471397 0.881921 0
    outer loop
      vertex 3.06147 7.39104 2
      vertex 4.44456 6.65176 1
      vertex 3.06147 7.39104 1
    endloop
  endfacet
  facet normal 0.0980173 0.995185 -0
    outer loop
      vertex 1.56072 7.84628 1
      vertex 0 8 2
      vertex 1.56072 7.84628 2
    endloop
  endfacet
  facet normal 0.0980173 0.995185 0
    outer loop
      vertex 0 8 2
      vertex 1.56072 7.84628 1
      vertex 0 8 1
    endloop
  endfacet
  facet normal -0.995185 0.0980173 0
    outer loop
      vertex -8 0 1
      vertex -7.84628 1.56072 2
      vertex -7.84628 1.56072 1
    endloop
  endfacet
  facet normal -0.995185 0.0980173 0
    outer loop
      vertex -7.84628 1.56072 2
      vertex -8 0 1
      vertex -8 0 2
    endloop
  endfacet
  facet normal -0.773011 0.634393 0
    outer loop
      vertex -6.65176 4.44456 1
      vertex -5.65685 5.65685 2
      vertex -5.65685 5.65685 1
    endloop
  endfacet
  facet normal -0.773011 0.634393 0
    outer loop
      vertex -5.65685 5.65685 2
      vertex -6.65176 4.44456 1
      vertex -6.65176 4.44456 2
    endloop
  endfacet
  facet normal -0.471397 0.881921 0
    outer loop
      vertex -3.06147 7.39104 1
      vertex -4.44456 6.65176 2
      vertex -3.06147 7.39104 2
    endloop
  endfacet
  facet normal -0.471397 0.881921 0
    outer loop
      vertex -4.44456 6.65176 2
      vertex -3.06147 7.39104 1
      vertex -4.44456 6.65176 1
    endloop
  endfacet
  facet normal -0.0980173 0.995185 0
    outer loop
      vertex 0 8 1
      vertex -1.56072 7.84628 2
      vertex 0 8 2
    endloop
  endfacet
  facet normal -0.0980173 0.995185 0
    outer loop
      vertex -1.56072 7.84628 2
      vertex 0 8 1
      vertex -1.56072 7.84628 1
    endloop
  endfacet
  facet normal -0.634393 0.773011 0
    outer loop
      vertex -4.44456 6.65176 1
      vertex -5.65685 5.65685 2
      vertex -4.44456 6.65176 2
    endloop
  endfacet
  facet normal -0.634393 0.773011 0
    outer loop
      vertex -5.65685 5.65685 2
      vertex -4.44456 6.65176 1
      vertex -5.65685 5.65685 1
    endloop
  endfacet
  facet normal 0.995185 0.0980173 0
    outer loop
      vertex 8 0 2
      vertex 7.84628 1.56072 1
      vertex 7.84628 1.56072 2
    endloop
  endfacet
  facet normal 0.995185 0.0980173 0
    outer loop
      vertex 7.84628 1.56072 1
      vertex 8 0 2
      vertex 8 0 1
    endloop
  endfacet
  facet normal 0.0980173 -0.995185 0
    outer loop
      vertex 0 -8 1
      vertex 1.56072 -7.84628 2
      vertex 0 -8 2
    endloop
  endfacet
  facet normal 0.0980173 -0.995185 0
    outer loop
      vertex 1.56072 -7.84628 2
      vertex 0 -8 1
      vertex 1.56072 -7.84628 1
    endloop
  endfacet
  facet normal 0.290285 -0.95694 0
    outer loop
      vertex 1.56072 -7.84628 1
      vertex 3.06147 -7.39104 2
      vertex 1.56072 -7.84628 2
    endloop
  endfacet
  facet normal 0.290285 -0.95694 0
    outer loop
      vertex 3.06147 -7.39104 2
      vertex 1.56072 -7.84628 1
      vertex 3.06147 -7.39104 1
    endloop
  endfacet
  facet normal 0.471397 -0.881921 0
    outer loop
      vertex 3.06147 -7.39104 1
      vertex 4.44456 -6.65176 2
      vertex 3.06147 -7.39104 2
    endloop
  endfacet
  facet normal 0.471397 -0.881921 0
    outer loop
      vertex 4.44456 -6.65176 2
      vertex 3.06147 -7.39104 1
      vertex 4.44456 -6.65176 1
    endloop
  endfacet
  facet normal 0.773011 -0.634393 0
    outer loop
      vertex 5.65685 -5.65685 2
      vertex 6.65176 -4.44456 1
      vertex 6.65176 -4.44456 2
    endloop
  endfacet
  facet normal 0.773011 -0.634393 0
    outer loop
      vertex 6.65176 -4.44456 1
      vertex 5.65685 -5.65685 2
      vertex 5.65685 -5.65685 1
    endloop
  endfacet
  facet normal -0.0980173 -0.995185 0
    outer loop
      vertex -1.56072 -7.84628 1
      vertex 0 -8 2
      vertex -1.56072 -7.84628 2
    endloop
  endfacet
  facet normal -0.0980173 -0.995185 -0
    outer loop
      vertex 0 -8 2
      vertex -1.56072 -7.84628 1
      vertex 0 -8 1
    endloop
  endfacet
  facet normal -0.471397 -0.881921 0
    outer loop
      vertex -4.44456 -6.65176 1
      vertex -3.06147 -7.39104 2
      vertex -4.44456 -6.65176 2
    endloop
  endfacet
  facet normal -0.471397 -0.881921 -0
    outer loop
      vertex -3.06147 -7.39104 2
      vertex -4.44456 -6.65176 1
      vertex -3.06147 -7.39104 1
    endloop
  endfacet
  facet normal -0.634393 -0.773011 0
    outer loop
      vertex -5.65685 -5.65685 1
      vertex -4.44456 -6.65176 2
      vertex -5.65685 -5.65685 2
    endloop
  endfacet
  facet normal -0.634393 -0.773011 -0
    outer loop
      vertex -4.44456 -6.65176 2
      vertex -5.65685 -5.65685 1
      vertex -4.44456 -6.65176 1
    endloop
  endfacet
  facet normal -0.995185 -0.0980173 0
    outer loop
      vertex -7.84628 -1.56072 1
      vertex -8 0 2
      vertex -8 0 1
    endloop
  endfacet
  facet normal -0.995185 -0.0980173 0
    outer loop
      vertex -8 0 2
      vertex -7.84628 -1.56072 1
      vertex -7.84628 -1.56072 2
    endloop
  endfacet
  facet normal 0.290285 0.95694 -0
    outer loop
      vertex 3.06147 7.39104 1
      vertex 1.56072 7.84628 2
      vertex 3.06147 7.39104 2
    endloop
  endfacet
  facet normal 0.290285 0.95694 0
    outer loop
      vertex 1.56072 7.84628 2
      vertex 3.06147 7.39104 1
      vertex 1.56072 7.84628 1
    endloop
  endfacet
  facet normal -0.95694 0.290285 0
    outer loop
      vertex -7.84628 1.56072 1
      vertex -7.39104 3.06147 2
      vertex -7.39104 3.06147 1
    endloop
  endfacet
  facet normal -0.95694 0.290285 0
    outer loop
      vertex -7.39104 3.06147 2
      vertex -7.84628 1.56072 1
      vertex -7.84628 1.56072 2
    endloop
  endfacet
  facet normal 0.995185 -0.0980173 0
    outer loop
      vertex 7.84628 -1.56072 2
      vertex 8 0 1
      vertex 8 0 2
    endloop
  endfacet
  facet normal 0.995185 -0.0980173 0
    outer loop
      vertex 8 0 1
      vertex 7.84628 -1.56072 2
      vertex 7.84628 -1.56072 1
    endloop
  endfacet
  facet normal 0.95694 -0.290285 0
    outer loop
      vertex 7.39104 -3.06147 2
      vertex 7.84628 -1.56072 1
      vertex 7.84628 -1.56072 2
    endloop
  endfacet
  facet normal 0.95694 -0.290285 0
    outer loop
      vertex 7.84628 -1.56072 1
      vertex 7.39104 -3.06147 2
      vertex 7.39104 -3.06147 1
    endloop
  endfacet
  facet normal 0.634393 -0.773011 0
    outer loop
      vertex 4.44456 -6.65176 1
      vertex 5.65685 -5.65685 2
      vertex 4.44456 -6.65176 2
    endloop
  endfacet
  facet normal 0.634393 -0.773011 0
    outer loop
      vertex 5.65685 -5.65685 2
      vertex 4.44456 -6.65176 1
      vertex 5.65685 -5.65685 1
    endloop
  endfacet
  facet normal 0.881921 -0.471397 0
    outer loop
      vertex 6.65176 -4.44456 2
      vertex 7.39104 -3.06147 1
      vertex 7.39104 -3.06147 2
    endloop
  endfacet
  facet normal 0.881921 -0.471397 0
    outer loop
      vertex 7.39104 -3.06147 1
      vertex 6.65176 -4.44456 2
      vertex 6.65176 -4.44456 1
    endloop
  endfacet
  facet normal -0.95694 -0.290285 0
    outer loop
      vertex -7.39104 -3.06147 1
      vertex -7.84628 -1.56072 2
      vertex -7.84628 -1.56072 1
    endloop
  endfacet
  facet normal -0.95694 -0.290285 0
    outer loop
      vertex -7.84628 -1.56072 2
      vertex -7.39104 -3.06147 1
      vertex -7.39104 -3.06147 2
    endloop
  endfacet
  facet normal -0.773011 -0.634393 0
    outer loop
      vertex -5.65685 -5.65685 1
      vertex -6.65176 -4.44456 2
      vertex -6.65176 -4.44456 1
    endloop
  endfacet
  facet normal -0.773011 -0.634393 0
    outer loop
      vertex -6.65176 -4.44456 2
      vertex -5.65685 -5.65685 1
      vertex -5.65685 -5.65685 2
    endloop
  endfacet
  facet normal 0.634393 0.773011 -0
    outer loop
      vertex 7.07107 7.07107 -2
      vertex 5.5557 8.3147 2
      vertex 7.07107 7.07107 2
    endloop
  endfacet
  facet normal 0.634393 0.773011 0
    outer loop
      vertex 5.5557 8.3147 2
      vertex 7.07107 7.07107 -2
      vertex 5.5557 8.3147 -2
    endloop
  endfacet
  facet normal 0.995185 -0.0980172 0
    outer loop
      vertex 9.80785 -1.9509 2
      vertex 10 0 -2
      vertex 10 0 2
    endloop
  endfacet
  facet normal 0.995185 -0.0980172 0
    outer loop
      vertex 10 0 -2
      vertex 9.80785 -1.9509 2
      vertex 9.80785 -1.9509 -2
    endloop
  endfacet
  facet normal -0.290285 -0.95694 0
    outer loop
      vertex -3.82683 -9.2388 -2
      vertex -1.9509 -9.80785 2
      vertex -3.82683 -9.2388 2
    endloop
  endfacet
  facet normal -0.290285 -0.95694 -0
    outer loop
      vertex -1.9509 -9.80785 2
      vertex -3.82683 -9.2388 -2
      vertex -1.9509 -9.80785 -2
    endloop
  endfacet
  facet normal 0.95694 0.290285 0
    outer loop
      vertex 9.80785 1.9509 2
      vertex 9.2388 3.82683 -2
      vertex 9.2388 3.82683 2
    endloop
  endfacet
  facet normal 0.95694 0.290285 0
    outer loop
      vertex 9.2388 3.82683 -2
      vertex 9.80785 1.9509 2
      vertex 9.80785 1.9509 -2
    endloop
  endfacet
  facet normal -0.290285 0.95694 0
    outer loop
      vertex -1.9509 9.80785 -2
      vertex -3.82683 9.2388 2
      vertex -1.9509 9.80785 2
    endloop
  endfacet
  facet normal -0.290285 0.95694 0
    outer loop
      vertex -3.82683 9.2388 2
      vertex -1.9509 9.80785 -2
      vertex -3.82683 9.2388 -2
    endloop
  endfacet
  facet normal -0.881921 0.471397 0
    outer loop
      vertex -9.2388 3.82683 -2
      vertex -8.3147 5.5557 2
      vertex -8.3147 5.5557 -2
    endloop
  endfacet
  facet normal -0.881921 0.471397 0
    outer loop
      vertex -8.3147 5.5557 2
      vertex -9.2388 3.82683 -2
      vertex -9.2388 3.82683 2
    endloop
  endfacet
  facet normal 0.634393 -0.773011 0
    outer loop
      vertex 5.5557 -8.3147 -2
      vertex 7.07107 -7.07107 2
      vertex 5.5557 -8.3147 2
    endloop
  endfacet
  facet normal 0.634393 -0.773011 0
    outer loop
      vertex 7.07107 -7.07107 2
      vertex 5.5557 -8.3147 -2
      vertex 7.07107 -7.07107 -2
    endloop
  endfacet
  facet normal 0.881921 0.471397 0
    outer loop
      vertex 9.2388 3.82683 2
      vertex 8.3147 5.5557 -2
      vertex 8.3147 5.5557 2
    endloop
  endfacet
  facet normal 0.881921 0.471397 0
    outer loop
      vertex 8.3147 5.5557 -2
      vertex 9.2388 3.82683 2
      vertex 9.2388 3.82683 -2
    endloop
  endfacet
  facet normal 0.773011 0.634393 0
    outer loop
      vertex 8.3147 5.5557 2
      vertex 7.07107 7.07107 -2
      vertex 7.07107 7.07107 2
    endloop
  endfacet
  facet normal 0.773011 0.634393 0
    outer loop
      vertex 7.07107 7.07107 -2
      vertex 8.3147 5.5557 2
      vertex 8.3147 5.5557 -2
    endloop
  endfacet
  facet normal 0.471397 0.881921 -0
    outer loop
      vertex 5.5557 8.3147 -2
      vertex 3.82683 9.2388 2
      vertex 5.5557 8.3147 2
    endloop
  endfacet
  facet normal 0.471397 0.881921 0
    outer loop
      vertex 3.82683 9.2388 2
      vertex 5.5557 8.3147 -2
      vertex 3.82683 9.2388 -2
    endloop
  endfacet
  facet normal 0.0980172 0.995185 -0
    outer loop
      vertex 1.9509 9.80785 -2
      vertex 0 10 2
      vertex 1.9509 9.80785 2
    endloop
  endfacet
  facet normal 0.0980172 0.995185 0
    outer loop
      vertex 0 10 2
      vertex 1.9509 9.80785 -2
      vertex 0 10 -2
    endloop
  endfacet
  facet normal 0.290285 0.95694 -0
    outer loop
      vertex 3.82683 9.2388 -2
      vertex 1.9509 9.80785 2
      vertex 3.82683 9.2388 2
    endloop
  endfacet
  facet normal 0.290285 0.95694 0
    outer loop
      vertex 1.9509 9.80785 2
      vertex 3.82683 9.2388 -2
      vertex 1.9509 9.80785 -2
    endloop
  endfacet
  facet normal -0.995185 0.0980172 0
    outer loop
      vertex -10 0 -2
      vertex -9.80785 1.9509 2
      vertex -9.80785 1.9509 -2
    endloop
  endfacet
  facet normal -0.995185 0.0980172 0
    outer loop
      vertex -9.80785 1.9509 2
      vertex -10 0 -2
      vertex -10 0 2
    endloop
  endfacet
  facet normal -0.773011 0.634393 0
    outer loop
      vertex -8.3147 5.5557 -2
      vertex -7.07107 7.07107 2
      vertex -7.07107 7.07107 -2
    endloop
  endfacet
  facet normal -0.773011 0.634393 0
    outer loop
      vertex -7.07107 7.07107 2
      vertex -8.3147 5.5557 -2
      vertex -8.3147 5.5557 2
    endloop
  endfacet
  facet normal -0.471397 0.881921 0
    outer loop
      vertex -3.82683 9.2388 -2
      vertex -5.5557 8.3147 2
      vertex -3.82683 9.2388 2
    endloop
  endfacet
  facet normal -0.471397 0.881921 0
    outer loop
      vertex -5.5557 8.3147 2
      vertex -3.82683 9.2388 -2
      vertex -5.5557 8.3147 -2
    endloop
  endfacet
  facet normal -0.0980172 0.995185 0
    outer loop
      vertex 0 10 -2
      vertex -1.9509 9.80785 2
      vertex 0 10 2
    endloop
  endfacet
  facet normal -0.0980172 0.995185 0
    outer loop
      vertex -1.9509 9.80785 2
      vertex 0 10 -2
      vertex -1.9509 9.80785 -2
    endloop
  endfacet
  facet normal -0.634393 0.773011 0
    outer loop
      vertex -5.5557 8.3147 -2
      vertex -7.07107 7.07107 2
      vertex -5.5557 8.3147 2
    endloop
  endfacet
  facet normal -0.634393 0.773011 0
    outer loop
      vertex -7.07107 7.07107 2
      vertex -5.5557 8.3147 -2
      vertex -7.07107 7.07107 -2
    endloop
  endfacet
  facet normal 0.995185 0.0980172 0
    outer loop
      vertex 10 0 2
      vertex 9.80785 1.9509 -2
      vertex 9.80785 1.9509 2
    endloop
  endfacet
  facet normal 0.995185 0.0980172 0
    outer loop
      vertex 9.80785 1.9509 -2
      vertex 10 0 2
      vertex 10 0 -2
    endloop
  endfacet
  facet normal 0.0980172 -0.995185 0
    outer loop
      vertex 0 -10 -2
      vertex 1.9509 -9.80785 2
      vertex 0 -10 2
    endloop
  endfacet
  facet normal 0.0980172 -0.995185 0
    outer loop
      vertex 1.9509 -9.80785 2
      vertex 0 -10 -2
      vertex 1.9509 -9.80785 -2
    endloop
  endfacet
  facet normal 0.773011 -0.634393 0
    outer loop
      vertex 7.07107 -7.07107 2
      vertex 8.3147 -5.5557 -2
      vertex 8.3147 -5.5557 2
    endloop
  endfacet
  facet normal 0.773011 -0.634393 0
    outer loop
      vertex 8.3147 -5.5557 -2
      vertex 7.07107 -7.07107 2
      vertex 7.07107 -7.07107 -2
    endloop
  endfacet
  facet normal 0.95694 -0.290285 0
    outer loop
      vertex 9.2388 -3.82683 2
      vertex 9.80785 -1.9509 -2
      vertex 9.80785 -1.9509 2
    endloop
  endfacet
  facet normal 0.95694 -0.290285 0
    outer loop
      vertex 9.80785 -1.9509 -2
      vertex 9.2388 -3.82683 2
      vertex 9.2388 -3.82683 -2
    endloop
  endfacet
  facet normal 0.290285 -0.95694 0
    outer loop
      vertex 1.9509 -9.80785 -2
      vertex 3.82683 -9.2388 2
      vertex 1.9509 -9.80785 2
    endloop
  endfacet
  facet normal 0.290285 -0.95694 0
    outer loop
      vertex 3.82683 -9.2388 2
      vertex 1.9509 -9.80785 -2
      vertex 3.82683 -9.2388 -2
    endloop
  endfacet
  facet normal 0.471397 -0.881921 0
    outer loop
      vertex 3.82683 -9.2388 -2
      vertex 5.5557 -8.3147 2
      vertex 3.82683 -9.2388 2
    endloop
  endfacet
  facet normal 0.471397 -0.881921 0
    outer loop
      vertex 5.5557 -8.3147 2
      vertex 3.82683 -9.2388 -2
      vertex 5.5557 -8.3147 -2
    endloop
  endfacet
  facet normal -0.0980172 -0.995185 0
    outer loop
      vertex -1.9509 -9.80785 -2
      vertex 0 -10 2
      vertex -1.9509 -9.80785 2
    endloop
  endfacet
  facet normal -0.0980172 -0.995185 -0
    outer loop
      vertex 0 -10 2
      vertex -1.9509 -9.80785 -2
      vertex 0 -10 -2
    endloop
  endfacet
  facet normal -0.634393 -0.773011 0
    outer loop
      vertex -7.07107 -7.07107 -2
      vertex -5.5557 -8.3147 2
      vertex -7.07107 -7.07107 2
    endloop
  endfacet
  facet normal -0.634393 -0.773011 -0
    outer loop
      vertex -5.5557 -8.3147 2
      vertex -7.07107 -7.07107 -2
      vertex -5.5557 -8.3147 -2
    endloop
  endfacet
  facet normal -0.881921 -0.471397 0
    outer loop
      vertex -8.3147 -5.5557 -2
      vertex -9.2388 -3.82683 2
      vertex -9.2388 -3.82683 -2
    endloop
  endfacet
  facet normal -0.881921 -0.471397 0
    outer loop
      vertex -9.2388 -3.82683 2
      vertex -8.3147 -5.5557 -2
      vertex -8.3147 -5.5557 2
    endloop
  endfacet
  facet normal -0.995185 -0.0980172 0
    outer loop
      vertex -9.80785 -1.9509 -2
      vertex -10 0 2
      vertex -10 0 -2
    endloop
  endfacet
  facet normal -0.995185 -0.0980172 0
    outer loop
      vertex -10 0 2
      vertex -9.80785 -1.9509 -2
      vertex -9.80785 -1.9509 2
    endloop
  endfacet
  facet normal 0 0 -1
    outer loop
      vertex 9.80785 -1.9509 -2
      vertex 9.80785 1.9509 -2
      vertex 10 0 -2
    endloop
  endfacet
  facet normal 0 0 -1
    outer loop
      vertex 9.2388 -3.82683 -2
      vertex 9.80785 1.9509 -2
      vertex 9.80785 -1.9509 -2
    endloop
  endfacet
  facet normal 0 0 -1
    outer loop
      vertex 9.2388 -3.82683 -2
      vertex 9.2388 3.82683 -2
      vertex 9.80785 1.9509 -2
    endloop
  endfacet
  facet normal 0 0 -1
    outer loop
      vertex 8.3147 -5.5557 -2
      vertex 9.2388 3.82683 -2
      vertex 9.2388 -3.82683 -2
    endloop
  endfacet
  facet normal 0 0 -1
    outer loop
      vertex 8.3147 -5.5557 -2
      vertex 8.3147 5.5557 -2
      vertex 9.2388 3.82683 -2
    endloop
  endfacet
  facet normal 0 0 -1
    outer loop
      vertex 7.07107 -7.07107 -2
      vertex 8.3147 5.5557 -2
      vertex 8.3147 -5.5557 -2
    endloop
  endfacet
  facet normal 0 0 -1
    outer loop
      vertex 7.07107 -7.07107 -2
      vertex 7.07107 7.07107 -2
      vertex 8.3147 5.5557 -2
    endloop
  endfacet
  facet normal 0 0 -1
    outer loop
      vertex 5.5557 -8.3147 -2
      vertex 7.07107 7.07107 -2
      vertex 7.07107 -7.07107 -2
    endloop
  endfacet
  facet normal 0 0 -1
    outer loop
      vertex 5.5557 -8.3147 -2
      vertex 5.5557 8.3147 -2
      vertex 7.07107 7.07107 -2
    endloop
  endfacet
  facet normal 0 0 -1
    outer loop
      vertex 3.82683 -9.2388 -2
      vertex 5.5557 8.3147 -2
      vertex 5.5557 -8.3147 -2
    endloop
  endfacet
  facet normal 0 0 -1
    outer loop
      vertex 3.82683 -9.2388 -2
      vertex 3.82683 9.2388 -2
      vertex 5.5557 8.3147 -2
    endloop
  endfacet
  facet normal 0 0 -1
    outer loop
      vertex 1.9509 -9.80785 -2
      vertex 3.82683 9.2388 -2
      vertex 3.82683 -9.2388 -2
    endloop
  endfacet
  facet normal 0 0 -1
    outer loop
      vertex 1.9509 -9.80785 -2
      vertex 1.9509 9.80785 -2
      vertex 3.82683 9.2388 -2
    endloop
  endfacet
  facet normal 0 0 -1
    outer loop
      vertex 0 -10 -2
      vertex 1.9509 9.80785 -2
      vertex 1.9509 -9.80785 -2
    endloop
  endfacet
  facet normal 0 0 -1
    outer loop
      vertex 0 -10 -2
      vertex 0 10 -2
      vertex 1.9509 9.80785 -2
    endloop
  endfacet
  facet normal 0 0 -1
    outer loop
      vertex -1.9509 -9.80785 -2
      vertex 0 10 -2
      vertex 0 -10 -2
    endloop
  endfacet
  facet normal 0 0 -1
    outer loop
      vertex -1.9509 -9.80785 -2
      vertex -1.9509 9.80785 -2
      vertex 0 10 -2
    endloop
  endfacet
  facet normal 0 0 -1
    outer loop
      vertex -3.82683 -9.2388 -2
      vertex -1.9509 9.80785 -2
      vertex -1.9509 -9.80785 -2
    endloop
  endfacet
  facet normal 0 0 -1
    outer loop
      vertex -3.82683 -9.2388 -2
      vertex -3.82683 9.2388 -2
      vertex -1.9509 9.80785 -2
    endloop
  endfacet
  facet normal 0 0 -1
    outer loop
      vertex -5.5557 -8.3147 -2
      vertex -3.82683 9.2388 -2
      vertex -3.82683 -9.2388 -2
    endloop
  endfacet
  facet normal 0 0 -1
    outer loop
      vertex -5.5557 -8.3147 -2
      vertex -5.5557 8.3147 -2
      vertex -3.82683 9.2388 -2
    endloop
  endfacet
  facet normal 0 0 -1
    outer loop
      vertex -7.07107 -7.07107 -2
      vertex -5.5557 8.3147 -2
      vertex -5.5557 -8.3147 -2
    endloop
  endfacet
  facet normal 0 0 -1
    outer loop
      vertex -7.07107 -7.07107 -2
      vertex -7.07107 7.07107 -2
      vertex -5.5557 8.3147 -2
    endloop
  endfacet
  facet normal 0 0 -1
    outer loop
      vertex -8.3147 -5.5557 -2
      vertex -7.07107 7.07107 -2
      vertex -7.07107 -7.07107 -2
    endloop
  endfacet
  facet normal 0 0 -1
    outer loop
      vertex -8.3147 -5.5557 -2
      vertex -8.3147 5.5557 -2
      vertex -7.07107 7.07107 -2
    endloop
  endfacet
  facet normal 0 0 -1
    outer loop
      vertex -9.2388 -3.82683 -2
      vertex -8.3147 5.5557 -2
      vertex -8.3147 -5.5557 -2
    endloop
  endfacet
  facet normal 0 0 -1
    outer loop
      vertex -9.2388 -3.82683 -2
      vertex -9.2388 3.82683 -2
      vertex -8.3147 5.5557 -2
    endloop
  endfacet
  facet normal 0 0 -1
    outer loop
      vertex -9.80785 -1.9509 -2
      vertex -9.2388 3.82683 -2
      vertex -9.2388 -3.82683 -2
    endloop
  endfacet
  facet normal 0 0 -1
    outer loop
      vertex -9.80785 -1.9509 -2
      vertex -9.80785 1.9509 -2
      vertex -9.2388 3.82683 -2
    endloop
  endfacet
  facet normal 0 -0 -1
    outer loop
      vertex -9.80785 1.9509 -2
      vertex -9.80785 -1.9509 -2
      vertex -10 0 -2
    endloop
  endfacet
  facet normal 0 0 1
    outer loop
      vertex 9 0 2
      vertex 10 0 2
      vertex 9.80785 1.9509 2
    endloop
  endfacet
  facet normal 0 0 1
    outer loop
      vertex 8.82707 1.75581 2
      vertex 9.80785 1.9509 2
      vertex 9.2388 3.82683 2
    endloop
  endfacet
  facet normal 0 0 1
    outer loop
      vertex 10 0 2
      vertex 9 0 2
      vertex 9.80785 -1.9509 2
    endloop
  endfacet
  facet normal -0 0 1
    outer loop
      vertex 8.82707 -1.75581 2
      vertex 9.80785 -1.9509 2
      vertex 9 0 2
    endloop
  endfacet
  facet normal 0 0 1
    outer loop
      vertex 9.80785 1.9509 2
      vertex 8.82707 1.75581 2
      vertex 9 0 2
    endloop
  endfacet
  facet normal 0 0 1
    outer loop
      vertex 9.2388 3.82683 2
      vertex 8.31492 3.44415 2
      vertex 8.82707 1.75581 2
    endloop
  endfacet
  facet normal 0 0 1
    outer loop
      vertex 8.3147 5.5557 2
      vertex 8.31492 3.44415 2
      vertex 9.2388 3.82683 2
    endloop
  endfacet
  facet normal 0 0 1
    outer loop
      vertex 8.3147 5.5557 2
      vertex 7.48323 5.00013 2
      vertex 8.31492 3.44415 2
    endloop
  endfacet
  facet normal 0 0 1
    outer loop
      vertex 7.07107 7.07107 2
      vertex 7.48323 5.00013 2
      vertex 8.3147 5.5557 2
    endloop
  endfacet
  facet normal 0 0 1
    outer loop
      vertex 7.07107 7.07107 2
      vertex 6.36396 6.36396 2
      vertex 7.48323 5.00013 2
    endloop
  endfacet
  facet normal 0 0 1
    outer loop
      vertex 5.5557 8.3147 2
      vertex 6.36396 6.36396 2
      vertex 7.07107 7.07107 2
    endloop
  endfacet
  facet normal 0 0 1
    outer loop
      vertex 5.5557 8.3147 2
      vertex 5.00013 7.48323 2
      vertex 6.36396 6.36396 2
    endloop
  endfacet
  facet normal 0 0 1
    outer loop
      vertex 3.82683 9.2388 2
      vertex 5.00013 7.48323 2
      vertex 5.5557 8.3147 2
    endloop
  endfacet
  facet normal 0 0 1
    outer loop
      vertex 3.82683 9.2388 2
      vertex 3.44415 8.31492 2
      vertex 5.00013 7.48323 2
    endloop
  endfacet
  facet normal 0 0 1
    outer loop
      vertex 1.9509 9.80785 2
      vertex 3.44415 8.31492 2
      vertex 3.82683 9.2388 2
    endloop
  endfacet
  facet normal 0 0 1
    outer loop
      vertex 1.9509 9.80785 2
      vertex 1.75581 8.82707 2
      vertex 3.44415 8.31492 2
    endloop
  endfacet
  facet normal 0 0 1
    outer loop
      vertex 0 10 2
      vertex 1.75581 8.82707 2
      vertex 1.9509 9.80785 2
    endloop
  endfacet
  facet normal 0 0 1
    outer loop
      vertex 0 10 2
      vertex 0 9 2
      vertex 1.75581 8.82707 2
    endloop
  endfacet
  facet normal 0 0 1
    outer loop
      vertex 0 10 2
      vertex -1.75581 8.82707 2
      vertex 0 9 2
    endloop
  endfacet
  facet normal -0 0 1
    outer loop
      vertex -1.9509 9.80785 2
      vertex -1.75581 8.82707 2
      vertex 0 10 2
    endloop
  endfacet
  facet normal 0 0 1
    outer loop
      vertex -1.9509 9.80785 2
      vertex -3.44415 8.31492 2
      vertex -1.75581 8.82707 2
    endloop
  endfacet
  facet normal -0 0 1
    outer loop
      vertex -3.82683 9.2388 2
      vertex -3.44415 8.31492 2
      vertex -1.9509 9.80785 2
    endloop
  endfacet
  facet normal 0 0 1
    outer loop
      vertex -3.82683 9.2388 2
      vertex -5.00013 7.48323 2
      vertex -3.44415 8.31492 2
    endloop
  endfacet
  facet normal -0 0 1
    outer loop
      vertex -5.5557 8.3147 2
      vertex -5.00013 7.48323 2
      vertex -3.82683 9.2388 2
    endloop
  endfacet
  facet normal 0 0 1
    outer loop
      vertex -5.5557 8.3147 2
      vertex -6.36396 6.36396 2
      vertex -5.00013 7.48323 2
    endloop
  endfacet
  facet normal -0 0 1
    outer loop
      vertex -7.07107 7.07107 2
      vertex -6.36396 6.36396 2
      vertex -5.5557 8.3147 2
    endloop
  endfacet
  facet normal 0 0 1
    outer loop
      vertex -7.07107 7.07107 2
      vertex -7.48323 5.00013 2
      vertex -6.36396 6.36396 2
    endloop
  endfacet
  facet normal -0 0 1
    outer loop
      vertex -8.3147 5.5557 2
      vertex -7.48323 5.00013 2
      vertex -7.07107 7.07107 2
    endloop
  endfacet
  facet normal 0 0 1
    outer loop
      vertex -8.3147 5.5557 2
      vertex -8.31492 3.44415 2
      vertex -7.48323 5.00013 2
    endloop
  endfacet
  facet normal -0 0 1
    outer loop
      vertex -9.2388 3.82683 2
      vertex -8.31492 3.44415 2
      vertex -8.3147 5.5557 2
    endloop
  endfacet
  facet normal -0 0 1
    outer loop
      vertex -9.80785 1.9509 2
      vertex -8.82707 1.75581 2
      vertex -9.2388 3.82683 2
    endloop
  endfacet
  facet normal 0 0 1
    outer loop
      vertex -8.31492 3.44415 2
      vertex -9.2388 3.82683 2
      vertex -8.82707 1.75581 2
    endloop
  endfacet
  facet normal 0 0 1
    outer loop
      vertex 9.80785 -1.9509 2
      vertex 8.82707 -1.75581 2
      vertex 9.2388 -3.82683 2
    endloop
  endfacet
  facet normal -0 0 1
    outer loop
      vertex 8.31492 -3.44415 2
      vertex 9.2388 -3.82683 2
      vertex 8.82707 -1.75581 2
    endloop
  endfacet
  facet normal 0 0 1
    outer loop
      vertex 8.31492 -3.44415 2
      vertex 8.3147 -5.5557 2
      vertex 9.2388 -3.82683 2
    endloop
  endfacet
  facet normal -0 0 1
    outer loop
      vertex 7.48323 -5.00013 2
      vertex 8.3147 -5.5557 2
      vertex 8.31492 -3.44415 2
    endloop
  endfacet
  facet normal 0 0 1
    outer loop
      vertex 7.48323 -5.00013 2
      vertex 7.07107 -7.07107 2
      vertex 8.3147 -5.5557 2
    endloop
  endfacet
  facet normal -0 0 1
    outer loop
      vertex 6.36396 -6.36396 2
      vertex 7.07107 -7.07107 2
      vertex 7.48323 -5.00013 2
    endloop
  endfacet
  facet normal 0 0 1
    outer loop
      vertex 6.36396 -6.36396 2
      vertex 5.5557 -8.3147 2
      vertex 7.07107 -7.07107 2
    endloop
  endfacet
  facet normal -0 0 1
    outer loop
      vertex 5.00013 -7.48323 2
      vertex 5.5557 -8.3147 2
      vertex 6.36396 -6.36396 2
    endloop
  endfacet
  facet normal 0 0 1
    outer loop
      vertex 5.00013 -7.48323 2
      vertex 3.82683 -9.2388 2
      vertex 5.5557 -8.3147 2
    endloop
  endfacet
  facet normal -0 0 1
    outer loop
      vertex 3.44415 -8.31492 2
      vertex 3.82683 -9.2388 2
      vertex 5.00013 -7.48323 2
    endloop
  endfacet
  facet normal 0 0 1
    outer loop
      vertex 3.44415 -8.31492 2
      vertex 1.9509 -9.80785 2
      vertex 3.82683 -9.2388 2
    endloop
  endfacet
  facet normal -0 0 1
    outer loop
      vertex 1.75581 -8.82707 2
      vertex 1.9509 -9.80785 2
      vertex 3.44415 -8.31492 2
    endloop
  endfacet
  facet normal -0 0 1
    outer loop
      vertex 0 -9 2
      vertex 1.9509 -9.80785 2
      vertex 1.75581 -8.82707 2
    endloop
  endfacet
  facet normal 0 0 1
    outer loop
      vertex 0 -9 2
      vertex 0 -10 2
      vertex 1.9509 -9.80785 2
    endloop
  endfacet
  facet normal 0 0 1
    outer loop
      vertex -1.75581 -8.82707 2
      vertex 0 -10 2
      vertex 0 -9 2
    endloop
  endfacet
  facet normal 0 0 1
    outer loop
      vertex -1.75581 -8.82707 2
      vertex -1.9509 -9.80785 2
      vertex 0 -10 2
    endloop
  endfacet
  facet normal 0 0 1
    outer loop
      vertex -3.44415 -8.31492 2
      vertex -1.9509 -9.80785 2
      vertex -1.75581 -8.82707 2
    endloop
  endfacet
  facet normal 0 0 1
    outer loop
      vertex -3.44415 -8.31492 2
      vertex -3.82683 -9.2388 2
      vertex -1.9509 -9.80785 2
    endloop
  endfacet
  facet normal 0 0 1
    outer loop
      vertex -5.00013 -7.48323 2
      vertex -3.82683 -9.2388 2
      vertex -3.44415 -8.31492 2
    endloop
  endfacet
  facet normal 0 0 1
    outer loop
      vertex -5.00013 -7.48323 2
      vertex -5.5557 -8.3147 2
      vertex -3.82683 -9.2388 2
    endloop
  endfacet
  facet normal 0 0 1
    outer loop
      vertex -6.36396 -6.36396 2
      vertex -5.5557 -8.3147 2
      vertex -5.00013 -7.48323 2
    endloop
  endfacet
  facet normal 0 0 1
    outer loop
      vertex -6.36396 -6.36396 2
      vertex -7.07107 -7.07107 2
      vertex -5.5557 -8.3147 2
    endloop
  endfacet
  facet normal 0 0 1
    outer loop
      vertex -7.48323 -5.00013 2
      vertex -7.07107 -7.07107 2
      vertex -6.36396 -6.36396 2
    endloop
  endfacet
  facet normal 0 0 1
    outer loop
      vertex -7.48323 -5.00013 2
      vertex -8.3147 -5.5557 2
      vertex -7.07107 -7.07107 2
    endloop
  endfacet
  facet normal 0 0 1
    outer loop
      vertex -8.31492 -3.44415 2
      vertex -8.3147 -5.5557 2
      vertex -7.48323 -5.00013 2
    endloop
  endfacet
  facet normal 0 0 1
    outer loop
      vertex -9.2388 -3.82683 2
      vertex -8.31492 -3.44415 2
      vertex -8.82707 -1.75581 2
    endloop
  endfacet
  facet normal 0 0 1
    outer loop
      vertex -8.31492 -3.44415 2
      vertex -9.2388 -3.82683 2
      vertex -8.3147 -5.5557 2
    endloop
  endfacet
  facet normal 0 0 1
    outer loop
      vertex -9.80785 -1.9509 2
      vertex -8.82707 -1.75581 2
      vertex -9 0 2
    endloop
  endfacet
  facet normal 0 0 1
    outer loop
      vertex -8.82707 1.75581 2
      vertex -9.80785 1.9509 2
      vertex -9 0 2
    endloop
  endfacet
  facet normal 0 0 1
    outer loop
      vertex -10 0 2
      vertex -9 0 2
      vertex -9.80785 1.9509 2
    endloop
  endfacet
  facet normal 0 0 1
    outer loop
      vertex -8.82707 -1.75581 2
      vertex -9.80785 -1.9509 2
      vertex -9.2388 -3.82683 2
    endloop
  endfacet
  facet normal 0 0 1
    outer loop
      vertex -9 0 2
      vertex -10 0 2
      vertex -9.80785 -1.9509 2
    endloop
  endfacet
  facet normal 0 0 1
    outer loop
      vertex -0.270598 -0.653282 2
      vertex -0.293812 -2.55708 2
      vertex 0.399098 -2.27007 2
    endloop
  endfacet
  facet normal -0 0 1
    outer loop
      vertex -1.60037 -2.01589 2
      vertex -0.293812 -2.55708 2
      vertex -0.270598 -0.653282 2
    endloop
  endfacet
  facet normal -0 0 1
    outer loop
      vertex -2.06231 -2.20723 2
      vertex -0.293812 -2.55708 2
      vertex -1.60037 -2.01589 2
    endloop
  endfacet
  facet normal 0 -0 1
    outer loop
      vertex -1.60037 -2.01589 2
      vertex -0.270598 -0.653282 2
      vertex -1.88739 -1.32298 2
    endloop
  endfacet
  facet normal 0 0 1
    outer loop
      vertex 2.06231 2.20723 2
      vertex 0.10247 3.01902 2
      vertex 0.293812 2.55708 2
    endloop
  endfacet
  facet normal 0 0 1
    outer loop
      vertex 0 8 2
      vertex 0.10247 3.01902 2
      vertex 1.56072 7.84628 2
    endloop
  endfacet
  facet normal -0 0 1
    outer loop
      vertex -1.56072 7.84628 2
      vertex 0.10247 3.01902 2
      vertex 0 8 2
    endloop
  endfacet
  facet normal -0 0 1
    outer loop
      vertex -3.06147 7.39104 2
      vertex 0.10247 3.01902 2
      vertex -1.56072 7.84628 2
    endloop
  endfacet
  facet normal 0 0 1
    outer loop
      vertex -0.653282 0.270598 2
      vertex -2.55708 0.293812 2
      vertex -2.27007 -0.399098 2
    endloop
  endfacet
  facet normal 0 0 1
    outer loop
      vertex 0.10247 3.01902 2
      vertex -3.06147 7.39104 2
      vertex -2.20723 2.06231 2
    endloop
  endfacet
  facet normal -0 0 1
    outer loop
      vertex -4.44456 6.65176 2
      vertex -2.20723 2.06231 2
      vertex -3.06147 7.39104 2
    endloop
  endfacet
  facet normal -0 0 1
    outer loop
      vertex -5.65685 5.65685 2
      vertex -2.20723 2.06231 2
      vertex -4.44456 6.65176 2
    endloop
  endfacet
  facet normal 0 0 1
    outer loop
      vertex 2.55708 -0.293812 2
      vertex 2.01589 -1.60037 2
      vertex 2.20723 -2.06231 2
    endloop
  endfacet
  facet normal 0 0 1
    outer loop
      vertex 2.55708 -0.293812 2
      vertex 0.653282 -0.270598 2
      vertex 2.01589 -1.60037 2
    endloop
  endfacet
  facet normal 0 0 1
    outer loop
      vertex 2.01589 -1.60037 2
      vertex 0.653282 -0.270598 2
      vertex 1.32298 -1.88739 2
    endloop
  endfacet
  facet normal 0 0 1
    outer loop
      vertex 3.01902 -0.10247 2
      vertex 8 0 2
      vertex 7.84628 1.56072 2
    endloop
  endfacet
  facet normal 0 0 1
    outer loop
      vertex 3.01902 -0.10247 2
      vertex 7.84628 1.56072 2
      vertex 7.39104 3.06147 2
    endloop
  endfacet
  facet normal 0 0 1
    outer loop
      vertex 8 0 2
      vertex 3.01902 -0.10247 2
      vertex 7.84628 -1.56072 2
    endloop
  endfacet
  facet normal 0 0 1
    outer loop
      vertex 2.06231 2.20723 2
      vertex 7.39104 3.06147 2
      vertex 6.65176 4.44456 2
    endloop
  endfacet
  facet normal 0 0 1
    outer loop
      vertex 7.84628 -1.56072 2
      vertex 3.01902 -0.10247 2
      vertex 7.39104 -3.06147 2
    endloop
  endfacet
  facet normal 0 0 1
    outer loop
      vertex 2.06231 2.20723 2
      vertex 6.65176 4.44456 2
      vertex 5.65685 5.65685 2
    endloop
  endfacet
  facet normal -0 0 1
    outer loop
      vertex 2.20723 -2.06231 2
      vertex 7.39104 -3.06147 2
      vertex 3.01902 -0.10247 2
    endloop
  endfacet
  facet normal 0 0 1
    outer loop
      vertex 2.06231 2.20723 2
      vertex 5.65685 5.65685 2
      vertex 4.44456 6.65176 2
    endloop
  endfacet
  facet normal 0 0 1
    outer loop
      vertex 7.39104 -3.06147 2
      vertex 2.20723 -2.06231 2
      vertex 6.65176 -4.44456 2
    endloop
  endfacet
  facet normal 0 0 1
    outer loop
      vertex 2.06231 2.20723 2
      vertex 4.44456 6.65176 2
      vertex 3.06147 7.39104 2
    endloop
  endfacet
  facet normal 0 0 1
    outer loop
      vertex 6.65176 -4.44456 2
      vertex 2.20723 -2.06231 2
      vertex 5.65685 -5.65685 2
    endloop
  endfacet
  facet normal 0 0 1
    outer loop
      vertex 5.65685 -5.65685 2
      vertex 2.20723 -2.06231 2
      vertex 4.44456 -6.65176 2
    endloop
  endfacet
  facet normal 0 0 1
    outer loop
      vertex 7.39104 3.06147 2
      vertex 2.06231 2.20723 2
      vertex 3.01902 -0.10247 2
    endloop
  endfacet
  facet normal -0 0 1
    outer loop
      vertex 0.10247 3.01902 2
      vertex 2.06231 2.20723 2
      vertex 3.06147 7.39104 2
    endloop
  endfacet
  facet normal 0 0 1
    outer loop
      vertex 0.10247 3.01902 2
      vertex 3.06147 7.39104 2
      vertex 1.56072 7.84628 2
    endloop
  endfacet
  facet normal 0 0 1
    outer loop
      vertex 2.20723 -2.06231 2
      vertex 3.01902 -0.10247 2
      vertex 2.55708 -0.293812 2
    endloop
  endfacet
  facet normal -0 0 1
    outer loop
      vertex 0.653282 -0.270598 2
      vertex 2.55708 -0.293812 2
      vertex 2.27007 0.399098 2
    endloop
  endfacet
  facet normal 0 0 1
    outer loop
      vertex 4.44456 -6.65176 2
      vertex 2.20723 -2.06231 2
      vertex 3.06147 -7.39104 2
    endloop
  endfacet
  facet normal -0 0 1
    outer loop
      vertex -0.10247 -3.01902 2
      vertex 3.06147 -7.39104 2
      vertex 2.20723 -2.06231 2
    endloop
  endfacet
  facet normal 0 0 1
    outer loop
      vertex 3.06147 -7.39104 2
      vertex -0.10247 -3.01902 2
      vertex 1.56072 -7.84628 2
    endloop
  endfacet
  facet normal 0 0 1
    outer loop
      vertex 1.56072 -7.84628 2
      vertex -0.10247 -3.01902 2
      vertex 0 -8 2
    endloop
  endfacet
  facet normal 0 0 1
    outer loop
      vertex -1.56072 -7.84628 2
      vertex -0.10247 -3.01902 2
      vertex -0.293812 -2.55708 2
    endloop
  endfacet
  facet normal 0 0 1
    outer loop
      vertex -0.10247 -3.01902 2
      vertex -1.56072 -7.84628 2
      vertex 0 -8 2
    endloop
  endfacet
  facet normal 0 0 1
    outer loop
      vertex 2.06231 2.20723 2
      vertex 0.293812 2.55708 2
      vertex 1.60037 2.01589 2
    endloop
  endfacet
  facet normal 0 0 1
    outer loop
      vertex 0.270598 0.653282 2
      vertex 1.60037 2.01589 2
      vertex 0.293812 2.55708 2
    endloop
  endfacet
  facet normal 0 0 1
    outer loop
      vertex 1.60037 2.01589 2
      vertex 0.270598 0.653282 2
      vertex 1.88739 1.32298 2
    endloop
  endfacet
  facet normal 0 -0 1
    outer loop
      vertex 0.270598 0.653282 2
      vertex 0.293812 2.55708 2
      vertex -0.399098 2.27007 2
    endloop
  endfacet
  facet normal 0 0 1
    outer loop
      vertex -3.06147 -7.39104 2
      vertex -0.293812 -2.55708 2
      vertex -2.06231 -2.20723 2
    endloop
  endfacet
  facet normal 0 0 1
    outer loop
      vertex -7.39104 -3.06147 2
      vertex -2.06231 -2.20723 2
      vertex -3.01902 0.10247 2
    endloop
  endfacet
  facet normal 0 0 1
    outer loop
      vertex -0.293812 -2.55708 2
      vertex -3.06147 -7.39104 2
      vertex -1.56072 -7.84628 2
    endloop
  endfacet
  facet normal -0 0 1
    outer loop
      vertex -6.65176 4.44456 2
      vertex -2.20723 2.06231 2
      vertex -5.65685 5.65685 2
    endloop
  endfacet
  facet normal -0 0 1
    outer loop
      vertex -7.39104 3.06147 2
      vertex -2.20723 2.06231 2
      vertex -6.65176 4.44456 2
    endloop
  endfacet
  facet normal 0 0 1
    outer loop
      vertex -2.06231 -2.20723 2
      vertex -4.44456 -6.65176 2
      vertex -3.06147 -7.39104 2
    endloop
  endfacet
  facet normal 0 0 1
    outer loop
      vertex -2.20723 2.06231 2
      vertex -3.01902 0.10247 2
      vertex -2.55708 0.293812 2
    endloop
  endfacet
  facet normal 0 0 1
    outer loop
      vertex -2.06231 -2.20723 2
      vertex -5.65685 -5.65685 2
      vertex -4.44456 -6.65176 2
    endloop
  endfacet
  facet normal 0 0 1
    outer loop
      vertex -2.20723 2.06231 2
      vertex -7.39104 3.06147 2
      vertex -3.01902 0.10247 2
    endloop
  endfacet
  facet normal 0 0 1
    outer loop
      vertex -2.06231 -2.20723 2
      vertex -6.65176 -4.44456 2
      vertex -5.65685 -5.65685 2
    endloop
  endfacet
  facet normal -0 0 1
    outer loop
      vertex -7.84628 1.56072 2
      vertex -3.01902 0.10247 2
      vertex -7.39104 3.06147 2
    endloop
  endfacet
  facet normal 0 0 1
    outer loop
      vertex -2.06231 -2.20723 2
      vertex -7.39104 -3.06147 2
      vertex -6.65176 -4.44456 2
    endloop
  endfacet
  facet normal 0 0 1
    outer loop
      vertex -8 0 2
      vertex -3.01902 0.10247 2
      vertex -7.84628 1.56072 2
    endloop
  endfacet
  facet normal 0 0 1
    outer loop
      vertex -3.01902 0.10247 2
      vertex -7.84628 -1.56072 2
      vertex -7.39104 -3.06147 2
    endloop
  endfacet
  facet normal 0 0 1
    outer loop
      vertex -3.01902 0.10247 2
      vertex -8 0 2
      vertex -7.84628 -1.56072 2
    endloop
  endfacet
  facet normal -0 0 1
    outer loop
      vertex -2.01589 1.60037 2
      vertex -0.653282 0.270598 2
      vertex -1.32298 1.88739 2
    endloop
  endfacet
  facet normal -0 0 1
    outer loop
      vertex -2.55708 0.293812 2
      vertex -0.653282 0.270598 2
      vertex -2.01589 1.60037 2
    endloop
  endfacet
  facet normal 0 0 1
    outer loop
      vertex -2.55708 0.293812 2
      vertex -2.01589 1.60037 2
      vertex -2.20723 2.06231 2
    endloop
  endfacet
  facet normal -0.95694 0.290285 0
    outer loop
      vertex -9.80785 1.9509 -2
      vertex -9.2388 3.82683 2
      vertex -9.2388 3.82683 -2
    endloop
  endfacet
  facet normal -0.95694 0.290285 0
    outer loop
      vertex -9.2388 3.82683 2
      vertex -9.80785 1.9509 -2
      vertex -9.80785 1.9509 2
    endloop
  endfacet
  facet normal -0.471397 -0.881921 0
    outer loop
      vertex -5.5557 -8.3147 -2
      vertex -3.82683 -9.2388 2
      vertex -5.5557 -8.3147 2
    endloop
  endfacet
  facet normal -0.471397 -0.881921 -0
    outer loop
      vertex -3.82683 -9.2388 2
      vertex -5.5557 -8.3147 -2
      vertex -3.82683 -9.2388 -2
    endloop
  endfacet
  facet normal -0.95694 -0.290285 0
    outer loop
      vertex -9.2388 -3.82683 -2
      vertex -9.80785 -1.9509 2
      vertex -9.80785 -1.9509 -2
    endloop
  endfacet
  facet normal -0.95694 -0.290285 0
    outer loop
      vertex -9.80785 -1.9509 2
      vertex -9.2388 -3.82683 -2
      vertex -9.2388 -3.82683 2
    endloop
  endfacet
  facet normal -0.773011 -0.634393 0
    outer loop
      vertex -7.07107 -7.07107 -2
      vertex -8.3147 -5.5557 2
      vertex -8.3147 -5.5557 -2
    endloop
  endfacet
  facet normal -0.773011 -0.634393 0
    outer loop
      vertex -8.3147 -5.5557 2
      vertex -7.07107 -7.07107 -2
      vertex -7.07107 -7.07107 2
    endloop
  endfacet
  facet normal 0.881921 -0.471397 0
    outer loop
      vertex 8.3147 -5.5557 2
      vertex 9.2388 -3.82683 -2
      vertex 9.2388 -3.82683 2
    endloop
  endfacet
  facet normal 0.881921 -0.471397 0
    outer loop
      vertex 9.2388 -3.82683 -2
      vertex 8.3147 -5.5557 2
      vertex 8.3147 -5.5557 -2
    endloop
  endfacet
  facet normal 0 0 1
    outer loop
      vertex 2.06231 2.20723 1
      vertex 1.60037 2.01589 1
      vertex 1.88739 1.32298 1
    endloop
  endfacet
  facet normal 0 0 1
    outer loop
      vertex 3.01902 -0.10247 1
      vertex 2.27007 0.399098 1
      vertex 2.55708 -0.293812 1
    endloop
  endfacet
  facet normal 0 0 1
    outer loop
      vertex 2.06231 2.20723 1
      vertex 2.27007 0.399098 1
      vertex 3.01902 -0.10247 1
    endloop
  endfacet
  facet normal -0 0 1
    outer loop
      vertex 1.88739 1.32298 1
      vertex 2.27007 0.399098 1
      vertex 2.06231 2.20723 1
    endloop
  endfacet
  facet normal 0 0 1
    outer loop
      vertex 1.88739 1.32298 1
      vertex 0.653282 -0.270598 1
      vertex 2.27007 0.399098 1
    endloop
  endfacet
  facet normal -0 0 1
    outer loop
      vertex 0.270598 0.653282 1
      vertex 0.653282 -0.270598 1
      vertex 1.88739 1.32298 1
    endloop
  endfacet
  facet normal 0 0 1
    outer loop
      vertex -0.270598 -0.653282 1
      vertex 0.653282 -0.270598 1
      vertex 0.270598 0.653282 1
    endloop
  endfacet
  facet normal 0 0 1
    outer loop
      vertex 0.653282 -0.270598 1
      vertex -0.270598 -0.653282 1
      vertex 0.399098 -2.27007 1
    endloop
  endfacet
  facet normal 0 0 1
    outer loop
      vertex -0.653282 0.270598 1
      vertex 0.270598 0.653282 1
      vertex -0.399098 2.27007 1
    endloop
  endfacet
  facet normal 0 0 1
    outer loop
      vertex 0.270598 0.653282 1
      vertex -0.653282 0.270598 1
      vertex -0.270598 -0.653282 1
    endloop
  endfacet
  facet normal 0 0 1
    outer loop
      vertex -0.653282 0.270598 1
      vertex -1.88739 -1.32298 1
      vertex -0.270598 -0.653282 1
    endloop
  endfacet
  facet normal -0 0 1
    outer loop
      vertex -2.27007 -0.399098 1
      vertex -1.88739 -1.32298 1
      vertex -0.653282 0.270598 1
    endloop
  endfacet
  facet normal 0 0 1
    outer loop
      vertex -2.27007 -0.399098 1
      vertex -2.06231 -2.20723 1
      vertex -1.88739 -1.32298 1
    endloop
  endfacet
  facet normal -0 0 1
    outer loop
      vertex -3.01902 0.10247 1
      vertex -2.27007 -0.399098 1
      vertex -2.55708 0.293812 1
    endloop
  endfacet
  facet normal 0 0 1
    outer loop
      vertex -2.27007 -0.399098 1
      vertex -3.01902 0.10247 1
      vertex -2.06231 -2.20723 1
    endloop
  endfacet
  facet normal 0 0 1
    outer loop
      vertex 0.10247 3.01902 1
      vertex -0.399098 2.27007 1
      vertex 0.293812 2.55708 1
    endloop
  endfacet
  facet normal 0 0 1
    outer loop
      vertex -0.399098 2.27007 1
      vertex -1.32298 1.88739 1
      vertex -0.653282 0.270598 1
    endloop
  endfacet
  facet normal 0 0 1
    outer loop
      vertex 0.10247 3.01902 1
      vertex -1.32298 1.88739 1
      vertex -0.399098 2.27007 1
    endloop
  endfacet
  facet normal -0 0 1
    outer loop
      vertex -2.20723 2.06231 1
      vertex -1.32298 1.88739 1
      vertex 0.10247 3.01902 1
    endloop
  endfacet
  facet normal 0 0 1
    outer loop
      vertex -1.32298 1.88739 1
      vertex -2.20723 2.06231 1
      vertex -2.01589 1.60037 1
    endloop
  endfacet
  facet normal -0 0 1
    outer loop
      vertex 1.32298 -1.88739 1
      vertex 2.20723 -2.06231 1
      vertex 2.01589 -1.60037 1
    endloop
  endfacet
  facet normal 0 0 1
    outer loop
      vertex 0.399098 -2.27007 1
      vertex 1.32298 -1.88739 1
      vertex 0.653282 -0.270598 1
    endloop
  endfacet
  facet normal 0 0 1
    outer loop
      vertex 0.399098 -2.27007 1
      vertex 2.20723 -2.06231 1
      vertex 1.32298 -1.88739 1
    endloop
  endfacet
  facet normal -0 0 1
    outer loop
      vertex 0.399098 -2.27007 1
      vertex -0.10247 -3.01902 1
      vertex 2.20723 -2.06231 1
    endloop
  endfacet
  facet normal 0 -0 1
    outer loop
      vertex -0.10247 -3.01902 1
      vertex 0.399098 -2.27007 1
      vertex -0.293812 -2.55708 1
    endloop
  endfacet
  facet normal 0 0 1
    outer loop
      vertex -1.60037 -2.01589 1
      vertex -1.88739 -1.32298 1
      vertex -2.06231 -2.20723 1
    endloop
  endfacet
  facet normal -0.382683 0.92388 0
    outer loop
      vertex -0.270598 -0.653282 1
      vertex -1.88739 -1.32298 2
      vertex -0.270598 -0.653282 2
    endloop
  endfacet
  facet normal -0.382683 0.92388 0
    outer loop
      vertex -1.88739 -1.32298 2
      vertex -0.270598 -0.653282 1
      vertex -1.88739 -1.32298 1
    endloop
  endfacet
  facet normal -0.382683 0.92388 0
    outer loop
      vertex 2.27007 0.399098 1
      vertex 0.653282 -0.270598 2
      vertex 2.27007 0.399098 2
    endloop
  endfacet
  facet normal -0.382683 0.92388 0
    outer loop
      vertex 0.653282 -0.270598 2
      vertex 2.27007 0.399098 1
      vertex 0.653282 -0.270598 1
    endloop
  endfacet
  facet normal 0.382683 -0.92388 0
    outer loop
      vertex -2.27007 -0.399098 1
      vertex -0.653282 0.270598 2
      vertex -2.27007 -0.399098 2
    endloop
  endfacet
  facet normal 0.382683 -0.92388 0
    outer loop
      vertex -0.653282 0.270598 2
      vertex -2.27007 -0.399098 1
      vertex -0.653282 0.270598 1
    endloop
  endfacet
  facet normal 0.382683 -0.92388 0
    outer loop
      vertex 0.270598 0.653282 1
      vertex 1.88739 1.32298 2
      vertex 0.270598 0.653282 2
    endloop
  endfacet
  facet normal 0.382683 -0.92388 0
    outer loop
      vertex 1.88739 1.32298 2
      vertex 0.270598 0.653282 1
      vertex 1.88739 1.32298 1
    endloop
  endfacet
  facet normal 0.92388 0.382683 0
    outer loop
      vertex 0.399098 -2.27007 2
      vertex -0.270598 -0.653282 1
      vertex -0.270598 -0.653282 2
    endloop
  endfacet
  facet normal 0.92388 0.382683 0
    outer loop
      vertex -0.270598 -0.653282 1
      vertex 0.399098 -2.27007 2
      vertex 0.399098 -2.27007 1
    endloop
  endfacet
  facet normal 0.92388 0.382683 0
    outer loop
      vertex -0.653282 0.270598 2
      vertex -1.32298 1.88739 1
      vertex -1.32298 1.88739 2
    endloop
  endfacet
  facet normal 0.92388 0.382683 0
    outer loop
      vertex -1.32298 1.88739 1
      vertex -0.653282 0.270598 2
      vertex -0.653282 0.270598 1
    endloop
  endfacet
  facet normal -0.92388 -0.382683 0
    outer loop
      vertex 1.32298 -1.88739 1
      vertex 0.653282 -0.270598 2
      vertex 0.653282 -0.270598 1
    endloop
  endfacet
  facet normal -0.92388 -0.382683 0
    outer loop
      vertex 0.653282 -0.270598 2
      vertex 1.32298 -1.88739 1
      vertex 1.32298 -1.88739 2
    endloop
  endfacet
  facet normal -0.92388 -0.382683 0
    outer loop
      vertex 0.270598 0.653282 1
      vertex -0.399098 2.27007 2
      vertex -0.399098 2.27007 1
    endloop
  endfacet
  facet normal -0.92388 -0.382683 0
    outer loop
      vertex -0.399098 2.27007 2
      vertex 0.270598 0.653282 1
      vertex 0.270598 0.653282 2
    endloop
  endfacet
  facet normal 0.92388 0.382683 0
    outer loop
      vertex 2.55708 -0.293812 2
      vertex 2.27007 0.399098 1
      vertex 2.27007 0.399098 2
    endloop
  endfacet
  facet normal 0.92388 0.382683 0
    outer loop
      vertex 2.27007 0.399098 1
      vertex 2.55708 -0.293812 2
      vertex 2.55708 -0.293812 1
    endloop
  endfacet
  facet normal 0.923879 0.382684 0
    outer loop
      vertex 1.88739 1.32298 2
      vertex 1.60037 2.01589 1
      vertex 1.60037 2.01589 2
    endloop
  endfacet
  facet normal 0.923879 0.382684 0
    outer loop
      vertex 1.60037 2.01589 1
      vertex 1.88739 1.32298 2
      vertex 1.88739 1.32298 1
    endloop
  endfacet
  facet normal -0.92388 -0.382683 0
    outer loop
      vertex 3.01902 -0.10247 1
      vertex 2.06231 2.20723 2
      vertex 2.06231 2.20723 1
    endloop
  endfacet
  facet normal -0.92388 -0.382683 0
    outer loop
      vertex 2.06231 2.20723 2
      vertex 3.01902 -0.10247 1
      vertex 3.01902 -0.10247 2
    endloop
  endfacet
  facet normal -0.382683 0.92388 0
    outer loop
      vertex 3.01902 -0.10247 1
      vertex 2.55708 -0.293812 2
      vertex 3.01902 -0.10247 2
    endloop
  endfacet
  facet normal -0.382683 0.92388 0
    outer loop
      vertex 2.55708 -0.293812 2
      vertex 3.01902 -0.10247 1
      vertex 2.55708 -0.293812 1
    endloop
  endfacet
  facet normal 0.382684 -0.923879 0
    outer loop
      vertex 1.60037 2.01589 1
      vertex 2.06231 2.20723 2
      vertex 1.60037 2.01589 2
    endloop
  endfacet
  facet normal 0.382684 -0.923879 0
    outer loop
      vertex 2.06231 2.20723 2
      vertex 1.60037 2.01589 1
      vertex 2.06231 2.20723 1
    endloop
  endfacet
  facet normal 0.92388 0.382683 0
    outer loop
      vertex -2.06231 -2.20723 2
      vertex -3.01902 0.10247 1
      vertex -3.01902 0.10247 2
    endloop
  endfacet
  facet normal 0.92388 0.382683 0
    outer loop
      vertex -3.01902 0.10247 1
      vertex -2.06231 -2.20723 2
      vertex -2.06231 -2.20723 1
    endloop
  endfacet
  facet normal -0.923879 -0.382684 0
    outer loop
      vertex -1.60037 -2.01589 1
      vertex -1.88739 -1.32298 2
      vertex -1.88739 -1.32298 1
    endloop
  endfacet
  facet normal -0.923879 -0.382684 0
    outer loop
      vertex -1.88739 -1.32298 2
      vertex -1.60037 -2.01589 1
      vertex -1.60037 -2.01589 2
    endloop
  endfacet
  facet normal -0.92388 -0.382683 0
    outer loop
      vertex -2.27007 -0.399098 1
      vertex -2.55708 0.293812 2
      vertex -2.55708 0.293812 1
    endloop
  endfacet
  facet normal -0.92388 -0.382683 0
    outer loop
      vertex -2.55708 0.293812 2
      vertex -2.27007 -0.399098 1
      vertex -2.27007 -0.399098 2
    endloop
  endfacet
  facet normal 0.382683 -0.92388 0
    outer loop
      vertex -3.01902 0.10247 1
      vertex -2.55708 0.293812 2
      vertex -3.01902 0.10247 2
    endloop
  endfacet
  facet normal 0.382683 -0.92388 0
    outer loop
      vertex -2.55708 0.293812 2
      vertex -3.01902 0.10247 1
      vertex -2.55708 0.293812 1
    endloop
  endfacet
  facet normal -0.382684 0.923879 0
    outer loop
      vertex -1.60037 -2.01589 1
      vertex -2.06231 -2.20723 2
      vertex -1.60037 -2.01589 2
    endloop
  endfacet
  facet normal -0.382684 0.923879 0
    outer loop
      vertex -2.06231 -2.20723 2
      vertex -1.60037 -2.01589 1
      vertex -2.06231 -2.20723 1
    endloop
  endfacet
  facet normal 0.923879 0.382684 0
    outer loop
      vertex -2.01589 1.60037 2
      vertex -2.20723 2.06231 1
      vertex -2.20723 2.06231 2
    endloop
  endfacet
  facet normal 0.923879 0.382684 0
    outer loop
      vertex -2.20723 2.06231 1
      vertex -2.01589 1.60037 2
      vertex -2.01589 1.60037 1
    endloop
  endfacet
  facet normal -0.92388 -0.382683 0
    outer loop
      vertex 0.293812 2.55708 1
      vertex 0.10247 3.01902 2
      vertex 0.10247 3.01902 1
    endloop
  endfacet
  facet normal -0.92388 -0.382683 0
    outer loop
      vertex 0.10247 3.01902 2
      vertex 0.293812 2.55708 1
      vertex 0.293812 2.55708 2
    endloop
  endfacet
  facet normal -0.382684 0.923879 0
    outer loop
      vertex -1.32298 1.88739 1
      vertex -2.01589 1.60037 2
      vertex -1.32298 1.88739 2
    endloop
  endfacet
  facet normal -0.382684 0.923879 0
    outer loop
      vertex -2.01589 1.60037 2
      vertex -1.32298 1.88739 1
      vertex -2.01589 1.60037 1
    endloop
  endfacet
  facet normal -0.382683 0.92388 0
    outer loop
      vertex 0.293812 2.55708 1
      vertex -0.399098 2.27007 2
      vertex 0.293812 2.55708 2
    endloop
  endfacet
  facet normal -0.382683 0.92388 0
    outer loop
      vertex -0.399098 2.27007 2
      vertex 0.293812 2.55708 1
      vertex -0.399098 2.27007 1
    endloop
  endfacet
  facet normal 0.382683 -0.92388 0
    outer loop
      vertex -2.20723 2.06231 1
      vertex 0.10247 3.01902 2
      vertex -2.20723 2.06231 2
    endloop
  endfacet
  facet normal 0.382683 -0.92388 0
    outer loop
      vertex 0.10247 3.01902 2
      vertex -2.20723 2.06231 1
      vertex 0.10247 3.01902 1
    endloop
  endfacet
  facet normal 0.92388 0.382683 0
    outer loop
      vertex -0.10247 -3.01902 2
      vertex -0.293812 -2.55708 1
      vertex -0.293812 -2.55708 2
    endloop
  endfacet
  facet normal 0.92388 0.382683 0
    outer loop
      vertex -0.293812 -2.55708 1
      vertex -0.10247 -3.01902 2
      vertex -0.10247 -3.01902 1
    endloop
  endfacet
  facet normal -0.923879 -0.382684 0
    outer loop
      vertex 2.20723 -2.06231 1
      vertex 2.01589 -1.60037 2
      vertex 2.01589 -1.60037 1
    endloop
  endfacet
  facet normal -0.923879 -0.382684 0
    outer loop
      vertex 2.01589 -1.60037 2
      vertex 2.20723 -2.06231 1
      vertex 2.20723 -2.06231 2
    endloop
  endfacet
  facet normal -0.382683 0.92388 0
    outer loop
      vertex 2.20723 -2.06231 1
      vertex -0.10247 -3.01902 2
      vertex 2.20723 -2.06231 2
    endloop
  endfacet
  facet normal -0.382683 0.92388 0
    outer loop
      vertex -0.10247 -3.01902 2
      vertex 2.20723 -2.06231 1
      vertex -0.10247 -3.01902 1
    endloop
  endfacet
  facet normal 0.382684 -0.923879 0
    outer loop
      vertex 1.32298 -1.88739 1
      vertex 2.01589 -1.60037 2
      vertex 1.32298 -1.88739 2
    endloop
  endfacet
  facet normal 0.382684 -0.923879 0
    outer loop
      vertex 2.01589 -1.60037 2
      vertex 1.32298 -1.88739 1
      vertex 2.01589 -1.60037 1
    endloop
  endfacet
  facet normal 0.382683 -0.92388 0
    outer loop
      vertex -0.293812 -2.55708 1
      vertex 0.399098 -2.27007 2
      vertex -0.293812 -2.55708 2
    endloop
  endfacet
  facet normal 0.382683 -0.92388 0
    outer loop
      vertex 0.399098 -2.27007 2
      vertex -0.293812 -2.55708 1
      vertex 0.399098 -2.27007 1
    endloop
  endfacet
endsolid OpenSCAD_Model
