solid OpenSCAD_Model
  facet normal -0.995185 -0.0980172 0
    outer loop
      vertex 9 0 1
      vertex 8.82707 1.75581 2
      vertex 8.82707 1.75581 1
    endloop
  endfacet
  facet normal -0.995185 -0.0980172 0
    outer loop
      vertex 8.82707 1.75581 2
      vertex 9 0 1
      vertex 9 0 2
    endloop
  endfacet
  facet normal 0.995185 -0.0980172 0
    outer loop
      vertex -9 0 2
      vertex -8.82707 1.75581 1
      vertex -8.82707 1.75581 2
    endloop
  endfacet
  facet normal 0.995185 -0.0980172 0
    outer loop
      vertex -8.82707 1.75581 1
      vertex -9 0 2
      vertex -9 0 1
    endloop
  endfacet
  facet normal -0.0980172 -0.995185 0
    outer loop
      vertex 0 9 1
      vertex 1.75581 8.82707 2
      vertex 0 9 2
    endloop
  endfacet
  facet normal -0.0980172 -0.995185 -0
    outer loop
      vertex 1.75581 8.82707 2
      vertex 0 9 1
      vertex 1.75581 8.82707 1
    endloop
  endfacet
  facet normal 0.0980172 0.995185 -0
    outer loop
      vertex 0 -9 1
      vertex -1.75581 -8.82707 2
      vertex 0 -9 2
    endloop
  endfacet
  facet normal 0.0980172 0.995185 0
    outer loop
      vertex -1.75581 -8.82707 2
      vertex 0 -9 1
      vertex -1.75581 -8.82707 1
    endloop
  endfacet
  facet normal -0.634393 -0.77301 0
    outer loop
      vertex 5.00013 7.48323 1
      vertex 6.36396 6.36396 2
      vertex 5.00013 7.48323 2
    endloop
  endfacet
  facet normal -0.634393 -0.77301 -0
    outer loop
      vertex 6.36396 6.36396 2
      vertex 5.00013 7.48323 1
      vertex 6.36396 6.36396 1
    endloop
  endfacet
  facet normal -0.471397 -0.881921 0
    outer loop
      vertex 3.44415 8.31492 1
      vertex 5.00013 7.48323 2
      vertex 3.44415 8.31492 2
    endloop
  endfacet
  facet normal -0.471397 -0.881921 -0
    outer loop
      vertex 5.00013 7.48323 2
      vertex 3.44415 8.31492 1
      vertex 5.00013 7.48323 1
    endloop
  endfacet
  facet normal 0.634393 -0.77301 0
    outer loop
      vertex -6.36396 6.36396 1
      vertex -5.00013 7.48323 2
      vertex -6.36396 6.36396 2
    endloop
  endfacet
  facet normal 0.634393 -0.77301 0
    outer loop
      vertex -5.00013 7.48323 2
      vertex -6.36396 6.36396 1
      vertex -5.00013 7.48323 1
    endloop
  endfacet
  facet normal 0.290285 -0.95694 0
    outer loop
      vertex -3.44415 8.31492 1
      vertex -1.75581 8.82707 2
      vertex -3.44415 8.31492 2
    endloop
  endfacet
  facet normal 0.290285 -0.95694 0
    outer loop
      vertex -1.75581 8.82707 2
      vertex -3.44415 8.31492 1
      vertex -1.75581 8.82707 1
    endloop
  endfacet
  facet normal -0.881921 0.471397 0
    outer loop
      vertex 7.48323 -5.00013 1
      vertex 8.31492 -3.44415 2
      vertex 8.31492 -3.44415 1
    endloop
  endfacet
  facet normal -0.881921 0.471397 0
    outer loop
      vertex 8.31492 -3.44415 2
      vertex 7.48323 -5.00013 1
      vertex 7.48323 -5.00013 2
    endloop
  endfacet
  facet normal 0 0 1
    outer loop
      vertex 8 0 1
      vertex 9 0 1
      vertex 8.82707 1.75581 1
    endloop
  endfacet
  facet normal 0 0 1
    outer loop
      vertex 7.84628 1.56072 1
      vertex 8.82707 1.75581 1
      vertex 8.31492 3.44415 1
    endloop
  endfacet
  facet normal 0 0 1
    outer loop
      vertex 9 0 1
      vertex 8 0 1
      vertex 8.82707 -1.75581 1
    endloop
  endfacet
  facet normal -0 0 1
    outer loop
      vertex 7.84628 -1.56072 1
      vertex 8.82707 -1.75581 1
      vertex 8 0 1
    endloop
  endfacet
  facet normal 0 0 1
    outer loop
      vertex 8.82707 1.75581 1
      vertex 7.84628 1.56072 1
      vertex 8 0 1
    endloop
  endfacet
  facet normal 0 0 1
    outer loop
      vertex 7.39104 3.06147 1
      vertex 8.31492 3.44415 1
      vertex 7.48323 5.00013 1
    endloop
  endfacet
  facet normal 0 0 1
    outer loop
      vertex 8.31492 3.44415 1
      vertex 7.39104 3.06147 1
      vertex 7.84628 1.56072 1
    endloop
  endfacet
  facet normal 0 0 1
    outer loop
      vertex 7.48323 5.00013 1
      vertex 6.65176 4.44456 1
      vertex 7.39104 3.06147 1
    endloop
  endfacet
  facet normal 0 0 1
    outer loop
      vertex 6.36396 6.36396 1
      vertex 6.65176 4.44456 1
      vertex 7.48323 5.00013 1
    endloop
  endfacet
  facet normal 0 0 1
    outer loop
      vertex 6.36396 6.36396 1
      vertex 5.65685 5.65685 1
      vertex 6.65176 4.44456 1
    endloop
  endfacet
  facet normal 0 0 1
    outer loop
      vertex 5.00013 7.48323 1
      vertex 5.65685 5.65685 1
      vertex 6.36396 6.36396 1
    endloop
  endfacet
  facet normal 0 0 1
    outer loop
      vertex 5.00013 7.48323 1
      vertex 4.44456 6.65176 1
      vertex 5.65685 5.65685 1
    endloop
  endfacet
  facet normal 0 0 1
    outer loop
      vertex 3.44415 8.31492 1
      vertex 4.44456 6.65176 1
      vertex 5.00013 7.48323 1
    endloop
  endfacet
  facet normal 0 0 1
    outer loop
      vertex 3.44415 8.31492 1
      vertex 3.06147 7.39104 1
      vertex 4.44456 6.65176 1
    endloop
  endfacet
  facet normal 0 0 1
    outer loop
      vertex 1.75581 8.82707 1
      vertex 3.06147 7.39104 1
      vertex 3.44415 8.31492 1
    endloop
  endfacet
  facet normal 0 0 1
    outer loop
      vertex 1.75581 8.82707 1
      vertex 1.56072 7.84628 1
      vertex 3.06147 7.39104 1
    endloop
  endfacet
  facet normal 0 0 1
    outer loop
      vertex 0 9 1
      vertex 1.56072 7.84628 1
      vertex 1.75581 8.82707 1
    endloop
  endfacet
  facet normal 0 0 1
    outer loop
      vertex 0 9 1
      vertex 0 8 1
      vertex 1.56072 7.84628 1
    endloop
  endfacet
  facet normal 0 0 1
    outer loop
      vertex 0 9 1
      vertex -1.56072 7.84628 1
      vertex 0 8 1
    endloop
  endfacet
  facet normal -0 0 1
    outer loop
      vertex -1.75581 8.82707 1
      vertex -1.56072 7.84628 1
      vertex 0 9 1
    endloop
  endfacet
  facet normal 0 0 1
    outer loop
      vertex -1.75581 8.82707 1
      vertex -3.06147 7.39104 1
      vertex -1.56072 7.84628 1
    endloop
  endfacet
  facet normal -0 0 1
    outer loop
      vertex -3.44415 8.31492 1
      vertex -3.06147 7.39104 1
      vertex -1.75581 8.82707 1
    endloop
  endfacet
  facet normal 0 0 1
    outer loop
      vertex -3.44415 8.31492 1
      vertex -4.44456 6.65176 1
      vertex -3.06147 7.39104 1
    endloop
  endfacet
  facet normal -0 0 1
    outer loop
      vertex -5.00013 7.48323 1
      vertex -4.44456 6.65176 1
      vertex -3.44415 8.31492 1
    endloop
  endfacet
  facet normal 0 0 1
    outer loop
      vertex -5.00013 7.48323 1
      vertex -5.65685 5.65685 1
      vertex -4.44456 6.65176 1
    endloop
  endfacet
  facet normal -0 0 1
    outer loop
      vertex -6.36396 6.36396 1
      vertex -5.65685 5.65685 1
      vertex -5.00013 7.48323 1
    endloop
  endfacet
  facet normal 0 0 1
    outer loop
      vertex -6.36396 6.36396 1
      vertex -6.65176 4.44456 1
      vertex -5.65685 5.65685 1
    endloop
  endfacet
  facet normal -0 0 1
    outer loop
      vertex -7.48323 5.00013 1
      vertex -6.65176 4.44456 1
      vertex -6.36396 6.36396 1
    endloop
  endfacet
  facet normal 0 0 1
    outer loop
      vertex -6.65176 4.44456 1
      vertex -7.48323 5.00013 1
      vertex -7.39104 3.06147 1
    endloop
  endfacet
  facet normal -0 0 1
    outer loop
      vertex -8.31492 3.44415 1
      vertex -7.39104 3.06147 1
      vertex -7.48323 5.00013 1
    endloop
  endfacet
  facet normal -0 0 1
    outer loop
      vertex -8.82707 1.75581 1
      vertex -7.84628 1.56072 1
      vertex -8.31492 3.44415 1
    endloop
  endfacet
  facet normal 0 0 1
    outer loop
      vertex -7.39104 3.06147 1
      vertex -8.31492 3.44415 1
      vertex -7.84628 1.56072 1
    endloop
  endfacet
  facet normal 0 0 1
    outer loop
      vertex 8.82707 -1.75581 1
      vertex 7.84628 -1.56072 1
      vertex 8.31492 -3.44415 1
    endloop
  endfacet
  facet normal -0 0 1
    outer loop
      vertex 7.39104 -3.06147 1
      vertex 8.31492 -3.44415 1
      vertex 7.84628 -1.56072 1
    endloop
  endfacet
  facet normal 0 0 1
    outer loop
      vertex 8.31492 -3.44415 1
      vertex 7.39104 -3.06147 1
      vertex 7.48323 -5.00013 1
    endloop
  endfacet
  facet normal -0 0 1
    outer loop
      vertex 6.65176 -4.44456 1
      vertex 7.48323 -5.00013 1
      vertex 7.39104 -3.06147 1
    endloop
  endfacet
  facet normal 0 0 1
    outer loop
      vertex 6.65176 -4.44456 1
      vertex 6.36396 -6.36396 1
      vertex 7.48323 -5.00013 1
    endloop
  endfacet
  facet normal -0 0 1
    outer loop
      vertex 5.65685 -5.65685 1
      vertex 6.36396 -6.36396 1
      vertex 6.65176 -4.44456 1
    endloop
  endfacet
  facet normal 0 0 1
    outer loop
      vertex 5.65685 -5.65685 1
      vertex 5.00013 -7.48323 1
      vertex 6.36396 -6.36396 1
    endloop
  endfacet
  facet normal -0 0 1
    outer loop
      vertex 4.44456 -6.65176 1
      vertex 5.00013 -7.48323 1
      vertex 5.65685 -5.65685 1
    endloop
  endfacet
  facet normal 0 0 1
    outer loop
      vertex 4.44456 -6.65176 1
      vertex 3.44415 -8.31492 1
      vertex 5.00013 -7.48323 1
    endloop
  endfacet
  facet normal -0 0 1
    outer loop
      vertex 3.06147 -7.39104 1
      vertex 3.44415 -8.31492 1
      vertex 4.44456 -6.65176 1
    endloop
  endfacet
  facet normal 0 0 1
    outer loop
      vertex 3.06147 -7.39104 1
      vertex 1.75581 -8.82707 1
      vertex 3.44415 -8.31492 1
    endloop
  endfacet
  facet normal -0 0 1
    outer loop
      vertex 1.56072 -7.84628 1
      vertex 1.75581 -8.82707 1
      vertex 3.06147 -7.39104 1
    endloop
  endfacet
  facet normal -0 0 1
    outer loop
      vertex 0 -8 1
      vertex 1.75581 -8.82707 1
      vertex 1.56072 -7.84628 1
    endloop
  endfacet
  facet normal 0 0 1
    outer loop
      vertex 0 -8 1
      vertex 0 -9 1
      vertex 1.75581 -8.82707 1
    endloop
  endfacet
  facet normal 0 0 1
    outer loop
      vertex -1.56072 -7.84628 1
      vertex 0 -9 1
      vertex 0 -8 1
    endloop
  endfacet
  facet normal 0 0 1
    outer loop
      vertex -1.56072 -7.84628 1
      vertex -1.75581 -8.82707 1
      vertex 0 -9 1
    endloop
  endfacet
  facet normal 0 0 1
    outer loop
      vertex -3.06147 -7.39104 1
      vertex -1.75581 -8.82707 1
      vertex -1.56072 -7.84628 1
    endloop
  endfacet
  facet normal 0 0 1
    outer loop
      vertex -3.06147 -7.39104 1
      vertex -3.44415 -8.31492 1
      vertex -1.75581 -8.82707 1
    endloop
  endfacet
  facet normal 0 0 1
    outer loop
      vertex -4.44456 -6.65176 1
      vertex -3.44415 -8.31492 1
      vertex -3.06147 -7.39104 1
    endloop
  endfacet
  facet normal 0 0 1
    outer loop
      vertex -4.44456 -6.65176 1
      vertex -5.00013 -7.48323 1
      vertex -3.44415 -8.31492 1
    endloop
  endfacet
  facet normal 0 0 1
    outer loop
      vertex -5.65685 -5.65685 1
      vertex -5.00013 -7.48323 1
      vertex -4.44456 -6.65176 1
    endloop
  endfacet
  facet normal 0 0 1
    outer loop
      vertex -5.65685 -5.65685 1
      vertex -6.36396 -6.36396 1
      vertex -5.00013 -7.48323 1
    endloop
  endfacet
  facet normal 0 0 1
    outer loop
      vertex -6.65176 -4.44456 1
      vertex -6.36396 -6.36396 1
      vertex -5.65685 -5.65685 1
    endloop
  endfacet
  facet normal 0 0 1
    outer loop
      vertex -7.48323 -5.00013 1
      vertex -6.65176 -4.44456 1
      vertex -7.39104 -3.06147 1
    endloop
  endfacet
  facet normal 0 0 1
    outer loop
      vertex -6.65176 -4.44456 1
      vertex -7.48323 -5.00013 1
      vertex -6.36396 -6.36396 1
    endloop
  endfacet
  facet normal 0 0 1
    outer loop
      vertex -8.31492 -3.44415 1
      vertex -7.39104 -3.06147 1
      vertex -7.84628 -1.56072 1
    endloop
  endfacet
  facet normal 0 0 1
    outer loop
      vertex -7.39104 -3.06147 1
      vertex -8.31492 -3.44415 1
      vertex -7.48323 -5.00013 1
    endloop
  endfacet
  facet normal 0 0 1
    outer loop
      vertex -8.82707 -1.75581 1
      vertex -7.84628 -1.56072 1
      vertex -8 0 1
    endloop
  endfacet
  facet normal 0 0 1
    outer loop
      vertex -7.84628 1.56072 1
      vertex -8.82707 1.75581 1
      vertex -8 0 1
    endloop
  endfacet
  facet normal 0 0 1
    outer loop
      vertex -9 0 1
      vertex -8 0 1
      vertex -8.82707 1.75581 1
    endloop
  endfacet
  facet normal 0 0 1
    outer loop
      vertex -7.84628 -1.56072 1
      vertex -8.82707 -1.75581 1
      vertex -8.31492 -3.44415 1
    endloop
  endfacet
  facet normal 0 0 1
    outer loop
      vertex -8 0 1
      vertex -9 0 1
      vertex -8.82707 -1.75581 1
    endloop
  endfacet
  facet normal -0.881921 -0.471397 0
    outer loop
      vertex 8.31492 3.44415 1
      vertex 7.48323 5.00013 2
      vertex 7.48323 5.00013 1
    endloop
  endfacet
  facet normal -0.881921 -0.471397 0
    outer loop
      vertex 7.48323 5.00013 2
      vertex 8.31492 3.44415 1
      vertex 8.31492 3.44415 2
    endloop
  endfacet
  facet normal -0.95694 -0.290285 0
    outer loop
      vertex 8.82707 1.75581 1
      vertex 8.31492 3.44415 2
      vertex 8.31492 3.44415 1
    endloop
  endfacet
  facet normal -0.95694 -0.290285 0
    outer loop
      vertex 8.31492 3.44415 2
      vertex 8.82707 1.75581 1
      vertex 8.82707 1.75581 2
    endloop
  endfacet
  facet normal -0.77301 -0.634393 0
    outer loop
      vertex 7.48323 5.00013 1
      vertex 6.36396 6.36396 2
      vertex 6.36396 6.36396 1
    endloop
  endfacet
  facet normal -0.77301 -0.634393 0
    outer loop
      vertex 6.36396 6.36396 2
      vertex 7.48323 5.00013 1
      vertex 7.48323 5.00013 2
    endloop
  endfacet
  facet normal -0.290285 -0.95694 0
    outer loop
      vertex 1.75581 8.82707 1
      vertex 3.44415 8.31492 2
      vertex 1.75581 8.82707 2
    endloop
  endfacet
  facet normal -0.290285 -0.95694 -0
    outer loop
      vertex 3.44415 8.31492 2
      vertex 1.75581 8.82707 1
      vertex 3.44415 8.31492 1
    endloop
  endfacet
  facet normal 0.881921 -0.471397 0
    outer loop
      vertex -8.31492 3.44415 2
      vertex -7.48323 5.00013 1
      vertex -7.48323 5.00013 2
    endloop
  endfacet
  facet normal 0.881921 -0.471397 0
    outer loop
      vertex -7.48323 5.00013 1
      vertex -8.31492 3.44415 2
      vertex -8.31492 3.44415 1
    endloop
  endfacet
  facet normal 0.77301 -0.634393 0
    outer loop
      vertex -7.48323 5.00013 2
      vertex -6.36396 6.36396 1
      vertex -6.36396 6.36396 2
    endloop
  endfacet
  facet normal 0.77301 -0.634393 0
    outer loop
      vertex -6.36396 6.36396 1
      vertex -7.48323 5.00013 2
      vertex -7.48323 5.00013 1
    endloop
  endfacet
  facet normal 0.95694 -0.290285 0
    outer loop
      vertex -8.82707 1.75581 2
      vertex -8.31492 3.44415 1
      vertex -8.31492 3.44415 2
    endloop
  endfacet
  facet normal 0.95694 -0.290285 0
    outer loop
      vertex -8.31492 3.44415 1
      vertex -8.82707 1.75581 2
      vertex -8.82707 1.75581 1
    endloop
  endfacet
  facet normal 0.471397 -0.881921 0
    outer loop
      vertex -5.00013 7.48323 1
      vertex -3.44415 8.31492 2
      vertex -5.00013 7.48323 2
    endloop
  endfacet
  facet normal 0.471397 -0.881921 0
    outer loop
      vertex -3.44415 8.31492 2
      vertex -5.00013 7.48323 1
      vertex -3.44415 8.31492 1
    endloop
  endfacet
  facet normal 0.0980172 -0.995185 0
    outer loop
      vertex -1.75581 8.82707 1
      vertex 0 9 2
      vertex -1.75581 8.82707 2
    endloop
  endfacet
  facet normal 0.0980172 -0.995185 0
    outer loop
      vertex 0 9 2
      vertex -1.75581 8.82707 1
      vertex 0 9 1
    endloop
  endfacet
  facet normal -0.0980172 0.995185 0
    outer loop
      vertex 1.75581 -8.82707 1
      vertex 0 -9 2
      vertex 1.75581 -8.82707 2
    endloop
  endfacet
  facet normal -0.0980172 0.995185 0
    outer loop
      vertex 0 -9 2
      vertex 1.75581 -8.82707 1
      vertex 0 -9 1
    endloop
  endfacet
  facet normal -0.77301 0.634393 0
    outer loop
      vertex 6.36396 -6.36396 1
      vertex 7.48323 -5.00013 2
      vertex 7.48323 -5.00013 1
    endloop
  endfacet
  facet normal -0.77301 0.634393 0
    outer loop
      vertex 7.48323 -5.00013 2
      vertex 6.36396 -6.36396 1
      vertex 6.36396 -6.36396 2
    endloop
  endfacet
  facet normal -0.471397 0.881921 0
    outer loop
      vertex 5.00013 -7.48323 1
      vertex 3.44415 -8.31492 2
      vertex 5.00013 -7.48323 2
    endloop
  endfacet
  facet normal -0.471397 0.881921 0
    outer loop
      vertex 3.44415 -8.31492 2
      vertex 5.00013 -7.48323 1
      vertex 3.44415 -8.31492 1
    endloop
  endfacet
  facet normal 0.634393 0.77301 -0
    outer loop
      vertex -5.00013 -7.48323 1
      vertex -6.36396 -6.36396 2
      vertex -5.00013 -7.48323 2
    endloop
  endfacet
  facet normal 0.634393 0.77301 0
    outer loop
      vertex -6.36396 -6.36396 2
      vertex -5.00013 -7.48323 1
      vertex -6.36396 -6.36396 1
    endloop
  endfacet
  facet normal 0.290285 0.95694 -0
    outer loop
      vertex -1.75581 -8.82707 1
      vertex -3.44415 -8.31492 2
      vertex -1.75581 -8.82707 2
    endloop
  endfacet
  facet normal 0.290285 0.95694 0
    outer loop
      vertex -3.44415 -8.31492 2
      vertex -1.75581 -8.82707 1
      vertex -3.44415 -8.31492 1
    endloop
  endfacet
  facet normal 0.881921 0.471397 0
    outer loop
      vertex -7.48323 -5.00013 2
      vertex -8.31492 -3.44415 1
      vertex -8.31492 -3.44415 2
    endloop
  endfacet
  facet normal 0.881921 0.471397 0
    outer loop
      vertex -8.31492 -3.44415 1
      vertex -7.48323 -5.00013 2
      vertex -7.48323 -5.00013 1
    endloop
  endfacet
  facet normal 0.77301 0.634393 0
    outer loop
      vertex -6.36396 -6.36396 2
      vertex -7.48323 -5.00013 1
      vertex -7.48323 -5.00013 2
    endloop
  endfacet
  facet normal 0.77301 0.634393 0
    outer loop
      vertex -7.48323 -5.00013 1
      vertex -6.36396 -6.36396 2
      vertex -6.36396 -6.36396 1
    endloop
  endfacet
  facet normal 0.995185 0.0980172 0
    outer loop
      vertex -8.82707 -1.75581 2
      vertex -9 0 1
      vertex -9 0 2
    endloop
  endfacet
  facet normal 0.995185 0.0980172 0
    outer loop
      vertex -9 0 1
      vertex -8.82707 -1.75581 2
      vertex -8.82707 -1.75581 1
    endloop
  endfacet
  facet normal -0.290285 0.95694 0
    outer loop
      vertex 3.44415 -8.31492 1
      vertex 1.75581 -8.82707 2
      vertex 3.44415 -8.31492 2
    endloop
  endfacet
  facet normal -0.290285 0.95694 0
    outer loop
      vertex 1.75581 -8.82707 2
      vertex 3.44415 -8.31492 1
      vertex 1.75581 -8.82707 1
    endloop
  endfacet
  facet normal -0.634393 0.77301 0
    outer loop
      vertex 6.36396 -6.36396 1
      vertex 5.00013 -7.48323 2
      vertex 6.36396 -6.36396 2
    endloop
  endfacet
  facet normal -0.634393 0.77301 0
    outer loop
      vertex 5.00013 -7.48323 2
      vertex 6.36396 -6.36396 1
      vertex 5.00013 -7.48323 1
    endloop
  endfacet
  facet normal -0.95694 0.290285 0
    outer loop
      vertex 8.31492 -3.44415 1
      vertex 8.82707 -1.75581 2
      vertex 8.82707 -1.75581 1
    endloop
  endfacet
  facet normal -0.95694 0.290285 0
    outer loop
      vertex 8.82707 -1.75581 2
      vertex 8.31492 -3.44415 1
      vertex 8.31492 -3.44415 2
    endloop
  endfacet
  facet normal 0.471397 0.881921 -0
    outer loop
      vertex -3.44415 -8.31492 1
      vertex -5.00013 -7.48323 2
      vertex -3.44415 -8.31492 2
    endloop
  endfacet
  facet normal 0.471397 0.881921 0
    outer loop
      vertex -5.00013 -7.48323 2
      vertex -3.44415 -8.31492 1
      vertex -5.00013 -7.48323 1
    endloop
  endfacet
  facet normal 0.95694 0.290285 0
    outer loop
      vertex -8.31492 -3.44415 2
      vertex -8.82707 -1.75581 1
      vertex -8.82707 -1.75581 2
    endloop
  endfacet
  facet normal 0.95694 0.290285 0
    outer loop
      vertex -8.82707 -1.75581 1
      vertex -8.31492 -3.44415 2
      vertex -8.31492 -3.44415 1
    endloop
  endfacet
  facet normal -0.995185 0.0980172 0
    outer loop
      vertex 8.82707 -1.75581 1
      vertex 9 0 2
      vertex 9 0 1
    endloop
  endfacet
  facet normal -0.995185 0.0980172 0
    outer loop
      vertex 9 0 2
      vertex 8.82707 -1.75581 1
      vertex 8.82707 -1.75581 2
    endloop
  endfacet
  facet normal 0.634393 0.773011 -0
    outer loop
      vertex 5.65685 5.65685 1
      vertex 4.44456 6.65176 2
      vertex 5.65685 5.65685 2
    endloop
  endfacet
  facet normal 0.634393 0.773011 0
    outer loop
      vertex 4.44456 6.65176 2
      vertex 5.65685 5.65685 1
      vertex 4.44456 6.65176 1
    endloop
  endfacet
  facet normal -0.290285 -0.95694 0
    outer loop
      vertex -3.06147 -7.39104 1
      vertex -1.56072 -7.84628 2
      vertex -3.06147 -7.39104 2
    endloop
  endfacet
  facet normal -0.290285 -0.95694 -0
    outer loop
      vertex -1.56072 -7.84628 2
      vertex -3.06147 -7.39104 1
      vertex -1.56072 -7.84628 1
    endloop
  endfacet
  facet normal 0.95694 0.290285 0
    outer loop
      vertex 7.84628 1.56072 2
      vertex 7.39104 3.06147 1
      vertex 7.39104 3.06147 2
    endloop
  endfacet
  facet normal 0.95694 0.290285 0
    outer loop
      vertex 7.39104 3.06147 1
      vertex 7.84628 1.56072 2
      vertex 7.84628 1.56072 1
    endloop
  endfacet
  facet normal -0.290285 0.95694 0
    outer loop
      vertex -1.56072 7.84628 1
      vertex -3.06147 7.39104 2
      vertex -1.56072 7.84628 2
    endloop
  endfacet
  facet normal -0.290285 0.95694 0
    outer loop
      vertex -3.06147 7.39104 2
      vertex -1.56072 7.84628 1
      vertex -3.06147 7.39104 1
    endloop
  endfacet
  facet normal -0.881921 0.471397 0
    outer loop
      vertex -7.39104 3.06147 1
      vertex -6.65176 4.44456 2
      vertex -6.65176 4.44456 1
    endloop
  endfacet
  facet normal -0.881921 0.471397 0
    outer loop
      vertex -6.65176 4.44456 2
      vertex -7.39104 3.06147 1
      vertex -7.39104 3.06147 2
    endloop
  endfacet
  facet normal -0.881921 -0.471397 0
    outer loop
      vertex -6.65176 -4.44456 1
      vertex -7.39104 -3.06147 2
      vertex -7.39104 -3.06147 1
    endloop
  endfacet
  facet normal -0.881921 -0.471397 0
    outer loop
      vertex -7.39104 -3.06147 2
      vertex -6.65176 -4.44456 1
      vertex -6.65176 -4.44456 2
    endloop
  endfacet
  facet normal 0.881921 0.471397 0
    outer loop
      vertex 7.39104 3.06147 2
      vertex 6.65176 4.44456 1
      vertex 6.65176 4.44456 2
    endloop
  endfacet
  facet normal 0.881921 0.471397 0
    outer loop
      vertex 6.65176 4.44456 1
      vertex 7.39104 3.06147 2
      vertex 7.39104 3.06147 1
    endloop
  endfacet
  facet normal 0.773011 0.634393 0
    outer loop
      vertex 6.65176 4.44456 2
      vertex 5.65685 5.65685 1
      vertex 5.65685 5.65685 2
    endloop
  endfacet
  facet normal 0.773011 0.634393 0
    outer loop
      vertex 5.65685 5.65685 1
      vertex 6.65176 4.44456 2
      vertex 6.65176 4.44456 1
    endloop
  endfacet
  facet normal 0.471397 0.881921 -0
    outer loop
      vertex 4.44456 6.65176 1
      vertex 3.06147 7.39104 2
      vertex 4.44456 6.65176 2
    endloop
  endfacet
  facet normal 0.471397 0.881921 0
    outer loop
      vertex 3.06147 7.39104 2
      vertex 4.44456 6.65176 1
      vertex 3.06147 7.39104 1
    endloop
  endfacet
  facet normal 0.0980173 0.995185 -0
    outer loop
      vertex 1.56072 7.84628 1
      vertex 0 8 2
      vertex 1.56072 7.84628 2
    endloop
  endfacet
  facet normal 0.0980173 0.995185 0
    outer loop
      vertex 0 8 2
      vertex 1.56072 7.84628 1
      vertex 0 8 1
    endloop
  endfacet
  facet normal -0.995185 0.0980173 0
    outer loop
      vertex -8 0 1
      vertex -7.84628 1.56072 2
      vertex -7.84628 1.56072 1
    endloop
  endfacet
  facet normal -0.995185 0.0980173 0
    outer loop
      vertex -7.84628 1.56072 2
      vertex -8 0 1
      vertex -8 0 2
    endloop
  endfacet
  facet normal -0.773011 0.634393 0
    outer loop
      vertex -6.65176 4.44456 1
      vertex -5.65685 5.65685 2
      vertex -5.65685 5.65685 1
    endloop
  endfacet
  facet normal -0.773011 0.634393 0
    outer loop
      vertex -5.65685 5.65685 2
      vertex -6.65176 4.44456 1
      vertex -6.65176 4.44456 2
    endloop
  endfacet
  facet normal -0.471397 0.881921 0
    outer loop
      vertex -3.06147 7.39104 1
      vertex -4.44456 6.65176 2
      vertex -3.06147 7.39104 2
    endloop
  endfacet
  facet normal -0.471397 0.881921 0
    outer loop
      vertex -4.44456 6.65176 2
      vertex -3.06147 7.39104 1
      vertex -4.44456 6.65176 1
    endloop
  endfacet
  facet normal -0.0980173 0.995185 0
    outer loop
      vertex 0 8 1
      vertex -1.56072 7.84628 2
      vertex 0 8 2
    endloop
  endfacet
  facet normal -0.0980173 0.995185 0
    outer loop
      vertex -1.56072 7.84628 2
      vertex 0 8 1
      vertex -1.56072 7.84628 1
    endloop
  endfacet
  facet normal -0.634393 0.773011 0
    outer loop
      vertex -4.44456 6.65176 1
      vertex -5.65685 5.65685 2
      vertex -4.44456 6.65176 2
    endloop
  endfacet
  facet normal -0.634393 0.773011 0
    outer loop
      vertex -5.65685 5.65685 2
      vertex -4.44456 6.65176 1
      vertex -5.65685 5.65685 1
    endloop
  endfacet
  facet normal 0.995185 0.0980173 0
    outer loop
      vertex 8 0 2
      vertex 7.84628 1.56072 1
      vertex 7.84628 1.56072 2
    endloop
  endfacet
  facet normal 0.995185 0.0980173 0
    outer loop
      vertex 7.84628 1.56072 1
      vertex 8 0 2
      vertex 8 0 1
    endloop
  endfacet
  facet normal 0.0980173 -0.995185 0
    outer loop
      vertex 0 -8 1
      vertex 1.56072 -7.84628 2
      vertex 0 -8 2
    endloop
  endfacet
  facet normal 0.0980173 -0.995185 0
    outer loop
      vertex 1.56072 -7.84628 2
      vertex 0 -8 1
      vertex 1.56072 -7.84628 1
    endloop
  endfacet
  facet normal 0.290285 -0.95694 0
    outer loop
      vertex 1.56072 -7.84628 1
      vertex 3.06147 -7.39104 2
      vertex 1.56072 -7.84628 2
    endloop
  endfacet
  facet normal 0.290285 -0.95694 0
    outer loop
      vertex 3.06147 -7.39104 2
      vertex 1.56072 -7.84628 1
      vertex 3.06147 -7.39104 1
    endloop
  endfacet
  facet normal 0.471397 -0.881921 0
    outer loop
      vertex 3.06147 -7.39104 1
      vertex 4.44456 -6.65176 2
      vertex 3.06147 -7.39104 2
    endloop
  endfacet
  facet normal 0.471397 -0.881921 0
    outer loop
      vertex 4.44456 -6.65176 2
      vertex 3.06147 -7.39104 1
      vertex 4.44456 -6.65176 1
    endloop
  endfacet
  facet normal 0.773011 -0.634393 0
    outer loop
      vertex 5.65685 -5.65685 2
      vertex 6.65176 -4.44456 1
      vertex 6.65176 -4.44456 2
    endloop
  endfacet
  facet normal 0.773011 -0.634393 0
    outer loop
      vertex 6.65176 -4.44456 1
      vertex 5.65685 -5.65685 2
      vertex 5.65685 -5.65685 1
    endloop
  endfacet
  facet normal -0.0980173 -0.995185 0
    outer loop
      vertex -1.56072 -7.84628 1
      vertex 0 -8 2
      vertex -1.56072 -7.84628 2
    endloop
  endfacet
  facet normal -0.0980173 -0.995185 -0
    outer loop
      vertex 0 -8 2
      vertex -1.56072 -7.84628 1
      vertex 0 -8 1
    endloop
  endfacet
  facet normal -0.471397 -0.881921 0
    outer loop
      vertex -4.44456 -6.65176 1
      vertex -3.06147 -7.39104 2
      vertex -4.44456 -6.65176 2
    endloop
  endfacet
  facet normal -0.471397 -0.881921 -0
    outer loop
      vertex -3.06147 -7.39104 2
      vertex -4.44456 -6.65176 1
      vertex -3.06147 -7.39104 1
    endloop
  endfacet
  facet normal -0.634393 -0.773011 0
    outer loop
      vertex -5.65685 -5.65685 1
      vertex -4.44456 -6.65176 2
      vertex -5.65685 -5.65685 2
    endloop
  endfacet
  facet normal -0.634393 -0.773011 -0
    outer loop
      vertex -4.44456 -6.65176 2
      vertex -5.65685 -5.65685 1
      vertex -4.44456 -6.65176 1
    endloop
  endfacet
  facet normal -0.995185 -0.0980173 0
    outer loop
      vertex -7.84628 -1.56072 1
      vertex -8 0 2
      vertex -8 0 1
    endloop
  endfacet
  facet normal -0.995185 -0.0980173 0
    outer loop
      vertex -8 0 2
      vertex -7.84628 -1.56072 1
      vertex -7.84628 -1.56072 2
    endloop
  endfacet
  facet normal 0.290285 0.95694 -0
    outer loop
      vertex 3.06147 7.39104 1
      vertex 1.56072 7.84628 2
      vertex 3.06147 7.39104 2
    endloop
  endfacet
  facet normal 0.290285 0.95694 0
    outer loop
      vertex 1.56072 7.84628 2
      vertex 3.06147 7.39104 1
      vertex 1.56072 7.84628 1
    endloop
  endfacet
  facet normal -0.95694 0.290285 0
    outer loop
      vertex -7.84628 1.56072 1
      vertex -7.39104 3.06147 2
      vertex -7.39104 3.06147 1
    endloop
  endfacet
  facet normal -0.95694 0.290285 0
    outer loop
      vertex -7.39104 3.06147 2
      vertex -7.84628 1.56072 1
      vertex -7.84628 1.56072 2
    endloop
  endfacet
  facet normal 0.995185 -0.0980173 0
    outer loop
      vertex 7.84628 -1.56072 2
      vertex 8 0 1
      vertex 8 0 2
    endloop
  endfacet
  facet normal 0.995185 -0.0980173 0
    outer loop
      vertex 8 0 1
      vertex 7.84628 -1.56072 2
      vertex 7.84628 -1.56072 1
    endloop
  endfacet
  facet normal 0.95694 -0.290285 0
    outer loop
      vertex 7.39104 -3.06147 2
      vertex 7.84628 -1.56072 1
      vertex 7.84628 -1.56072 2
    endloop
  endfacet
  facet normal 0.95694 -0.290285 0
    outer loop
      vertex 7.84628 -1.56072 1
      vertex 7.39104 -3.06147 2
      vertex 7.39104 -3.06147 1
    endloop
  endfacet
  facet normal 0.634393 -0.773011 0
    outer loop
      vertex 4.44456 -6.65176 1
      vertex 5.65685 -5.65685 2
      vertex 4.44456 -6.65176 2
    endloop
  endfacet
  facet normal 0.634393 -0.773011 0
    outer loop
      vertex 5.65685 -5.65685 2
      vertex 4.44456 -6.65176 1
      vertex 5.65685 -5.65685 1
    endloop
  endfacet
  facet normal 0.881921 -0.471397 0
    outer loop
      vertex 6.65176 -4.44456 2
      vertex 7.39104 -3.06147 1
      vertex 7.39104 -3.06147 2
    endloop
  endfacet
  facet normal 0.881921 -0.471397 0
    outer loop
      vertex 7.39104 -3.06147 1
      vertex 6.65176 -4.44456 2
      vertex 6.65176 -4.44456 1
    endloop
  endfacet
  facet normal -0.95694 -0.290285 0
    outer loop
      vertex -7.39104 -3.06147 1
      vertex -7.84628 -1.56072 2
      vertex -7.84628 -1.56072 1
    endloop
  endfacet
  facet normal -0.95694 -0.290285 0
    outer loop
      vertex -7.84628 -1.56072 2
      vertex -7.39104 -3.06147 1
      vertex -7.39104 -3.06147 2
    endloop
  endfacet
  facet normal -0.773011 -0.634393 0
    outer loop
      vertex -5.65685 -5.65685 1
      vertex -6.65176 -4.44456 2
      vertex -6.65176 -4.44456 1
    endloop
  endfacet
  facet normal -0.773011 -0.634393 0
    outer loop
      vertex -6.65176 -4.44456 2
      vertex -5.65685 -5.65685 1
      vertex -5.65685 -5.65685 2
    endloop
  endfacet
  facet normal 0.634393 0.773011 -0
    outer loop
      vertex 7.07107 7.07107 -2
      vertex 5.5557 8.3147 2
      vertex 7.07107 7.07107 2
    endloop
  endfacet
  facet normal 0.634393 0.773011 0
    outer loop
      vertex 5.5557 8.3147 2
      vertex 7.07107 7.07107 -2
      vertex 5.5557 8.3147 -2
    endloop
  endfacet
  facet normal 0.995185 -0.0980172 0
    outer loop
      vertex 9.80785 -1.9509 2
      vertex 10 0 -2
      vertex 10 0 2
    endloop
  endfacet
  facet normal 0.995185 -0.0980172 0
    outer loop
      vertex 10 0 -2
      vertex 9.80785 -1.9509 2
      vertex 9.80785 -1.9509 -2
    endloop
  endfacet
  facet normal -0.290285 -0.95694 0
    outer loop
      vertex -3.82683 -9.2388 -2
      vertex -1.9509 -9.80785 2
      vertex -3.82683 -9.2388 2
    endloop
  endfacet
  facet normal -0.290285 -0.95694 -0
    outer loop
      vertex -1.9509 -9.80785 2
      vertex -3.82683 -9.2388 -2
      vertex -1.9509 -9.80785 -2
    endloop
  endfacet
  facet normal 0.95694 0.290285 0
    outer loop
      vertex 9.80785 1.9509 2
      vertex 9.2388 3.82683 -2
      vertex 9.2388 3.82683 2
    endloop
  endfacet
  facet normal 0.95694 0.290285 0
    outer loop
      vertex 9.2388 3.82683 -2
      vertex 9.80785 1.9509 2
      vertex 9.80785 1.9509 -2
    endloop
  endfacet
  facet normal -0.290285 0.95694 0
    outer loop
      vertex -1.9509 9.80785 -2
      vertex -3.82683 9.2388 2
      vertex -1.9509 9.80785 2
    endloop
  endfacet
  facet normal -0.290285 0.95694 0
    outer loop
      vertex -3.82683 9.2388 2
      vertex -1.9509 9.80785 -2
      vertex -3.82683 9.2388 -2
    endloop
  endfacet
  facet normal -0.881921 0.471397 0
    outer loop
      vertex -9.2388 3.82683 -2
      vertex -8.3147 5.5557 2
      vertex -8.3147 5.5557 -2
    endloop
  endfacet
  facet normal -0.881921 0.471397 0
    outer loop
      vertex -8.3147 5.5557 2
      vertex -9.2388 3.82683 -2
      vertex -9.2388 3.82683 2
    endloop
  endfacet
  facet normal 0.634393 -0.773011 0
    outer loop
      vertex 5.5557 -8.3147 -2
      vertex 7.07107 -7.07107 2
      vertex 5.5557 -8.3147 2
    endloop
  endfacet
  facet normal 0.634393 -0.773011 0
    outer loop
      vertex 7.07107 -7.07107 2
      vertex 5.5557 -8.3147 -2
      vertex 7.07107 -7.07107 -2
    endloop
  endfacet
  facet normal 0.881921 0.471397 0
    outer loop
      vertex 9.2388 3.82683 2
      vertex 8.3147 5.5557 -2
      vertex 8.3147 5.5557 2
    endloop
  endfacet
  facet normal 0.881921 0.471397 0
    outer loop
      vertex 8.3147 5.5557 -2
      vertex 9.2388 3.82683 2
      vertex 9.2388 3.82683 -2
    endloop
  endfacet
  facet normal 0.773011 0.634393 0
    outer loop
      vertex 8.3147 5.5557 2
      vertex 7.07107 7.07107 -2
      vertex 7.07107 7.07107 2
    endloop
  endfacet
  facet normal 0.773011 0.634393 0
    outer loop
      vertex 7.07107 7.07107 -2
      vertex 8.3147 5.5557 2
      vertex 8.3147 5.5557 -2
    endloop
  endfacet
  facet normal 0.471397 0.881921 -0
    outer loop
      vertex 5.5557 8.3147 -2
      vertex 3.82683 9.2388 2
      vertex 5.5557 8.3147 2
    endloop
  endfacet
  facet normal 0.471397 0.881921 0
    outer loop
      vertex 3.82683 9.2388 2
      vertex 5.5557 8.3147 -2
      vertex 3.82683 9.2388 -2
    endloop
  endfacet
  facet normal 0.0980172 0.995185 -0
    outer loop
      vertex 1.9509 9.80785 -2
      vertex 0 10 2
      vertex 1.9509 9.80785 2
    endloop
  endfacet
  facet normal 0.0980172 0.995185 0
    outer loop
      vertex 0 10 2
      vertex 1.9509 9.80785 -2
      vertex 0 10 -2
    endloop
  endfacet
  facet normal 0.290285 0.95694 -0
    outer loop
      vertex 3.82683 9.2388 -2
      vertex 1.9509 9.80785 2
      vertex 3.82683 9.2388 2
    endloop
  endfacet
  facet normal 0.290285 0.95694 0
    outer loop
      vertex 1.9509 9.80785 2
      vertex 3.82683 9.2388 -2
      vertex 1.9509 9.80785 -2
    endloop
  endfacet
  facet normal -0.995185 0.0980172 0
    outer loop
      vertex -10 0 -2
      vertex -9.80785 1.9509 2
      vertex -9.80785 1.9509 -2
    endloop
  endfacet
  facet normal -0.995185 0.0980172 0
    outer loop
      vertex -9.80785 1.9509 2
      vertex -10 0 -2
      vertex -10 0 2
    endloop
  endfacet
  facet normal -0.773011 0.634393 0
    outer loop
      vertex -8.3147 5.5557 -2
      vertex -7.07107 7.07107 2
      vertex -7.07107 7.07107 -2
    endloop
  endfacet
  facet normal -0.773011 0.634393 0
    outer loop
      vertex -7.07107 7.07107 2
      vertex -8.3147 5.5557 -2
      vertex -8.3147 5.5557 2
    endloop
  endfacet
  facet normal -0.471397 0.881921 0
    outer loop
      vertex -3.82683 9.2388 -2
      vertex -5.5557 8.3147 2
      vertex -3.82683 9.2388 2
    endloop
  endfacet
  facet normal -0.471397 0.881921 0
    outer loop
      vertex -5.5557 8.3147 2
      vertex -3.82683 9.2388 -2
      vertex -5.5557 8.3147 -2
    endloop
  endfacet
  facet normal -0.0980172 0.995185 0
    outer loop
      vertex 0 10 -2
      vertex -1.9509 9.80785 2
      vertex 0 10 2
    endloop
  endfacet
  facet normal -0.0980172 0.995185 0
    outer loop
      vertex -1.9509 9.80785 2
      vertex 0 10 -2
      vertex -1.9509 9.80785 -2
    endloop
  endfacet
  facet normal -0.634393 0.773011 0
    outer loop
      vertex -5.5557 8.3147 -2
      vertex -7.07107 7.07107 2
      vertex -5.5557 8.3147 2
    endloop
  endfacet
  facet normal -0.634393 0.773011 0
    outer loop
      vertex -7.07107 7.07107 2
      vertex -5.5557 8.3147 -2
      vertex -7.07107 7.07107 -2
    endloop
  endfacet
  facet normal 0.995185 0.0980172 0
    outer loop
      vertex 10 0 2
      vertex 9.80785 1.9509 -2
      vertex 9.80785 1.9509 2
    endloop
  endfacet
  facet normal 0.995185 0.0980172 0
    outer loop
      vertex 9.80785 1.9509 -2
      vertex 10 0 2
      vertex 10 0 -2
    endloop
  endfacet
  facet normal 0.0980172 -0.995185 0
    outer loop
      vertex 0 -10 -2
      vertex 1.9509 -9.80785 2
      vertex 0 -10 2
    endloop
  endfacet
  facet normal 0.0980172 -0.995185 0
    outer loop
      vertex 1.9509 -9.80785 2
      vertex 0 -10 -2
      vertex 1.9509 -9.80785 -2
    endloop
  endfacet
  facet normal 0.773011 -0.634393 0
    outer loop
      vertex 7.07107 -7.07107 2
      vertex 8.3147 -5.5557 -2
      vertex 8.3147 -5.5557 2
    endloop
  endfacet
  facet normal 0.773011 -0.634393 0
    outer loop
      vertex 8.3147 -5.5557 -2
      vertex 7.07107 -7.07107 2
      vertex 7.07107 -7.07107 -2
    endloop
  endfacet
  facet normal 0.95694 -0.290285 0
    outer loop
      vertex 9.2388 -3.82683 2
      vertex 9.80785 -1.9509 -2
      vertex 9.80785 -1.9509 2
    endloop
  endfacet
  facet normal 0.95694 -0.290285 0
    outer loop
      vertex 9.80785 -1.9509 -2
      vertex 9.2388 -3.82683 2
      vertex 9.2388 -3.82683 -2
    endloop
  endfacet
  facet normal 0.290285 -0.95694 0
    outer loop
      vertex 1.9509 -9.80785 -2
      vertex 3.82683 -9.2388 2
      vertex 1.9509 -9.80785 2
    endloop
  endfacet
  facet normal 0.290285 -0.95694 0
    outer loop
      vertex 3.82683 -9.2388 2
      vertex 1.9509 -9.80785 -2
      vertex 3.82683 -9.2388 -2
    endloop
  endfacet
  facet normal 0.471397 -0.881921 0
    outer loop
      vertex 3.82683 -9.2388 -2
      vertex 5.5557 -8.3147 2
      vertex 3.82683 -9.2388 2
    endloop
  endfacet
  facet normal 0.471397 -0.881921 0
    outer loop
      vertex 5.5557 -8.3147 2
      vertex 3.82683 -9.2388 -2
      vertex 5.5557 -8.3147 -2
    endloop
  endfacet
  facet normal -0.0980172 -0.995185 0
    outer loop
      vertex -1.9509 -9.80785 -2
      vertex 0 -10 2
      vertex -1.9509 -9.80785 2
    endloop
  endfacet
  facet normal -0.0980172 -0.995185 -0
    outer loop
      vertex 0 -10 2
      vertex -1.9509 -9.80785 -2
      vertex 0 -10 -2
    endloop
  endfacet
  facet normal -0.634393 -0.773011 0
    outer loop
      vertex -7.07107 -7.07107 -2
      vertex -5.5557 -8.3147 2
      vertex -7.07107 -7.07107 2
    endloop
  endfacet
  facet normal -0.634393 -0.773011 -0
    outer loop
      vertex -5.5557 -8.3147 2
      vertex -7.07107 -7.07107 -2
      vertex -5.5557 -8.3147 -2
    endloop
  endfacet
  facet normal -0.881921 -0.471397 0
    outer loop
      vertex -8.3147 -5.5557 -2
      vertex -9.2388 -3.82683 2
      vertex -9.2388 -3.82683 -2
    endloop
  endfacet
  facet normal -0.881921 -0.471397 0
    outer loop
      vertex -9.2388 -3.82683 2
      vertex -8.3147 -5.5557 -2
      vertex -8.3147 -5.5557 2
    endloop
  endfacet
  facet normal -0.995185 -0.0980172 0
    outer loop
      vertex -9.80785 -1.9509 -2
      vertex -10 0 2
      vertex -10 0 -2
    endloop
  endfacet
  facet normal -0.995185 -0.0980172 0
    outer loop
      vertex -10 0 2
      vertex -9.80785 -1.9509 -2
      vertex -9.80785 -1.9509 2
    endloop
  endfacet
  facet normal 0 0 -1
    outer loop
      vertex 9.80785 -1.9509 -2
      vertex 9.80785 1.9509 -2
      vertex 10 0 -2
    endloop
  endfacet
  facet normal 0 0 -1
    outer loop
      vertex 9.2388 -3.82683 -2
      vertex 9.80785 1.9509 -2
      vertex 9.80785 -1.9509 -2
    endloop
  endfacet
  facet normal 0 0 -1
    outer loop
      vertex 9.2388 -3.82683 -2
      vertex 9.2388 3.82683 -2
      vertex 9.80785 1.9509 -2
    endloop
  endfacet
  facet normal 0 0 -1
    outer loop
      vertex 8.3147 -5.5557 -2
      vertex 9.2388 3.82683 -2
      vertex 9.2388 -3.82683 -2
    endloop
  endfacet
  facet normal 0 0 -1
    outer loop
      vertex 8.3147 -5.5557 -2
      vertex 8.3147 5.5557 -2
      vertex 9.2388 3.82683 -2
    endloop
  endfacet
  facet normal 0 0 -1
    outer loop
      vertex 7.07107 -7.07107 -2
      vertex 8.3147 5.5557 -2
      vertex 8.3147 -5.5557 -2
    endloop
  endfacet
  facet normal 0 0 -1
    outer loop
      vertex 7.07107 -7.07107 -2
      vertex 7.07107 7.07107 -2
      vertex 8.3147 5.5557 -2
    endloop
  endfacet
  facet normal 0 0 -1
    outer loop
      vertex 5.5557 -8.3147 -2
      vertex 7.07107 7.07107 -2
      vertex 7.07107 -7.07107 -2
    endloop
  endfacet
  facet normal 0 0 -1
    outer loop
      vertex 5.5557 -8.3147 -2
      vertex 5.5557 8.3147 -2
      vertex 7.07107 7.07107 -2
    endloop
  endfacet
  facet normal 0 0 -1
    outer loop
      vertex 3.82683 -9.2388 -2
      vertex 5.5557 8.3147 -2
      vertex 5.5557 -8.3147 -2
    endloop
  endfacet
  facet normal 0 0 -1
    outer loop
      vertex 3.82683 -9.2388 -2
      vertex 3.82683 9.2388 -2
      vertex 5.5557 8.3147 -2
    endloop
  endfacet
  facet normal 0 0 -1
    outer loop
      vertex 1.9509 -9.80785 -2
      vertex 3.82683 9.2388 -2
      vertex 3.82683 -9.2388 -2
    endloop
  endfacet
  facet normal 0 0 -1
    outer loop
      vertex 1.9509 -9.80785 -2
      vertex 1.9509 9.80785 -2
      vertex 3.82683 9.2388 -2
    endloop
  endfacet
  facet normal 0 0 -1
    outer loop
      vertex 0 -10 -2
      vertex 1.9509 9.80785 -2
      vertex 1.9509 -9.80785 -2
    endloop
  endfacet
  facet normal 0 0 -1
    outer loop
      vertex 0 -10 -2
      vertex 0 10 -2
      vertex 1.9509 9.80785 -2
    endloop
  endfacet
  facet normal 0 0 -1
    outer loop
      vertex -1.9509 -9.80785 -2
      vertex 0 10 -2
      vertex 0 -10 -2
    endloop
  endfacet
  facet normal 0 0 -1
    outer loop
      vertex -1.9509 -9.80785 -2
      vertex -1.9509 9.80785 -2
      vertex 0 10 -2
    endloop
  endfacet
  facet normal 0 0 -1
    outer loop
      vertex -3.82683 -9.2388 -2
      vertex -1.9509 9.80785 -2
      vertex -1.9509 -9.80785 -2
    endloop
  endfacet
  facet normal 0 0 -1
    outer loop
      vertex -3.82683 -9.2388 -2
      vertex -3.82683 9.2388 -2
      vertex -1.9509 9.80785 -2
    endloop
  endfacet
  facet normal 0 0 -1
    outer loop
      vertex -5.5557 -8.3147 -2
      vertex -3.82683 9.2388 -2
      vertex -3.82683 -9.2388 -2
    endloop
  endfacet
  facet normal 0 0 -1
    outer loop
      vertex -5.5557 -8.3147 -2
      vertex -5.5557 8.3147 -2
      vertex -3.82683 9.2388 -2
    endloop
  endfacet
  facet normal 0 0 -1
    outer loop
      vertex -7.07107 -7.07107 -2
      vertex -5.5557 8.3147 -2
      vertex -5.5557 -8.3147 -2
    endloop
  endfacet
  facet normal 0 0 -1
    outer loop
      vertex -7.07107 -7.07107 -2
      vertex -7.07107 7.07107 -2
      vertex -5.5557 8.3147 -2
    endloop
  endfacet
  facet normal 0 0 -1
    outer loop
      vertex -8.3147 -5.5557 -2
      vertex -7.07107 7.07107 -2
      vertex -7.07107 -7.07107 -2
    endloop
  endfacet
  facet normal 0 0 -1
    outer loop
      vertex -8.3147 -5.5557 -2
      vertex -8.3147 5.5557 -2
      vertex -7.07107 7.07107 -2
    endloop
  endfacet
  facet normal 0 0 -1
    outer loop
      vertex -9.2388 -3.82683 -2
      vertex -8.3147 5.5557 -2
      vertex -8.3147 -5.5557 -2
    endloop
  endfacet
  facet normal 0 0 -1
    outer loop
      vertex -9.2388 -3.82683 -2
      vertex -9.2388 3.82683 -2
      vertex -8.3147 5.5557 -2
    endloop
  endfacet
  facet normal 0 0 -1
    outer loop
      vertex -9.80785 -1.9509 -2
      vertex -9.2388 3.82683 -2
      vertex -9.2388 -3.82683 -2
    endloop
  endfacet
  facet normal 0 0 -1
    outer loop
      vertex -9.80785 -1.9509 -2
      vertex -9.80785 1.9509 -2
      vertex -9.2388 3.82683 -2
    endloop
  endfacet
  facet normal 0 -0 -1
    outer loop
      vertex -9.80785 1.9509 -2
      vertex -9.80785 -1.9509 -2
      vertex -10 0 -2
    endloop
  endfacet
  facet normal 0 0 1
    outer loop
      vertex 9 0 2
      vertex 10 0 2
      vertex 9.80785 1.9509 2
    endloop
  endfacet
  facet normal 0 0 1
    outer loop
      vertex 8.82707 1.75581 2
      vertex 9.80785 1.9509 2
      vertex 9.2388 3.82683 2
    endloop
  endfacet
  facet normal 0 0 1
    outer loop
      vertex 10 0 2
      vertex 9 0 2
      vertex 9.80785 -1.9509 2
    endloop
  endfacet
  facet normal -0 0 1
    outer loop
      vertex 8.82707 -1.75581 2
      vertex 9.80785 -1.9509 2
      vertex 9 0 2
    endloop
  endfacet
  facet normal 0 0 1
    outer loop
      vertex 9.80785 1.9509 2
      vertex 8.82707 1.75581 2
      vertex 9 0 2
    endloop
  endfacet
  facet normal 0 0 1
    outer loop
      vertex 9.2388 3.82683 2
      vertex 8.31492 3.44415 2
      vertex 8.82707 1.75581 2
    endloop
  endfacet
  facet normal 0 0 1
    outer loop
      vertex 8.3147 5.5557 2
      vertex 8.31492 3.44415 2
      vertex 9.2388 3.82683 2
    endloop
  endfacet
  facet normal 0 0 1
    outer loop
      vertex 8.3147 5.5557 2
      vertex 7.48323 5.00013 2
      vertex 8.31492 3.44415 2
    endloop
  endfacet
  facet normal 0 0 1
    outer loop
      vertex 7.07107 7.07107 2
      vertex 7.48323 5.00013 2
      vertex 8.3147 5.5557 2
    endloop
  endfacet
  facet normal 0 0 1
    outer loop
      vertex 7.07107 7.07107 2
      vertex 6.36396 6.36396 2
      vertex 7.48323 5.00013 2
    endloop
  endfacet
  facet normal 0 0 1
    outer loop
      vertex 5.5557 8.3147 2
      vertex 6.36396 6.36396 2
      vertex 7.07107 7.07107 2
    endloop
  endfacet
  facet normal 0 0 1
    outer loop
      vertex 5.5557 8.3147 2
      vertex 5.00013 7.48323 2
      vertex 6.36396 6.36396 2
    endloop
  endfacet
  facet normal 0 0 1
    outer loop
      vertex 3.82683 9.2388 2
      vertex 5.00013 7.48323 2
      vertex 5.5557 8.3147 2
    endloop
  endfacet
  facet normal 0 0 1
    outer loop
      vertex 3.82683 9.2388 2
      vertex 3.44415 8.31492 2
      vertex 5.00013 7.48323 2
    endloop
  endfacet
  facet normal 0 0 1
    outer loop
      vertex 1.9509 9.80785 2
      vertex 3.44415 8.31492 2
      vertex 3.82683 9.2388 2
    endloop
  endfacet
  facet normal 0 0 1
    outer loop
      vertex 1.9509 9.80785 2
      vertex 1.75581 8.82707 2
      vertex 3.44415 8.31492 2
    endloop
  endfacet
  facet normal 0 0 1
    outer loop
      vertex 0 10 2
      vertex 1.75581 8.82707 2
      vertex 1.9509 9.80785 2
    endloop
  endfacet
  facet normal 0 0 1
    outer loop
      vertex 0 10 2
      vertex 0 9 2
      vertex 1.75581 8.82707 2
    endloop
  endfacet
  facet normal 0 0 1
    outer loop
      vertex 0 10 2
      vertex -1.75581 8.82707 2
      vertex 0 9 2
    endloop
  endfacet
  facet normal -0 0 1
    outer loop
      vertex -1.9509 9.80785 2
      vertex -1.75581 8.82707 2
      vertex 0 10 2
    endloop
  endfacet
  facet normal 0 0 1
    outer loop
      vertex -1.9509 9.80785 2
      vertex -3.44415 8.31492 2
      vertex -1.75581 8.82707 2
    endloop
  endfacet
  facet normal -0 0 1
    outer loop
      vertex -3.82683 9.2388 2
      vertex -3.44415 8.31492 2
      vertex -1.9509 9.80785 2
    endloop
  endfacet
  facet normal 0 0 1
    outer loop
      vertex -3.82683 9.2388 2
      vertex -5.00013 7.48323 2
      vertex -3.44415 8.31492 2
    endloop
  endfacet
  facet normal -0 0 1
    outer loop
      vertex -5.5557 8.3147 2
      vertex -5.00013 7.48323 2
      vertex -3.82683 9.2388 2
    endloop
  endfacet
  facet normal 0 0 1
    outer loop
      vertex -5.5557 8.3147 2
      vertex -6.36396 6.36396 2
      vertex -5.00013 7.48323 2
    endloop
  endfacet
  facet normal -0 0 1
    outer loop
      vertex -7.07107 7.07107 2
      vertex -6.36396 6.36396 2
      vertex -5.5557 8.3147 2
    endloop
  endfacet
  facet normal 0 0 1
    outer loop
      vertex -7.07107 7.07107 2
      vertex -7.48323 5.00013 2
      vertex -6.36396 6.36396 2
    endloop
  endfacet
  facet normal -0 0 1
    outer loop
      vertex -8.3147 5.5557 2
      vertex -7.48323 5.00013 2
      vertex -7.07107 7.07107 2
    endloop
  endfacet
  facet normal 0 0 1
    outer loop
      vertex -8.3147 5.5557 2
      vertex -8.31492 3.44415 2
      vertex -7.48323 5.00013 2
    endloop
  endfacet
  facet normal -0 0 1
    outer loop
      vertex -9.2388 3.82683 2
      vertex -8.31492 3.44415 2
      vertex -8.3147 5.5557 2
    endloop
  endfacet
  facet normal -0 0 1
    outer loop
      vertex -9.80785 1.9509 2
      vertex -8.82707 1.75581 2
      vertex -9.2388 3.82683 2
    endloop
  endfacet
  facet normal 0 0 1
    outer loop
      vertex -8.31492 3.44415 2
      vertex -9.2388 3.82683 2
      vertex -8.82707 1.75581 2
    endloop
  endfacet
  facet normal 0 0 1
    outer loop
      vertex 9.80785 -1.9509 2
      vertex 8.82707 -1.75581 2
      vertex 9.2388 -3.82683 2
    endloop
  endfacet
  facet normal -0 0 1
    outer loop
      vertex 8.31492 -3.44415 2
      vertex 9.2388 -3.82683 2
      vertex 8.82707 -1.75581 2
    endloop
  endfacet
  facet normal 0 0 1
    outer loop
      vertex 8.31492 -3.44415 2
      vertex 8.3147 -5.5557 2
      vertex 9.2388 -3.82683 2
    endloop
  endfacet
  facet normal -0 0 1
    outer loop
      vertex 7.48323 -5.00013 2
      vertex 8.3147 -5.5557 2
      vertex 8.31492 -3.44415 2
    endloop
  endfacet
  facet normal 0 0 1
    outer loop
      vertex 7.48323 -5.00013 2
      vertex 7.07107 -7.07107 2
      vertex 8.3147 -5.5557 2
    endloop
  endfacet
  facet normal -0 0 1
    outer loop
      vertex 6.36396 -6.36396 2
      vertex 7.07107 -7.07107 2
      vertex 7.48323 -5.00013 2
    endloop
  endfacet
  facet normal 0 0 1
    outer loop
      vertex 6.36396 -6.36396 2
      vertex 5.5557 -8.3147 2
      vertex 7.07107 -7.07107 2
    endloop
  endfacet
  facet normal -0 0 1
    outer loop
      vertex 5.00013 -7.48323 2
      vertex 5.5557 -8.3147 2
      vertex 6.36396 -6.36396 2
    endloop
  endfacet
  facet normal 0 0 1
    outer loop
      vertex 5.00013 -7.48323 2
      vertex 3.82683 -9.2388 2
      vertex 5.5557 -8.3147 2
    endloop
  endfacet
  facet normal -0 0 1
    outer loop
      vertex 3.44415 -8.31492 2
      vertex 3.82683 -9.2388 2
      vertex 5.00013 -7.48323 2
    endloop
  endfacet
  facet normal 0 0 1
    outer loop
      vertex 3.44415 -8.31492 2
      vertex 1.9509 -9.80785 2
      vertex 3.82683 -9.2388 2
    endloop
  endfacet
  facet normal -0 0 1
    outer loop
      vertex 1.75581 -8.82707 2
      vertex 1.9509 -9.80785 2
      vertex 3.44415 -8.31492 2
    endloop
  endfacet
  facet normal -0 0 1
    outer loop
      vertex 0 -9 2
      vertex 1.9509 -9.80785 2
      vertex 1.75581 -8.82707 2
    endloop
  endfacet
  facet normal 0 0 1
    outer loop
      vertex 0 -9 2
      vertex 0 -10 2
      vertex 1.9509 -9.80785 2
    endloop
  endfacet
  facet normal 0 0 1
    outer loop
      vertex -1.75581 -8.82707 2
      vertex 0 -10 2
      vertex 0 -9 2
    endloop
  endfacet
  facet normal 0 0 1
    outer loop
      vertex -1.75581 -8.82707 2
      vertex -1.9509 -9.80785 2
      vertex 0 -10 2
    endloop
  endfacet
  facet normal 0 0 1
    outer loop
      vertex -3.44415 -8.31492 2
      vertex -1.9509 -9.80785 2
      vertex -1.75581 -8.82707 2
    endloop
  endfacet
  facet normal 0 0 1
    outer loop
      vertex -3.44415 -8.31492 2
      vertex -3.82683 -9.2388 2
      vertex -1.9509 -9.80785 2
    endloop
  endfacet
  facet normal 0 0 1
    outer loop
      vertex -5.00013 -7.48323 2
      vertex -3.82683 -9.2388 2
      vertex -3.44415 -8.31492 2
    endloop
  endfacet
  facet normal 0 0 1
    outer loop
      vertex -5.00013 -7.48323 2
      vertex -5.5557 -8.3147 2
      vertex -3.82683 -9.2388 2
    endloop
  endfacet
  facet normal 0 0 1
    outer loop
      vertex -6.36396 -6.36396 2
      vertex -5.5557 -8.3147 2
      vertex -5.00013 -7.48323 2
    endloop
  endfacet
  facet normal 0 0 1
    outer loop
      vertex -6.36396 -6.36396 2
      vertex -7.07107 -7.07107 2
      vertex -5.5557 -8.3147 2
    endloop
  endfacet
  facet normal 0 0 1
    outer loop
      vertex -7.48323 -5.00013 2
      vertex -7.07107 -7.07107 2
      vertex -6.36396 -6.36396 2
    endloop
  endfacet
  facet normal 0 0 1
    outer loop
      vertex -7.48323 -5.00013 2
      vertex -8.3147 -5.5557 2
      vertex -7.07107 -7.07107 2
    endloop
  endfacet
  facet normal 0 0 1
    outer loop
      vertex -8.31492 -3.44415 2
      vertex -8.3147 -5.5557 2
      vertex -7.48323 -5.00013 2
    endloop
  endfacet
  facet normal 0 0 1
    outer loop
      vertex -9.2388 -3.82683 2
      vertex -8.31492 -3.44415 2
      vertex -8.82707 -1.75581 2
    endloop
  endfacet
  facet normal 0 0 1
    outer loop
      vertex -8.31492 -3.44415 2
      vertex -9.2388 -3.82683 2
      vertex -8.3147 -5.5557 2
    endloop
  endfacet
  facet normal 0 0 1
    outer loop
      vertex -9.80785 -1.9509 2
      vertex -8.82707 -1.75581 2
      vertex -9 0 2
    endloop
  endfacet
  facet normal 0 0 1
    outer loop
      vertex -8.82707 1.75581 2
      vertex -9.80785 1.9509 2
      vertex -9 0 2
    endloop
  endfacet
  facet normal 0 0 1
    outer loop
      vertex -10 0 2
      vertex -9 0 2
      vertex -9.80785 1.9509 2
    endloop
  endfacet
  facet normal 0 0 1
    outer loop
      vertex -8.82707 -1.75581 2
      vertex -9.80785 -1.9509 2
      vertex -9.2388 -3.82683 2
    endloop
  endfacet
  facet normal 0 0 1
    outer loop
      vertex -9 0 2
      vertex -10 0 2
      vertex -9.80785 -1.9509 2
    endloop
  endfacet
  facet normal -0 0 1
    outer loop
      vertex -4.12463 -4.41446 2
      vertex -3.06147 -7.39104 2
      vertex -3.20075 -4.03177 2
    endloop
  endfacet
  facet normal 0 0 1
    outer loop
      vertex -4.12463 -4.41446 2
      vertex -4.44456 -6.65176 2
      vertex -3.06147 -7.39104 2
    endloop
  endfacet
  facet normal 0 0 1
    outer loop
      vertex -4.12463 -4.41446 2
      vertex -5.65685 -5.65685 2
      vertex -4.44456 -6.65176 2
    endloop
  endfacet
  facet normal -0 0 1
    outer loop
      vertex -7.39104 -3.06147 2
      vertex -4.12463 -4.41446 2
      vertex -6.03805 0.20494 2
    endloop
  endfacet
  facet normal 0 0 1
    outer loop
      vertex -5.11417 0.587623 2
      vertex -7.39104 3.06147 2
      vertex -6.03805 0.20494 2
    endloop
  endfacet
  facet normal 0 0 1
    outer loop
      vertex -4.12463 -4.41446 2
      vertex -6.65176 -4.44456 2
      vertex -5.65685 -5.65685 2
    endloop
  endfacet
  facet normal -0 0 1
    outer loop
      vertex -7.84628 1.56072 2
      vertex -6.03805 0.20494 2
      vertex -7.39104 3.06147 2
    endloop
  endfacet
  facet normal 0 0 1
    outer loop
      vertex -4.12463 -4.41446 2
      vertex -7.39104 -3.06147 2
      vertex -6.65176 -4.44456 2
    endloop
  endfacet
  facet normal 0 0 1
    outer loop
      vertex -8 0 2
      vertex -6.03805 0.20494 2
      vertex -7.84628 1.56072 2
    endloop
  endfacet
  facet normal 0 0 1
    outer loop
      vertex -6.03805 0.20494 2
      vertex -7.84628 -1.56072 2
      vertex -7.39104 -3.06147 2
    endloop
  endfacet
  facet normal 0 0 1
    outer loop
      vertex -6.03805 0.20494 2
      vertex -8 0 2
      vertex -7.84628 -1.56072 2
    endloop
  endfacet
  facet normal 0 0 1
    outer loop
      vertex -0.541196 -1.30656 2
      vertex -0.587623 -5.11417 2
      vertex 0.798196 -4.54014 2
    endloop
  endfacet
  facet normal -0 0 1
    outer loop
      vertex -3.20075 -4.03177 2
      vertex -0.587623 -5.11417 2
      vertex -0.541196 -1.30656 2
    endloop
  endfacet
  facet normal 0 -0 1
    outer loop
      vertex -3.06147 -7.39104 2
      vertex -0.587623 -5.11417 2
      vertex -3.20075 -4.03177 2
    endloop
  endfacet
  facet normal 0 0 1
    outer loop
      vertex -0.587623 -5.11417 2
      vertex -3.06147 -7.39104 2
      vertex -1.56072 -7.84628 2
    endloop
  endfacet
  facet normal 0 -0 1
    outer loop
      vertex -3.20075 -4.03177 2
      vertex -0.541196 -1.30656 2
      vertex -3.77477 -2.64596 2
    endloop
  endfacet
  facet normal 0 0 1
    outer loop
      vertex 1.56072 7.84628 2
      vertex 0.20494 6.03805 2
      vertex 0.587623 5.11417 2
    endloop
  endfacet
  facet normal 0 0 1
    outer loop
      vertex 0 8 2
      vertex 0.20494 6.03805 2
      vertex 1.56072 7.84628 2
    endloop
  endfacet
  facet normal -0 0 1
    outer loop
      vertex -1.56072 7.84628 2
      vertex 0.20494 6.03805 2
      vertex 0 8 2
    endloop
  endfacet
  facet normal -0 0 1
    outer loop
      vertex -3.06147 7.39104 2
      vertex 0.20494 6.03805 2
      vertex -1.56072 7.84628 2
    endloop
  endfacet
  facet normal 0 0 1
    outer loop
      vertex -3.06147 7.39104 2
      vertex -4.41446 4.12463 2
      vertex 0.20494 6.03805 2
    endloop
  endfacet
  facet normal 0 -0 1
    outer loop
      vertex -4.41446 4.12463 2
      vertex -3.06147 7.39104 2
      vertex -4.44456 6.65176 2
    endloop
  endfacet
  facet normal 0 0 1
    outer loop
      vertex 6.03805 -0.20494 2
      vertex 8 0 2
      vertex 7.84628 1.56072 2
    endloop
  endfacet
  facet normal 0 0 1
    outer loop
      vertex 6.03805 -0.20494 2
      vertex 7.84628 1.56072 2
      vertex 7.39104 3.06147 2
    endloop
  endfacet
  facet normal 0 0 1
    outer loop
      vertex 8 0 2
      vertex 6.03805 -0.20494 2
      vertex 7.84628 -1.56072 2
    endloop
  endfacet
  facet normal -0 0 1
    outer loop
      vertex 4.12463 4.41446 2
      vertex 7.39104 3.06147 2
      vertex 6.65176 4.44456 2
    endloop
  endfacet
  facet normal 0 0 1
    outer loop
      vertex 7.84628 -1.56072 2
      vertex 6.03805 -0.20494 2
      vertex 7.39104 -3.06147 2
    endloop
  endfacet
  facet normal -0 0 1
    outer loop
      vertex 5.11417 -0.587623 2
      vertex 7.39104 -3.06147 2
      vertex 6.03805 -0.20494 2
    endloop
  endfacet
  facet normal 0 0 1
    outer loop
      vertex 4.12463 4.41446 2
      vertex 6.65176 4.44456 2
      vertex 5.65685 5.65685 2
    endloop
  endfacet
  facet normal 0 0 1
    outer loop
      vertex 4.12463 4.41446 2
      vertex 5.65685 5.65685 2
      vertex 4.44456 6.65176 2
    endloop
  endfacet
  facet normal 0 0 1
    outer loop
      vertex 7.39104 3.06147 2
      vertex 4.12463 4.41446 2
      vertex 6.03805 -0.20494 2
    endloop
  endfacet
  facet normal 0 0 1
    outer loop
      vertex 4.44456 6.65176 2
      vertex 3.20075 4.03177 2
      vertex 4.12463 4.41446 2
    endloop
  endfacet
  facet normal 0 -0 1
    outer loop
      vertex 3.20075 4.03177 2
      vertex 4.44456 6.65176 2
      vertex 3.06147 7.39104 2
    endloop
  endfacet
  facet normal 0 0 1
    outer loop
      vertex 4.03177 -3.20075 2
      vertex 7.39104 -3.06147 2
      vertex 5.11417 -0.587623 2
    endloop
  endfacet
  facet normal 0 0 1
    outer loop
      vertex 7.39104 -3.06147 2
      vertex 4.03177 -3.20075 2
      vertex 6.65176 -4.44456 2
    endloop
  endfacet
  facet normal -0 0 1
    outer loop
      vertex 1.30656 -0.541196 2
      vertex 5.11417 -0.587623 2
      vertex 4.54014 0.798196 2
    endloop
  endfacet
  facet normal 0 0 1
    outer loop
      vertex 6.65176 -4.44456 2
      vertex 4.41446 -4.12463 2
      vertex 5.65685 -5.65685 2
    endloop
  endfacet
  facet normal 0 0 1
    outer loop
      vertex 5.65685 -5.65685 2
      vertex 4.41446 -4.12463 2
      vertex 4.44456 -6.65176 2
    endloop
  endfacet
  facet normal 0 0 1
    outer loop
      vertex 6.65176 -4.44456 2
      vertex 4.03177 -3.20075 2
      vertex 4.41446 -4.12463 2
    endloop
  endfacet
  facet normal 0 0 1
    outer loop
      vertex 5.11417 -0.587623 2
      vertex 1.30656 -0.541196 2
      vertex 4.03177 -3.20075 2
    endloop
  endfacet
  facet normal 0 0 1
    outer loop
      vertex 4.03177 -3.20075 2
      vertex 1.30656 -0.541196 2
      vertex 2.64596 -3.77477 2
    endloop
  endfacet
  facet normal 0 0 1
    outer loop
      vertex 4.41446 -4.12463 2
      vertex 3.06147 -7.39104 2
      vertex 4.44456 -6.65176 2
    endloop
  endfacet
  facet normal -0 0 1
    outer loop
      vertex -0.20494 -6.03805 2
      vertex 3.06147 -7.39104 2
      vertex 4.41446 -4.12463 2
    endloop
  endfacet
  facet normal 0 0 1
    outer loop
      vertex 3.06147 -7.39104 2
      vertex -0.20494 -6.03805 2
      vertex 1.56072 -7.84628 2
    endloop
  endfacet
  facet normal 0 0 1
    outer loop
      vertex 1.56072 -7.84628 2
      vertex -0.20494 -6.03805 2
      vertex 0 -8 2
    endloop
  endfacet
  facet normal 0 0 1
    outer loop
      vertex -1.56072 -7.84628 2
      vertex -0.20494 -6.03805 2
      vertex -0.587623 -5.11417 2
    endloop
  endfacet
  facet normal 0 0 1
    outer loop
      vertex -0.20494 -6.03805 2
      vertex -1.56072 -7.84628 2
      vertex 0 -8 2
    endloop
  endfacet
  facet normal 0 0 1
    outer loop
      vertex 0.587623 5.11417 2
      vertex 3.06147 7.39104 2
      vertex 1.56072 7.84628 2
    endloop
  endfacet
  facet normal 0 0 1
    outer loop
      vertex 3.06147 7.39104 2
      vertex 0.587623 5.11417 2
      vertex 3.20075 4.03177 2
    endloop
  endfacet
  facet normal 0 0 1
    outer loop
      vertex 0.541196 1.30656 2
      vertex 3.20075 4.03177 2
      vertex 0.587623 5.11417 2
    endloop
  endfacet
  facet normal 0 0 1
    outer loop
      vertex 3.20075 4.03177 2
      vertex 0.541196 1.30656 2
      vertex 3.77477 2.64596 2
    endloop
  endfacet
  facet normal 0 -0 1
    outer loop
      vertex 0.541196 1.30656 2
      vertex 0.587623 5.11417 2
      vertex -0.798196 4.54014 2
    endloop
  endfacet
  facet normal -0 0 1
    outer loop
      vertex -4.03177 3.20075 2
      vertex -1.30656 0.541196 2
      vertex -2.64596 3.77477 2
    endloop
  endfacet
  facet normal -0 0 1
    outer loop
      vertex -5.11417 0.587623 2
      vertex -1.30656 0.541196 2
      vertex -4.03177 3.20075 2
    endloop
  endfacet
  facet normal 0 0 1
    outer loop
      vertex -6.65176 4.44456 2
      vertex -4.03177 3.20075 2
      vertex -4.41446 4.12463 2
    endloop
  endfacet
  facet normal -0 0 1
    outer loop
      vertex -5.65685 5.65685 2
      vertex -4.41446 4.12463 2
      vertex -4.44456 6.65176 2
    endloop
  endfacet
  facet normal 0 0 1
    outer loop
      vertex -1.30656 0.541196 2
      vertex -5.11417 0.587623 2
      vertex -4.54014 -0.798196 2
    endloop
  endfacet
  facet normal -0 0 1
    outer loop
      vertex -6.65176 4.44456 2
      vertex -4.41446 4.12463 2
      vertex -5.65685 5.65685 2
    endloop
  endfacet
  facet normal 0 0 1
    outer loop
      vertex -7.39104 3.06147 2
      vertex -4.03177 3.20075 2
      vertex -6.65176 4.44456 2
    endloop
  endfacet
  facet normal 0 0 1
    outer loop
      vertex -4.03177 3.20075 2
      vertex -7.39104 3.06147 2
      vertex -5.11417 0.587623 2
    endloop
  endfacet
  facet normal -0.95694 0.290285 0
    outer loop
      vertex -9.80785 1.9509 -2
      vertex -9.2388 3.82683 2
      vertex -9.2388 3.82683 -2
    endloop
  endfacet
  facet normal -0.95694 0.290285 0
    outer loop
      vertex -9.2388 3.82683 2
      vertex -9.80785 1.9509 -2
      vertex -9.80785 1.9509 2
    endloop
  endfacet
  facet normal -0.471397 -0.881921 0
    outer loop
      vertex -5.5557 -8.3147 -2
      vertex -3.82683 -9.2388 2
      vertex -5.5557 -8.3147 2
    endloop
  endfacet
  facet normal -0.471397 -0.881921 -0
    outer loop
      vertex -3.82683 -9.2388 2
      vertex -5.5557 -8.3147 -2
      vertex -3.82683 -9.2388 -2
    endloop
  endfacet
  facet normal -0.95694 -0.290285 0
    outer loop
      vertex -9.2388 -3.82683 -2
      vertex -9.80785 -1.9509 2
      vertex -9.80785 -1.9509 -2
    endloop
  endfacet
  facet normal -0.95694 -0.290285 0
    outer loop
      vertex -9.80785 -1.9509 2
      vertex -9.2388 -3.82683 -2
      vertex -9.2388 -3.82683 2
    endloop
  endfacet
  facet normal -0.773011 -0.634393 0
    outer loop
      vertex -7.07107 -7.07107 -2
      vertex -8.3147 -5.5557 2
      vertex -8.3147 -5.5557 -2
    endloop
  endfacet
  facet normal -0.773011 -0.634393 0
    outer loop
      vertex -8.3147 -5.5557 2
      vertex -7.07107 -7.07107 -2
      vertex -7.07107 -7.07107 2
    endloop
  endfacet
  facet normal 0.881921 -0.471397 0
    outer loop
      vertex 8.3147 -5.5557 2
      vertex 9.2388 -3.82683 -2
      vertex 9.2388 -3.82683 2
    endloop
  endfacet
  facet normal 0.881921 -0.471397 0
    outer loop
      vertex 9.2388 -3.82683 -2
      vertex 8.3147 -5.5557 2
      vertex 8.3147 -5.5557 -2
    endloop
  endfacet
  facet normal 0 0 1
    outer loop
      vertex 4.12463 4.41446 1
      vertex 3.20075 4.03177 1
      vertex 3.77477 2.64596 1
    endloop
  endfacet
  facet normal 0 0 1
    outer loop
      vertex 6.03805 -0.20494 1
      vertex 4.54014 0.798196 1
      vertex 5.11417 -0.587623 1
    endloop
  endfacet
  facet normal 0 0 1
    outer loop
      vertex 4.12463 4.41446 1
      vertex 4.54014 0.798196 1
      vertex 6.03805 -0.20494 1
    endloop
  endfacet
  facet normal -0 0 1
    outer loop
      vertex 3.77477 2.64596 1
      vertex 4.54014 0.798196 1
      vertex 4.12463 4.41446 1
    endloop
  endfacet
  facet normal 0 0 1
    outer loop
      vertex 3.77477 2.64596 1
      vertex 1.30656 -0.541196 1
      vertex 4.54014 0.798196 1
    endloop
  endfacet
  facet normal -0 0 1
    outer loop
      vertex 0.541196 1.30656 1
      vertex 1.30656 -0.541196 1
      vertex 3.77477 2.64596 1
    endloop
  endfacet
  facet normal 0 0 1
    outer loop
      vertex -0.541196 -1.30656 1
      vertex 1.30656 -0.541196 1
      vertex 0.541196 1.30656 1
    endloop
  endfacet
  facet normal 0 0 1
    outer loop
      vertex 1.30656 -0.541196 1
      vertex -0.541196 -1.30656 1
      vertex 0.798196 -4.54014 1
    endloop
  endfacet
  facet normal 0 0 1
    outer loop
      vertex -1.30656 0.541196 1
      vertex 0.541196 1.30656 1
      vertex -0.798196 4.54014 1
    endloop
  endfacet
  facet normal 0 0 1
    outer loop
      vertex 0.541196 1.30656 1
      vertex -1.30656 0.541196 1
      vertex -0.541196 -1.30656 1
    endloop
  endfacet
  facet normal 0 0 1
    outer loop
      vertex -1.30656 0.541196 1
      vertex -3.77477 -2.64596 1
      vertex -0.541196 -1.30656 1
    endloop
  endfacet
  facet normal -0 0 1
    outer loop
      vertex -4.54014 -0.798196 1
      vertex -3.77477 -2.64596 1
      vertex -1.30656 0.541196 1
    endloop
  endfacet
  facet normal 0 0 1
    outer loop
      vertex -4.54014 -0.798196 1
      vertex -4.12463 -4.41446 1
      vertex -3.77477 -2.64596 1
    endloop
  endfacet
  facet normal -0 0 1
    outer loop
      vertex -6.03805 0.20494 1
      vertex -4.54014 -0.798196 1
      vertex -5.11417 0.587623 1
    endloop
  endfacet
  facet normal 0 0 1
    outer loop
      vertex -4.54014 -0.798196 1
      vertex -6.03805 0.20494 1
      vertex -4.12463 -4.41446 1
    endloop
  endfacet
  facet normal 0 0 1
    outer loop
      vertex 0.20494 6.03805 1
      vertex -0.798196 4.54014 1
      vertex 0.587623 5.11417 1
    endloop
  endfacet
  facet normal 0 0 1
    outer loop
      vertex -0.798196 4.54014 1
      vertex -2.64596 3.77477 1
      vertex -1.30656 0.541196 1
    endloop
  endfacet
  facet normal 0 0 1
    outer loop
      vertex 0.20494 6.03805 1
      vertex -2.64596 3.77477 1
      vertex -0.798196 4.54014 1
    endloop
  endfacet
  facet normal -0 0 1
    outer loop
      vertex -4.41446 4.12463 1
      vertex -2.64596 3.77477 1
      vertex 0.20494 6.03805 1
    endloop
  endfacet
  facet normal 0 0 1
    outer loop
      vertex -2.64596 3.77477 1
      vertex -4.41446 4.12463 1
      vertex -4.03177 3.20075 1
    endloop
  endfacet
  facet normal -0 0 1
    outer loop
      vertex 2.64596 -3.77477 1
      vertex 4.41446 -4.12463 1
      vertex 4.03177 -3.20075 1
    endloop
  endfacet
  facet normal 0 0 1
    outer loop
      vertex 0.798196 -4.54014 1
      vertex 2.64596 -3.77477 1
      vertex 1.30656 -0.541196 1
    endloop
  endfacet
  facet normal 0 0 1
    outer loop
      vertex 0.798196 -4.54014 1
      vertex 4.41446 -4.12463 1
      vertex 2.64596 -3.77477 1
    endloop
  endfacet
  facet normal -0 0 1
    outer loop
      vertex 0.798196 -4.54014 1
      vertex -0.20494 -6.03805 1
      vertex 4.41446 -4.12463 1
    endloop
  endfacet
  facet normal 0 -0 1
    outer loop
      vertex -0.20494 -6.03805 1
      vertex 0.798196 -4.54014 1
      vertex -0.587623 -5.11417 1
    endloop
  endfacet
  facet normal 0 0 1
    outer loop
      vertex -3.20075 -4.03177 1
      vertex -3.77477 -2.64596 1
      vertex -4.12463 -4.41446 1
    endloop
  endfacet
  facet normal -0.382683 0.92388 0
    outer loop
      vertex -0.541196 -1.30656 1
      vertex -3.77477 -2.64596 2
      vertex -0.541196 -1.30656 2
    endloop
  endfacet
  facet normal -0.382683 0.92388 0
    outer loop
      vertex -3.77477 -2.64596 2
      vertex -0.541196 -1.30656 1
      vertex -3.77477 -2.64596 1
    endloop
  endfacet
  facet normal -0.382683 0.92388 0
    outer loop
      vertex 4.54014 0.798196 1
      vertex 1.30656 -0.541196 2
      vertex 4.54014 0.798196 2
    endloop
  endfacet
  facet normal -0.382683 0.92388 0
    outer loop
      vertex 1.30656 -0.541196 2
      vertex 4.54014 0.798196 1
      vertex 1.30656 -0.541196 1
    endloop
  endfacet
  facet normal 0.382683 -0.92388 0
    outer loop
      vertex -4.54014 -0.798196 1
      vertex -1.30656 0.541196 2
      vertex -4.54014 -0.798196 2
    endloop
  endfacet
  facet normal 0.382683 -0.92388 0
    outer loop
      vertex -1.30656 0.541196 2
      vertex -4.54014 -0.798196 1
      vertex -1.30656 0.541196 1
    endloop
  endfacet
  facet normal 0.382683 -0.92388 0
    outer loop
      vertex 0.541196 1.30656 1
      vertex 3.77477 2.64596 2
      vertex 0.541196 1.30656 2
    endloop
  endfacet
  facet normal 0.382683 -0.92388 0
    outer loop
      vertex 3.77477 2.64596 2
      vertex 0.541196 1.30656 1
      vertex 3.77477 2.64596 1
    endloop
  endfacet
  facet normal 0.92388 0.382683 0
    outer loop
      vertex 0.798196 -4.54014 2
      vertex -0.541196 -1.30656 1
      vertex -0.541196 -1.30656 2
    endloop
  endfacet
  facet normal 0.92388 0.382683 0
    outer loop
      vertex -0.541196 -1.30656 1
      vertex 0.798196 -4.54014 2
      vertex 0.798196 -4.54014 1
    endloop
  endfacet
  facet normal 0.92388 0.382683 0
    outer loop
      vertex -1.30656 0.541196 2
      vertex -2.64596 3.77477 1
      vertex -2.64596 3.77477 2
    endloop
  endfacet
  facet normal 0.92388 0.382683 0
    outer loop
      vertex -2.64596 3.77477 1
      vertex -1.30656 0.541196 2
      vertex -1.30656 0.541196 1
    endloop
  endfacet
  facet normal -0.92388 -0.382683 0
    outer loop
      vertex 2.64596 -3.77477 1
      vertex 1.30656 -0.541196 2
      vertex 1.30656 -0.541196 1
    endloop
  endfacet
  facet normal -0.92388 -0.382683 0
    outer loop
      vertex 1.30656 -0.541196 2
      vertex 2.64596 -3.77477 1
      vertex 2.64596 -3.77477 2
    endloop
  endfacet
  facet normal -0.92388 -0.382683 0
    outer loop
      vertex 0.541196 1.30656 1
      vertex -0.798196 4.54014 2
      vertex -0.798196 4.54014 1
    endloop
  endfacet
  facet normal -0.92388 -0.382683 0
    outer loop
      vertex -0.798196 4.54014 2
      vertex 0.541196 1.30656 1
      vertex 0.541196 1.30656 2
    endloop
  endfacet
  facet normal 0.92388 0.382683 0
    outer loop
      vertex 5.11417 -0.587623 2
      vertex 4.54014 0.798196 1
      vertex 4.54014 0.798196 2
    endloop
  endfacet
  facet normal 0.92388 0.382683 0
    outer loop
      vertex 4.54014 0.798196 1
      vertex 5.11417 -0.587623 2
      vertex 5.11417 -0.587623 1
    endloop
  endfacet
  facet normal 0.923879 0.382684 0
    outer loop
      vertex 3.77477 2.64596 2
      vertex 3.20075 4.03177 1
      vertex 3.20075 4.03177 2
    endloop
  endfacet
  facet normal 0.923879 0.382684 0
    outer loop
      vertex 3.20075 4.03177 1
      vertex 3.77477 2.64596 2
      vertex 3.77477 2.64596 1
    endloop
  endfacet
  facet normal -0.92388 -0.382683 0
    outer loop
      vertex 6.03805 -0.20494 1
      vertex 4.12463 4.41446 2
      vertex 4.12463 4.41446 1
    endloop
  endfacet
  facet normal -0.92388 -0.382683 0
    outer loop
      vertex 4.12463 4.41446 2
      vertex 6.03805 -0.20494 1
      vertex 6.03805 -0.20494 2
    endloop
  endfacet
  facet normal -0.382683 0.92388 0
    outer loop
      vertex 6.03805 -0.20494 1
      vertex 5.11417 -0.587623 2
      vertex 6.03805 -0.20494 2
    endloop
  endfacet
  facet normal -0.382683 0.92388 0
    outer loop
      vertex 5.11417 -0.587623 2
      vertex 6.03805 -0.20494 1
      vertex 5.11417 -0.587623 1
    endloop
  endfacet
  facet normal 0.382684 -0.923879 0
    outer loop
      vertex 3.20075 4.03177 1
      vertex 4.12463 4.41446 2
      vertex 3.20075 4.03177 2
    endloop
  endfacet
  facet normal 0.382684 -0.923879 0
    outer loop
      vertex 4.12463 4.41446 2
      vertex 3.20075 4.03177 1
      vertex 4.12463 4.41446 1
    endloop
  endfacet
  facet normal 0.92388 0.382683 0
    outer loop
      vertex -4.12463 -4.41446 2
      vertex -6.03805 0.20494 1
      vertex -6.03805 0.20494 2
    endloop
  endfacet
  facet normal 0.92388 0.382683 0
    outer loop
      vertex -6.03805 0.20494 1
      vertex -4.12463 -4.41446 2
      vertex -4.12463 -4.41446 1
    endloop
  endfacet
  facet normal -0.923879 -0.382684 0
    outer loop
      vertex -3.20075 -4.03177 1
      vertex -3.77477 -2.64596 2
      vertex -3.77477 -2.64596 1
    endloop
  endfacet
  facet normal -0.923879 -0.382684 0
    outer loop
      vertex -3.77477 -2.64596 2
      vertex -3.20075 -4.03177 1
      vertex -3.20075 -4.03177 2
    endloop
  endfacet
  facet normal -0.92388 -0.382683 0
    outer loop
      vertex -4.54014 -0.798196 1
      vertex -5.11417 0.587623 2
      vertex -5.11417 0.587623 1
    endloop
  endfacet
  facet normal -0.92388 -0.382683 0
    outer loop
      vertex -5.11417 0.587623 2
      vertex -4.54014 -0.798196 1
      vertex -4.54014 -0.798196 2
    endloop
  endfacet
  facet normal 0.382683 -0.92388 0
    outer loop
      vertex -6.03805 0.20494 1
      vertex -5.11417 0.587623 2
      vertex -6.03805 0.20494 2
    endloop
  endfacet
  facet normal 0.382683 -0.92388 0
    outer loop
      vertex -5.11417 0.587623 2
      vertex -6.03805 0.20494 1
      vertex -5.11417 0.587623 1
    endloop
  endfacet
  facet normal -0.382684 0.923879 0
    outer loop
      vertex -3.20075 -4.03177 1
      vertex -4.12463 -4.41446 2
      vertex -3.20075 -4.03177 2
    endloop
  endfacet
  facet normal -0.382684 0.923879 0
    outer loop
      vertex -4.12463 -4.41446 2
      vertex -3.20075 -4.03177 1
      vertex -4.12463 -4.41446 1
    endloop
  endfacet
  facet normal 0.923879 0.382684 0
    outer loop
      vertex -4.03177 3.20075 2
      vertex -4.41446 4.12463 1
      vertex -4.41446 4.12463 2
    endloop
  endfacet
  facet normal 0.923879 0.382684 0
    outer loop
      vertex -4.41446 4.12463 1
      vertex -4.03177 3.20075 2
      vertex -4.03177 3.20075 1
    endloop
  endfacet
  facet normal -0.92388 -0.382683 0
    outer loop
      vertex 0.587623 5.11417 1
      vertex 0.20494 6.03805 2
      vertex 0.20494 6.03805 1
    endloop
  endfacet
  facet normal -0.92388 -0.382683 0
    outer loop
      vertex 0.20494 6.03805 2
      vertex 0.587623 5.11417 1
      vertex 0.587623 5.11417 2
    endloop
  endfacet
  facet normal -0.382684 0.923879 0
    outer loop
      vertex -2.64596 3.77477 1
      vertex -4.03177 3.20075 2
      vertex -2.64596 3.77477 2
    endloop
  endfacet
  facet normal -0.382684 0.923879 0
    outer loop
      vertex -4.03177 3.20075 2
      vertex -2.64596 3.77477 1
      vertex -4.03177 3.20075 1
    endloop
  endfacet
  facet normal -0.382683 0.92388 0
    outer loop
      vertex 0.587623 5.11417 1
      vertex -0.798196 4.54014 2
      vertex 0.587623 5.11417 2
    endloop
  endfacet
  facet normal -0.382683 0.92388 0
    outer loop
      vertex -0.798196 4.54014 2
      vertex 0.587623 5.11417 1
      vertex -0.798196 4.54014 1
    endloop
  endfacet
  facet normal 0.382683 -0.92388 0
    outer loop
      vertex -4.41446 4.12463 1
      vertex 0.20494 6.03805 2
      vertex -4.41446 4.12463 2
    endloop
  endfacet
  facet normal 0.382683 -0.92388 0
    outer loop
      vertex 0.20494 6.03805 2
      vertex -4.41446 4.12463 1
      vertex 0.20494 6.03805 1
    endloop
  endfacet
  facet normal 0.92388 0.382683 0
    outer loop
      vertex -0.20494 -6.03805 2
      vertex -0.587623 -5.11417 1
      vertex -0.587623 -5.11417 2
    endloop
  endfacet
  facet normal 0.92388 0.382683 0
    outer loop
      vertex -0.587623 -5.11417 1
      vertex -0.20494 -6.03805 2
      vertex -0.20494 -6.03805 1
    endloop
  endfacet
  facet normal -0.923879 -0.382684 0
    outer loop
      vertex 4.41446 -4.12463 1
      vertex 4.03177 -3.20075 2
      vertex 4.03177 -3.20075 1
    endloop
  endfacet
  facet normal -0.923879 -0.382684 0
    outer loop
      vertex 4.03177 -3.20075 2
      vertex 4.41446 -4.12463 1
      vertex 4.41446 -4.12463 2
    endloop
  endfacet
  facet normal -0.382683 0.92388 0
    outer loop
      vertex 4.41446 -4.12463 1
      vertex -0.20494 -6.03805 2
      vertex 4.41446 -4.12463 2
    endloop
  endfacet
  facet normal -0.382683 0.92388 0
    outer loop
      vertex -0.20494 -6.03805 2
      vertex 4.41446 -4.12463 1
      vertex -0.20494 -6.03805 1
    endloop
  endfacet
  facet normal 0.382684 -0.923879 0
    outer loop
      vertex 2.64596 -3.77477 1
      vertex 4.03177 -3.20075 2
      vertex 2.64596 -3.77477 2
    endloop
  endfacet
  facet normal 0.382684 -0.923879 0
    outer loop
      vertex 4.03177 -3.20075 2
      vertex 2.64596 -3.77477 1
      vertex 4.03177 -3.20075 1
    endloop
  endfacet
  facet normal 0.382683 -0.92388 0
    outer loop
      vertex -0.587623 -5.11417 1
      vertex 0.798196 -4.54014 2
      vertex -0.587623 -5.11417 2
    endloop
  endfacet
  facet normal 0.382683 -0.92388 0
    outer loop
      vertex 0.798196 -4.54014 2
      vertex -0.587623 -5.11417 1
      vertex 0.798196 -4.54014 1
    endloop
  endfacet
endsolid OpenSCAD_Model
